<svg xmlns="http://www.w3.org/2000/svg" xmlns:xlink="http://www.w3.org/1999/xlink" width="614.4" height="460.8" version="1.1" viewBox="0 0 460.8 345.6"><metadata><rdf:RDF xmlns:cc="http://creativecommons.org/ns#" xmlns:dc="http://purl.org/dc/elements/1.1/" xmlns:rdf="http://www.w3.org/1999/02/22-rdf-syntax-ns#"><cc:Work><dc:type rdf:resource="http://purl.org/dc/dcmitype/StillImage"/><dc:date>2021-04-16T17:01:19.929186</dc:date><dc:format>image/svg+xml</dc:format><dc:creator><cc:Agent><dc:title>Matplotlib v3.4.1, https://matplotlib.org/</dc:title></cc:Agent></dc:creator></cc:Work></rdf:RDF></metadata><defs><style type="text/css">*{stroke-linecap:butt;stroke-linejoin:round}</style></defs><g id="figure_1"><g id="patch_1"><path d="M 0 345.6 L 460.8 345.6 L 460.8 0 L 0 0 z" style="fill:#fff"/></g><g id="axes_1"><g id="patch_2"><path d="M 57.6 307.584 L 414.72 307.584 L 414.72 41.472 L 57.6 41.472 z" style="fill:#fff"/></g><g id="matplotlib.axis_1"><g id="xtick_1"><g id="line2d_1"><defs><path id="m965ea2a6a6" d="M 0 0 L 0 3.5" style="stroke:#000;stroke-width:.8"/></defs><g><use style="stroke:#000;stroke-width:.8" x="75.456" y="307.584" xlink:href="#m965ea2a6a6"/></g></g><g id="text_1"><g transform="translate(72.27475 322.182437)scale(0.1 -0.1)"><defs><path id="DejaVuSans-31" d="M 794 531 L 1825 531 L 1825 4091 L 703 3866 L 703 4441 L 1819 4666 L 2450 4666 L 2450 531 L 3481 531 L 3481 0 L 794 0 L 794 531 z" transform="scale(0.015625)"/></defs><use xlink:href="#DejaVuSans-31"/></g></g></g><g id="xtick_2"><g id="line2d_2"><g><use style="stroke:#000;stroke-width:.8" x="111.168" y="307.584" xlink:href="#m965ea2a6a6"/></g></g><g id="text_2"><g transform="translate(107.98675 322.182437)scale(0.1 -0.1)"><defs><path id="DejaVuSans-32" d="M 1228 531 L 3431 531 L 3431 0 L 469 0 L 469 531 Q 828 903 1448 1529 Q 2069 2156 2228 2338 Q 2531 2678 2651 2914 Q 2772 3150 2772 3378 Q 2772 3750 2511 3984 Q 2250 4219 1831 4219 Q 1534 4219 1204 4116 Q 875 4013 500 3803 L 500 4441 Q 881 4594 1212 4672 Q 1544 4750 1819 4750 Q 2544 4750 2975 4387 Q 3406 4025 3406 3419 Q 3406 3131 3298 2873 Q 3191 2616 2906 2266 Q 2828 2175 2409 1742 Q 1991 1309 1228 531 z" transform="scale(0.015625)"/></defs><use xlink:href="#DejaVuSans-32"/></g></g></g><g id="xtick_3"><g id="line2d_3"><g><use style="stroke:#000;stroke-width:.8" x="146.88" y="307.584" xlink:href="#m965ea2a6a6"/></g></g><g id="text_3"><g transform="translate(143.69875 322.182437)scale(0.1 -0.1)"><defs><path id="DejaVuSans-33" d="M 2597 2516 Q 3050 2419 3304 2112 Q 3559 1806 3559 1356 Q 3559 666 3084 287 Q 2609 -91 1734 -91 Q 1441 -91 1130 -33 Q 819 25 488 141 L 488 750 Q 750 597 1062 519 Q 1375 441 1716 441 Q 2309 441 2620 675 Q 2931 909 2931 1356 Q 2931 1769 2642 2001 Q 2353 2234 1838 2234 L 1294 2234 L 1294 2753 L 1863 2753 Q 2328 2753 2575 2939 Q 2822 3125 2822 3475 Q 2822 3834 2567 4026 Q 2313 4219 1838 4219 Q 1578 4219 1281 4162 Q 984 4106 628 3988 L 628 4550 Q 988 4650 1302 4700 Q 1616 4750 1894 4750 Q 2613 4750 3031 4423 Q 3450 4097 3450 3541 Q 3450 3153 3228 2886 Q 3006 2619 2597 2516 z" transform="scale(0.015625)"/></defs><use xlink:href="#DejaVuSans-33"/></g></g></g><g id="xtick_4"><g id="line2d_4"><g><use style="stroke:#000;stroke-width:.8" x="182.592" y="307.584" xlink:href="#m965ea2a6a6"/></g></g><g id="text_4"><g transform="translate(179.41075 322.182437)scale(0.1 -0.1)"><defs><path id="DejaVuSans-34" d="M 2419 4116 L 825 1625 L 2419 1625 L 2419 4116 z M 2253 4666 L 3047 4666 L 3047 1625 L 3713 1625 L 3713 1100 L 3047 1100 L 3047 0 L 2419 0 L 2419 1100 L 313 1100 L 313 1709 L 2253 4666 z" transform="scale(0.015625)"/></defs><use xlink:href="#DejaVuSans-34"/></g></g></g><g id="xtick_5"><g id="line2d_5"><g><use style="stroke:#000;stroke-width:.8" x="218.304" y="307.584" xlink:href="#m965ea2a6a6"/></g></g><g id="text_5"><g transform="translate(215.12275 322.182437)scale(0.1 -0.1)"><defs><path id="DejaVuSans-35" d="M 691 4666 L 3169 4666 L 3169 4134 L 1269 4134 L 1269 2991 Q 1406 3038 1543 3061 Q 1681 3084 1819 3084 Q 2600 3084 3056 2656 Q 3513 2228 3513 1497 Q 3513 744 3044 326 Q 2575 -91 1722 -91 Q 1428 -91 1123 -41 Q 819 9 494 109 L 494 744 Q 775 591 1075 516 Q 1375 441 1709 441 Q 2250 441 2565 725 Q 2881 1009 2881 1497 Q 2881 1984 2565 2268 Q 2250 2553 1709 2553 Q 1456 2553 1204 2497 Q 953 2441 691 2322 L 691 4666 z" transform="scale(0.015625)"/></defs><use xlink:href="#DejaVuSans-35"/></g></g></g><g id="xtick_6"><g id="line2d_6"><g><use style="stroke:#000;stroke-width:.8" x="254.016" y="307.584" xlink:href="#m965ea2a6a6"/></g></g><g id="text_6"><g transform="translate(250.83475 322.182437)scale(0.1 -0.1)"><defs><path id="DejaVuSans-36" d="M 2113 2584 Q 1688 2584 1439 2293 Q 1191 2003 1191 1497 Q 1191 994 1439 701 Q 1688 409 2113 409 Q 2538 409 2786 701 Q 3034 994 3034 1497 Q 3034 2003 2786 2293 Q 2538 2584 2113 2584 z M 3366 4563 L 3366 3988 Q 3128 4100 2886 4159 Q 2644 4219 2406 4219 Q 1781 4219 1451 3797 Q 1122 3375 1075 2522 Q 1259 2794 1537 2939 Q 1816 3084 2150 3084 Q 2853 3084 3261 2657 Q 3669 2231 3669 1497 Q 3669 778 3244 343 Q 2819 -91 2113 -91 Q 1303 -91 875 529 Q 447 1150 447 2328 Q 447 3434 972 4092 Q 1497 4750 2381 4750 Q 2619 4750 2861 4703 Q 3103 4656 3366 4563 z" transform="scale(0.015625)"/></defs><use xlink:href="#DejaVuSans-36"/></g></g></g><g id="xtick_7"><g id="line2d_7"><g><use style="stroke:#000;stroke-width:.8" x="289.728" y="307.584" xlink:href="#m965ea2a6a6"/></g></g><g id="text_7"><g transform="translate(286.54675 322.182437)scale(0.1 -0.1)"><defs><path id="DejaVuSans-37" d="M 525 4666 L 3525 4666 L 3525 4397 L 1831 0 L 1172 0 L 2766 4134 L 525 4134 L 525 4666 z" transform="scale(0.015625)"/></defs><use xlink:href="#DejaVuSans-37"/></g></g></g><g id="xtick_8"><g id="line2d_8"><g><use style="stroke:#000;stroke-width:.8" x="325.44" y="307.584" xlink:href="#m965ea2a6a6"/></g></g><g id="text_8"><g transform="translate(322.25875 322.182437)scale(0.1 -0.1)"><defs><path id="DejaVuSans-38" d="M 2034 2216 Q 1584 2216 1326 1975 Q 1069 1734 1069 1313 Q 1069 891 1326 650 Q 1584 409 2034 409 Q 2484 409 2743 651 Q 3003 894 3003 1313 Q 3003 1734 2745 1975 Q 2488 2216 2034 2216 z M 1403 2484 Q 997 2584 770 2862 Q 544 3141 544 3541 Q 544 4100 942 4425 Q 1341 4750 2034 4750 Q 2731 4750 3128 4425 Q 3525 4100 3525 3541 Q 3525 3141 3298 2862 Q 3072 2584 2669 2484 Q 3125 2378 3379 2068 Q 3634 1759 3634 1313 Q 3634 634 3220 271 Q 2806 -91 2034 -91 Q 1263 -91 848 271 Q 434 634 434 1313 Q 434 1759 690 2068 Q 947 2378 1403 2484 z M 1172 3481 Q 1172 3119 1398 2916 Q 1625 2713 2034 2713 Q 2441 2713 2670 2916 Q 2900 3119 2900 3481 Q 2900 3844 2670 4047 Q 2441 4250 2034 4250 Q 1625 4250 1398 4047 Q 1172 3844 1172 3481 z" transform="scale(0.015625)"/></defs><use xlink:href="#DejaVuSans-38"/></g></g></g><g id="xtick_9"><g id="line2d_9"><g><use style="stroke:#000;stroke-width:.8" x="361.152" y="307.584" xlink:href="#m965ea2a6a6"/></g></g><g id="text_9"><g transform="translate(357.97075 322.182437)scale(0.1 -0.1)"><defs><path id="DejaVuSans-39" d="M 703 97 L 703 672 Q 941 559 1184 500 Q 1428 441 1663 441 Q 2288 441 2617 861 Q 2947 1281 2994 2138 Q 2813 1869 2534 1725 Q 2256 1581 1919 1581 Q 1219 1581 811 2004 Q 403 2428 403 3163 Q 403 3881 828 4315 Q 1253 4750 1959 4750 Q 2769 4750 3195 4129 Q 3622 3509 3622 2328 Q 3622 1225 3098 567 Q 2575 -91 1691 -91 Q 1453 -91 1209 -44 Q 966 3 703 97 z M 1959 2075 Q 2384 2075 2632 2365 Q 2881 2656 2881 3163 Q 2881 3666 2632 3958 Q 2384 4250 1959 4250 Q 1534 4250 1286 3958 Q 1038 3666 1038 3163 Q 1038 2656 1286 2365 Q 1534 2075 1959 2075 z" transform="scale(0.015625)"/></defs><use xlink:href="#DejaVuSans-39"/></g></g></g><g id="xtick_10"><g id="line2d_10"><g><use style="stroke:#000;stroke-width:.8" x="396.864" y="307.584" xlink:href="#m965ea2a6a6"/></g></g><g id="text_10"><g transform="translate(390.5015 322.182437)scale(0.1 -0.1)"><defs><path id="DejaVuSans-30" d="M 2034 4250 Q 1547 4250 1301 3770 Q 1056 3291 1056 2328 Q 1056 1369 1301 889 Q 1547 409 2034 409 Q 2525 409 2770 889 Q 3016 1369 3016 2328 Q 3016 3291 2770 3770 Q 2525 4250 2034 4250 z M 2034 4750 Q 2819 4750 3233 4129 Q 3647 3509 3647 2328 Q 3647 1150 3233 529 Q 2819 -91 2034 -91 Q 1250 -91 836 529 Q 422 1150 422 2328 Q 422 3509 836 4129 Q 1250 4750 2034 4750 z" transform="scale(0.015625)"/></defs><use xlink:href="#DejaVuSans-31"/><use x="63.623" xlink:href="#DejaVuSans-30"/></g></g></g><g id="text_11"><g transform="translate(217.374844 335.860562)scale(0.1 -0.1)"><defs><path id="DejaVuSans-52" d="M 2841 2188 Q 3044 2119 3236 1894 Q 3428 1669 3622 1275 L 4263 0 L 3584 0 L 2988 1197 Q 2756 1666 2539 1819 Q 2322 1972 1947 1972 L 1259 1972 L 1259 0 L 628 0 L 628 4666 L 2053 4666 Q 2853 4666 3247 4331 Q 3641 3997 3641 3322 Q 3641 2881 3436 2590 Q 3231 2300 2841 2188 z M 1259 4147 L 1259 2491 L 2053 2491 Q 2509 2491 2742 2702 Q 2975 2913 2975 3322 Q 2975 3731 2742 3939 Q 2509 4147 2053 4147 L 1259 4147 z" transform="scale(0.015625)"/><path id="DejaVuSans-6f" d="M 1959 3097 Q 1497 3097 1228 2736 Q 959 2375 959 1747 Q 959 1119 1226 758 Q 1494 397 1959 397 Q 2419 397 2687 759 Q 2956 1122 2956 1747 Q 2956 2369 2687 2733 Q 2419 3097 1959 3097 z M 1959 3584 Q 2709 3584 3137 3096 Q 3566 2609 3566 1747 Q 3566 888 3137 398 Q 2709 -91 1959 -91 Q 1206 -91 779 398 Q 353 888 353 1747 Q 353 2609 779 3096 Q 1206 3584 1959 3584 z" transform="scale(0.015625)"/><path id="DejaVuSans-64" d="M 2906 2969 L 2906 4863 L 3481 4863 L 3481 0 L 2906 0 L 2906 525 Q 2725 213 2448 61 Q 2172 -91 1784 -91 Q 1150 -91 751 415 Q 353 922 353 1747 Q 353 2572 751 3078 Q 1150 3584 1784 3584 Q 2172 3584 2448 3432 Q 2725 3281 2906 2969 z M 947 1747 Q 947 1113 1208 752 Q 1469 391 1925 391 Q 2381 391 2643 752 Q 2906 1113 2906 1747 Q 2906 2381 2643 2742 Q 2381 3103 1925 3103 Q 1469 3103 1208 2742 Q 947 2381 947 1747 z" transform="scale(0.015625)"/><path id="DejaVuSans-61" d="M 2194 1759 Q 1497 1759 1228 1600 Q 959 1441 959 1056 Q 959 750 1161 570 Q 1363 391 1709 391 Q 2188 391 2477 730 Q 2766 1069 2766 1631 L 2766 1759 L 2194 1759 z M 3341 1997 L 3341 0 L 2766 0 L 2766 531 Q 2569 213 2275 61 Q 1981 -91 1556 -91 Q 1019 -91 701 211 Q 384 513 384 1019 Q 384 1609 779 1909 Q 1175 2209 1959 2209 L 2766 2209 L 2766 2266 Q 2766 2663 2505 2880 Q 2244 3097 1772 3097 Q 1472 3097 1187 3025 Q 903 2953 641 2809 L 641 3341 Q 956 3463 1253 3523 Q 1550 3584 1831 3584 Q 2591 3584 2966 3190 Q 3341 2797 3341 1997 z" transform="scale(0.015625)"/></defs><use xlink:href="#DejaVuSans-52"/><use x="64.982" xlink:href="#DejaVuSans-6f"/><use x="126.164" xlink:href="#DejaVuSans-64"/><use x="189.641" xlink:href="#DejaVuSans-61"/><use x="250.92" xlink:href="#DejaVuSans-64"/><use x="314.396" xlink:href="#DejaVuSans-61"/></g></g></g><g id="matplotlib.axis_2"><g id="ytick_1"><g id="line2d_11"><defs><path id="m91493f2620" d="M 0 0 L -3.5 0" style="stroke:#000;stroke-width:.8"/></defs><g><use style="stroke:#000;stroke-width:.8" x="57.6" y="296.205" xlink:href="#m91493f2620"/></g></g><g id="text_12"><g transform="translate(21.971875 300.004693)scale(0.1 -0.1)"><defs><path id="DejaVuSans-2e" d="M 684 794 L 1344 794 L 1344 0 L 684 0 L 684 794 z" transform="scale(0.015625)"/></defs><use xlink:href="#DejaVuSans-30"/><use x="63.623" xlink:href="#DejaVuSans-2e"/><use x="95.41" xlink:href="#DejaVuSans-30"/><use x="159.033" xlink:href="#DejaVuSans-30"/><use x="222.656" xlink:href="#DejaVuSans-30"/></g></g></g><g id="ytick_2"><g id="line2d_12"><g><use style="stroke:#000;stroke-width:.8" x="57.6" y="249.541" xlink:href="#m91493f2620"/></g></g><g id="text_13"><g transform="translate(21.971875 253.340619)scale(0.1 -0.1)"><use xlink:href="#DejaVuSans-30"/><use x="63.623" xlink:href="#DejaVuSans-2e"/><use x="95.41" xlink:href="#DejaVuSans-30"/><use x="159.033" xlink:href="#DejaVuSans-30"/><use x="222.656" xlink:href="#DejaVuSans-35"/></g></g></g><g id="ytick_3"><g id="line2d_13"><g><use style="stroke:#000;stroke-width:.8" x="57.6" y="202.877" xlink:href="#m91493f2620"/></g></g><g id="text_14"><g transform="translate(21.971875 206.676545)scale(0.1 -0.1)"><use xlink:href="#DejaVuSans-30"/><use x="63.623" xlink:href="#DejaVuSans-2e"/><use x="95.41" xlink:href="#DejaVuSans-30"/><use x="159.033" xlink:href="#DejaVuSans-31"/><use x="222.656" xlink:href="#DejaVuSans-30"/></g></g></g><g id="ytick_4"><g id="line2d_14"><g><use style="stroke:#000;stroke-width:.8" x="57.6" y="156.213" xlink:href="#m91493f2620"/></g></g><g id="text_15"><g transform="translate(21.971875 160.012471)scale(0.1 -0.1)"><use xlink:href="#DejaVuSans-30"/><use x="63.623" xlink:href="#DejaVuSans-2e"/><use x="95.41" xlink:href="#DejaVuSans-30"/><use x="159.033" xlink:href="#DejaVuSans-31"/><use x="222.656" xlink:href="#DejaVuSans-35"/></g></g></g><g id="ytick_5"><g id="line2d_15"><g><use style="stroke:#000;stroke-width:.8" x="57.6" y="109.549" xlink:href="#m91493f2620"/></g></g><g id="text_16"><g transform="translate(21.971875 113.348397)scale(0.1 -0.1)"><use xlink:href="#DejaVuSans-30"/><use x="63.623" xlink:href="#DejaVuSans-2e"/><use x="95.41" xlink:href="#DejaVuSans-30"/><use x="159.033" xlink:href="#DejaVuSans-32"/><use x="222.656" xlink:href="#DejaVuSans-30"/></g></g></g><g id="ytick_6"><g id="line2d_16"><g><use style="stroke:#000;stroke-width:.8" x="57.6" y="62.885" xlink:href="#m91493f2620"/></g></g><g id="text_17"><g transform="translate(21.971875 66.684324)scale(0.1 -0.1)"><use xlink:href="#DejaVuSans-30"/><use x="63.623" xlink:href="#DejaVuSans-2e"/><use x="95.41" xlink:href="#DejaVuSans-30"/><use x="159.033" xlink:href="#DejaVuSans-32"/><use x="222.656" xlink:href="#DejaVuSans-35"/></g></g></g><g id="text_18"><g transform="translate(15.892188 185.175656)rotate(-90)scale(0.1 -0.1)"><defs><path id="DejaVuSans-4d" d="M 628 4666 L 1569 4666 L 2759 1491 L 3956 4666 L 4897 4666 L 4897 0 L 4281 0 L 4281 4097 L 3078 897 L 2444 897 L 1241 4097 L 1241 0 L 628 0 L 628 4666 z" transform="scale(0.015625)"/><path id="DejaVuSans-53" d="M 3425 4513 L 3425 3897 Q 3066 4069 2747 4153 Q 2428 4238 2131 4238 Q 1616 4238 1336 4038 Q 1056 3838 1056 3469 Q 1056 3159 1242 3001 Q 1428 2844 1947 2747 L 2328 2669 Q 3034 2534 3370 2195 Q 3706 1856 3706 1288 Q 3706 609 3251 259 Q 2797 -91 1919 -91 Q 1588 -91 1214 -16 Q 841 59 441 206 L 441 856 Q 825 641 1194 531 Q 1563 422 1919 422 Q 2459 422 2753 634 Q 3047 847 3047 1241 Q 3047 1584 2836 1778 Q 2625 1972 2144 2069 L 1759 2144 Q 1053 2284 737 2584 Q 422 2884 422 3419 Q 422 4038 858 4394 Q 1294 4750 2059 4750 Q 2388 4750 2728 4690 Q 3069 4631 3425 4513 z" transform="scale(0.015625)"/><path id="DejaVuSans-45" d="M 628 4666 L 3578 4666 L 3578 4134 L 1259 4134 L 1259 2753 L 3481 2753 L 3481 2222 L 1259 2222 L 1259 531 L 3634 531 L 3634 0 L 628 0 L 628 4666 z" transform="scale(0.015625)"/></defs><use xlink:href="#DejaVuSans-4d"/><use x="86.279" xlink:href="#DejaVuSans-53"/><use x="149.756" xlink:href="#DejaVuSans-45"/></g></g></g><g id="line2d_17"><path d="M 75.456 287.242413 L 75.456 288.885251" clip-path="url(#p457fe023d9)" style="fill:none;stroke:#000;stroke-linecap:square"/></g><g id="line2d_18"><path d="M 75.456 277.346391 L 75.456 262.854764" clip-path="url(#p457fe023d9)" style="fill:none;stroke:#000;stroke-linecap:square"/></g><g id="line2d_19"><path d="M 70.992 288.885251 L 79.92 288.885251" clip-path="url(#p457fe023d9)" style="fill:none;stroke:#000;stroke-linecap:square"/></g><g id="line2d_20"><path d="M 70.992 262.854764 L 79.92 262.854764" clip-path="url(#p457fe023d9)" style="fill:none;stroke:#000;stroke-linecap:square"/></g><g id="line2d_21"><path d="M 111.168 79.138443 L 111.168 95.910627" clip-path="url(#p457fe023d9)" style="fill:none;stroke:#000;stroke-linecap:square"/></g><g id="line2d_22"><path d="M 111.168 65.617844 L 111.168 53.568" clip-path="url(#p457fe023d9)" style="fill:none;stroke:#000;stroke-linecap:square"/></g><g id="line2d_23"><path d="M 106.704 95.910627 L 115.632 95.910627" clip-path="url(#p457fe023d9)" style="fill:none;stroke:#000;stroke-linecap:square"/></g><g id="line2d_24"><path d="M 106.704 53.568 L 115.632 53.568" clip-path="url(#p457fe023d9)" style="fill:none;stroke:#000;stroke-linecap:square"/></g><g id="line2d_25"><path d="M 146.88 290.867864 L 146.88 291.710251" clip-path="url(#p457fe023d9)" style="fill:none;stroke:#000;stroke-linecap:square"/></g><g id="line2d_26"><path d="M 146.88 285.19684 L 146.88 276.793041" clip-path="url(#p457fe023d9)" style="fill:none;stroke:#000;stroke-linecap:square"/></g><g id="line2d_27"><path d="M 142.416 291.710251 L 151.344 291.710251" clip-path="url(#p457fe023d9)" style="fill:none;stroke:#000;stroke-linecap:square"/></g><g id="line2d_28"><path d="M 142.416 276.793041 L 151.344 276.793041" clip-path="url(#p457fe023d9)" style="fill:none;stroke:#000;stroke-linecap:square"/></g><g id="line2d_29"><path d="M 182.592 203.271661 L 182.592 210.609208" clip-path="url(#p457fe023d9)" style="fill:none;stroke:#000;stroke-linecap:square"/></g><g id="line2d_30"><path d="M 182.592 191.199874 L 182.592 174.028416" clip-path="url(#p457fe023d9)" style="fill:none;stroke:#000;stroke-linecap:square"/></g><g id="line2d_31"><path d="M 178.128 210.609208 L 187.056 210.609208" clip-path="url(#p457fe023d9)" style="fill:none;stroke:#000;stroke-linecap:square"/></g><g id="line2d_32"><path d="M 178.128 174.028416 L 187.056 174.028416" clip-path="url(#p457fe023d9)" style="fill:none;stroke:#000;stroke-linecap:square"/></g><g id="line2d_33"><path d="M 218.304 268.738844 L 218.304 272.268562" clip-path="url(#p457fe023d9)" style="fill:none;stroke:#000;stroke-linecap:square"/></g><g id="line2d_34"><path d="M 218.304 251.042066 L 218.304 224.904656" clip-path="url(#p457fe023d9)" style="fill:none;stroke:#000;stroke-linecap:square"/></g><g id="line2d_35"><path d="M 213.84 272.268562 L 222.768 272.268562" clip-path="url(#p457fe023d9)" style="fill:none;stroke:#000;stroke-linecap:square"/></g><g id="line2d_36"><path d="M 213.84 224.904656 L 222.768 224.904656" clip-path="url(#p457fe023d9)" style="fill:none;stroke:#000;stroke-linecap:square"/></g><g id="line2d_37"><path d="M 254.016 135.671472 L 254.016 155.256708" clip-path="url(#p457fe023d9)" style="fill:none;stroke:#000;stroke-linecap:square"/></g><g id="line2d_38"><path d="M 254.016 99.470757 L 254.016 77.045638" clip-path="url(#p457fe023d9)" style="fill:none;stroke:#000;stroke-linecap:square"/></g><g id="line2d_39"><path d="M 249.552 155.256708 L 258.48 155.256708" clip-path="url(#p457fe023d9)" style="fill:none;stroke:#000;stroke-linecap:square"/></g><g id="line2d_40"><path d="M 249.552 77.045638 L 258.48 77.045638" clip-path="url(#p457fe023d9)" style="fill:none;stroke:#000;stroke-linecap:square"/></g><g id="line2d_41"><path d="M 289.728 295.246914 L 289.728 295.488" clip-path="url(#p457fe023d9)" style="fill:none;stroke:#000;stroke-linecap:square"/></g><g id="line2d_42"><path d="M 289.728 292.938643 L 289.728 289.585688" clip-path="url(#p457fe023d9)" style="fill:none;stroke:#000;stroke-linecap:square"/></g><g id="line2d_43"><path d="M 285.264 295.488 L 294.192 295.488" clip-path="url(#p457fe023d9)" style="fill:none;stroke:#000;stroke-linecap:square"/></g><g id="line2d_44"><path d="M 285.264 289.585688 L 294.192 289.585688" clip-path="url(#p457fe023d9)" style="fill:none;stroke:#000;stroke-linecap:square"/></g><g id="line2d_45"><path d="M 325.44 119.129248 L 325.44 148.58633" clip-path="url(#p457fe023d9)" style="fill:none;stroke:#000;stroke-linecap:square"/></g><g id="line2d_46"><path d="M 325.44 89.116069 L 325.44 55.573247" clip-path="url(#p457fe023d9)" style="fill:none;stroke:#000;stroke-linecap:square"/></g><g id="line2d_47"><path d="M 320.976 148.58633 L 329.904 148.58633" clip-path="url(#p457fe023d9)" style="fill:none;stroke:#000;stroke-linecap:square"/></g><g id="line2d_48"><path d="M 320.976 55.573247 L 329.904 55.573247" clip-path="url(#p457fe023d9)" style="fill:none;stroke:#000;stroke-linecap:square"/></g><g id="line2d_49"><path d="M 361.152 287.828789 L 361.152 288.638686" clip-path="url(#p457fe023d9)" style="fill:none;stroke:#000;stroke-linecap:square"/></g><g id="line2d_50"><path d="M 361.152 282.192361 L 361.152 273.869734" clip-path="url(#p457fe023d9)" style="fill:none;stroke:#000;stroke-linecap:square"/></g><g id="line2d_51"><path d="M 356.688 288.638686 L 365.616 288.638686" clip-path="url(#p457fe023d9)" style="fill:none;stroke:#000;stroke-linecap:square"/></g><g id="line2d_52"><path d="M 356.688 273.869734 L 365.616 273.869734" clip-path="url(#p457fe023d9)" style="fill:none;stroke:#000;stroke-linecap:square"/></g><g id="line2d_53"><path d="M 396.864 261.400819 L 396.864 265.548463" clip-path="url(#p457fe023d9)" style="fill:none;stroke:#000;stroke-linecap:square"/></g><g id="line2d_54"><path d="M 396.864 236.509506 L 396.864 199.185217" clip-path="url(#p457fe023d9)" style="fill:none;stroke:#000;stroke-linecap:square"/></g><g id="line2d_55"><path d="M 392.4 265.548463 L 401.328 265.548463" clip-path="url(#p457fe023d9)" style="fill:none;stroke:#000;stroke-linecap:square"/></g><g id="line2d_56"><path d="M 392.4 199.185217 L 401.328 199.185217" clip-path="url(#p457fe023d9)" style="fill:none;stroke:#000;stroke-linecap:square"/></g><g id="patch_3"><path d="M 66.528 287.242413 L 84.384 287.242413 L 84.384 277.346391 L 66.528 277.346391 L 66.528 287.242413 z" clip-path="url(#p457fe023d9)" style="fill:#1f77b4;stroke:#000;stroke-linejoin:miter"/></g><g id="patch_4"><path d="M 102.24 79.138443 L 120.096 79.138443 L 120.096 65.617844 L 102.24 65.617844 L 102.24 79.138443 z" clip-path="url(#p457fe023d9)" style="fill:#1f77b4;stroke:#000;stroke-linejoin:miter"/></g><g id="patch_5"><path d="M 137.952 290.867864 L 155.808 290.867864 L 155.808 285.19684 L 137.952 285.19684 L 137.952 290.867864 z" clip-path="url(#p457fe023d9)" style="fill:#1f77b4;stroke:#000;stroke-linejoin:miter"/></g><g id="patch_6"><path d="M 173.664 203.271661 L 191.52 203.271661 L 191.52 191.199874 L 173.664 191.199874 L 173.664 203.271661 z" clip-path="url(#p457fe023d9)" style="fill:#1f77b4;stroke:#000;stroke-linejoin:miter"/></g><g id="patch_7"><path d="M 209.376 268.738844 L 227.232 268.738844 L 227.232 251.042066 L 209.376 251.042066 L 209.376 268.738844 z" clip-path="url(#p457fe023d9)" style="fill:#1f77b4;stroke:#000;stroke-linejoin:miter"/></g><g id="patch_8"><path d="M 245.088 135.671472 L 262.944 135.671472 L 262.944 99.470757 L 245.088 99.470757 L 245.088 135.671472 z" clip-path="url(#p457fe023d9)" style="fill:#1f77b4;stroke:#000;stroke-linejoin:miter"/></g><g id="patch_9"><path d="M 280.8 295.246914 L 298.656 295.246914 L 298.656 292.938643 L 280.8 292.938643 L 280.8 295.246914 z" clip-path="url(#p457fe023d9)" style="fill:#1f77b4;stroke:#000;stroke-linejoin:miter"/></g><g id="patch_10"><path d="M 316.512 119.129248 L 334.368 119.129248 L 334.368 89.116069 L 316.512 89.116069 L 316.512 119.129248 z" clip-path="url(#p457fe023d9)" style="fill:#1f77b4;stroke:#000;stroke-linejoin:miter"/></g><g id="patch_11"><path d="M 352.224 287.828789 L 370.08 287.828789 L 370.08 282.192361 L 352.224 282.192361 L 352.224 287.828789 z" clip-path="url(#p457fe023d9)" style="fill:#1f77b4;stroke:#000;stroke-linejoin:miter"/></g><g id="patch_12"><path d="M 387.936 261.400819 L 405.792 261.400819 L 405.792 236.509506 L 387.936 236.509506 L 387.936 261.400819 z" clip-path="url(#p457fe023d9)" style="fill:#1f77b4;stroke:#000;stroke-linejoin:miter"/></g><g id="line2d_57"><path d="M 66.528 284.32964 L 84.384 284.32964" clip-path="url(#p457fe023d9)" style="fill:none;stroke:#ff7f0e;stroke-linecap:square"/></g><g id="line2d_58"><path d="M 102.24 75.267935 L 120.096 75.267935" clip-path="url(#p457fe023d9)" style="fill:none;stroke:#ff7f0e;stroke-linecap:square"/></g><g id="line2d_59"><path d="M 137.952 289.346645 L 155.808 289.346645" clip-path="url(#p457fe023d9)" style="fill:none;stroke:#ff7f0e;stroke-linecap:square"/></g><g id="line2d_60"><path d="M 173.664 200.322938 L 191.52 200.322938" clip-path="url(#p457fe023d9)" style="fill:none;stroke:#ff7f0e;stroke-linecap:square"/></g><g id="line2d_61"><path d="M 209.376 263.048307 L 227.232 263.048307" clip-path="url(#p457fe023d9)" style="fill:none;stroke:#ff7f0e;stroke-linecap:square"/></g><g id="line2d_62"><path d="M 245.088 116.542993 L 262.944 116.542993" clip-path="url(#p457fe023d9)" style="fill:none;stroke:#ff7f0e;stroke-linecap:square"/></g><g id="line2d_63"><path d="M 280.8 294.735265 L 298.656 294.735265" clip-path="url(#p457fe023d9)" style="fill:none;stroke:#ff7f0e;stroke-linecap:square"/></g><g id="line2d_64"><path d="M 316.512 100.283277 L 334.368 100.283277" clip-path="url(#p457fe023d9)" style="fill:none;stroke:#ff7f0e;stroke-linecap:square"/></g><g id="line2d_65"><path d="M 352.224 286.160341 L 370.08 286.160341" clip-path="url(#p457fe023d9)" style="fill:none;stroke:#ff7f0e;stroke-linecap:square"/></g><g id="line2d_66"><path d="M 387.936 253.979974 L 405.792 253.979974" clip-path="url(#p457fe023d9)" style="fill:none;stroke:#ff7f0e;stroke-linecap:square"/></g><g id="patch_13"><path d="M 57.6 307.584 L 57.6 41.472" style="fill:none;stroke:#000;stroke-linecap:square;stroke-linejoin:miter;stroke-width:.8"/></g><g id="patch_14"><path d="M 414.72 307.584 L 414.72 41.472" style="fill:none;stroke:#000;stroke-linecap:square;stroke-linejoin:miter;stroke-width:.8"/></g><g id="patch_15"><path d="M 57.6 307.584 L 414.72 307.584" style="fill:none;stroke:#000;stroke-linecap:square;stroke-linejoin:miter;stroke-width:.8"/></g><g id="patch_16"><path d="M 57.6 41.472 L 414.72 41.472" style="fill:none;stroke:#000;stroke-linecap:square;stroke-linejoin:miter;stroke-width:.8"/></g><g id="text_19"><g transform="translate(188.6475 35.472)scale(0.12 -0.12)"><defs><path id="DejaVuSans-20" transform="scale(0.015625)"/><path id="DejaVuSans-70" d="M 1159 525 L 1159 -1331 L 581 -1331 L 581 3500 L 1159 3500 L 1159 2969 Q 1341 3281 1617 3432 Q 1894 3584 2278 3584 Q 2916 3584 3314 3078 Q 3713 2572 3713 1747 Q 3713 922 3314 415 Q 2916 -91 2278 -91 Q 1894 -91 1617 61 Q 1341 213 1159 525 z M 3116 1747 Q 3116 2381 2855 2742 Q 2594 3103 2138 3103 Q 1681 3103 1420 2742 Q 1159 2381 1159 1747 Q 1159 1113 1420 752 Q 1681 391 2138 391 Q 2594 391 2855 752 Q 3116 1113 3116 1747 z" transform="scale(0.015625)"/><path id="DejaVuSans-72" d="M 2631 2963 Q 2534 3019 2420 3045 Q 2306 3072 2169 3072 Q 1681 3072 1420 2755 Q 1159 2438 1159 1844 L 1159 0 L 581 0 L 581 3500 L 1159 3500 L 1159 2956 Q 1341 3275 1631 3429 Q 1922 3584 2338 3584 Q 2397 3584 2469 3576 Q 2541 3569 2628 3553 L 2631 2963 z" transform="scale(0.015625)"/></defs><use xlink:href="#DejaVuSans-4d"/><use x="86.279" xlink:href="#DejaVuSans-53"/><use x="149.756" xlink:href="#DejaVuSans-45"/><use x="212.939" xlink:href="#DejaVuSans-20"/><use x="244.727" xlink:href="#DejaVuSans-70"/><use x="308.203" xlink:href="#DejaVuSans-6f"/><use x="369.385" xlink:href="#DejaVuSans-72"/><use x="410.498" xlink:href="#DejaVuSans-20"/><use x="442.285" xlink:href="#DejaVuSans-72"/><use x="481.148" xlink:href="#DejaVuSans-6f"/><use x="542.33" xlink:href="#DejaVuSans-64"/><use x="605.807" xlink:href="#DejaVuSans-61"/><use x="667.086" xlink:href="#DejaVuSans-64"/><use x="730.563" xlink:href="#DejaVuSans-61"/></g></g></g></g><defs><clipPath id="p457fe023d9"><rect width="357.12" height="266.112" x="57.6" y="41.472"/></clipPath></defs></svg>