<svg xmlns="http://www.w3.org/2000/svg" xmlns:xlink="http://www.w3.org/1999/xlink" width="614.4" height="460.8" version="1.1" viewBox="0 0 460.8 345.6"><metadata><rdf:RDF xmlns:cc="http://creativecommons.org/ns#" xmlns:dc="http://purl.org/dc/elements/1.1/" xmlns:rdf="http://www.w3.org/1999/02/22-rdf-syntax-ns#"><cc:Work><dc:type rdf:resource="http://purl.org/dc/dcmitype/StillImage"/><dc:date>2021-04-16T16:45:41.327810</dc:date><dc:format>image/svg+xml</dc:format><dc:creator><cc:Agent><dc:title>Matplotlib v3.4.1, https://matplotlib.org/</dc:title></cc:Agent></dc:creator></cc:Work></rdf:RDF></metadata><defs><style type="text/css">*{stroke-linecap:butt;stroke-linejoin:round}</style></defs><g id="figure_1"><g id="patch_1"><path d="M 0 345.6 L 460.8 345.6 L 460.8 0 L 0 0 z" style="fill:#fff"/></g><g id="axes_1"><g id="patch_2"><path d="M 57.6 307.584 L 414.72 307.584 L 414.72 41.472 L 57.6 41.472 z" style="fill:#fff"/></g><g id="matplotlib.axis_1"><g id="xtick_1"><g id="line2d_1"><defs><path id="mab77cdf531" d="M 0 0 L 0 3.5" style="stroke:#000;stroke-width:.8"/></defs><g><use style="stroke:#000;stroke-width:.8" x="73.833" y="307.584" xlink:href="#mab77cdf531"/></g></g><g id="text_1"><g transform="translate(70.651477 322.182437)scale(0.1 -0.1)"><defs><path id="DejaVuSans-30" d="M 2034 4250 Q 1547 4250 1301 3770 Q 1056 3291 1056 2328 Q 1056 1369 1301 889 Q 1547 409 2034 409 Q 2525 409 2770 889 Q 3016 1369 3016 2328 Q 3016 3291 2770 3770 Q 2525 4250 2034 4250 z M 2034 4750 Q 2819 4750 3233 4129 Q 3647 3509 3647 2328 Q 3647 1150 3233 529 Q 2819 -91 2034 -91 Q 1250 -91 836 529 Q 422 1150 422 2328 Q 422 3509 836 4129 Q 1250 4750 2034 4750 z" transform="scale(0.015625)"/></defs><use xlink:href="#DejaVuSans-30"/></g></g></g><g id="xtick_2"><g id="line2d_2"><g><use style="stroke:#000;stroke-width:.8" x="138.894" y="307.584" xlink:href="#mab77cdf531"/></g></g><g id="text_2"><g transform="translate(129.350008 322.182437)scale(0.1 -0.1)"><defs><path id="DejaVuSans-31" d="M 794 531 L 1825 531 L 1825 4091 L 703 3866 L 703 4441 L 1819 4666 L 2450 4666 L 2450 531 L 3481 531 L 3481 0 L 794 0 L 794 531 z" transform="scale(0.015625)"/></defs><use xlink:href="#DejaVuSans-31"/><use x="63.623" xlink:href="#DejaVuSans-30"/><use x="127.246" xlink:href="#DejaVuSans-30"/></g></g></g><g id="xtick_3"><g id="line2d_3"><g><use style="stroke:#000;stroke-width:.8" x="203.955" y="307.584" xlink:href="#mab77cdf531"/></g></g><g id="text_3"><g transform="translate(194.41104 322.182437)scale(0.1 -0.1)"><defs><path id="DejaVuSans-32" d="M 1228 531 L 3431 531 L 3431 0 L 469 0 L 469 531 Q 828 903 1448 1529 Q 2069 2156 2228 2338 Q 2531 2678 2651 2914 Q 2772 3150 2772 3378 Q 2772 3750 2511 3984 Q 2250 4219 1831 4219 Q 1534 4219 1204 4116 Q 875 4013 500 3803 L 500 4441 Q 881 4594 1212 4672 Q 1544 4750 1819 4750 Q 2544 4750 2975 4387 Q 3406 4025 3406 3419 Q 3406 3131 3298 2873 Q 3191 2616 2906 2266 Q 2828 2175 2409 1742 Q 1991 1309 1228 531 z" transform="scale(0.015625)"/></defs><use xlink:href="#DejaVuSans-32"/><use x="63.623" xlink:href="#DejaVuSans-30"/><use x="127.246" xlink:href="#DejaVuSans-30"/></g></g></g><g id="xtick_4"><g id="line2d_4"><g><use style="stroke:#000;stroke-width:.8" x="269.016" y="307.584" xlink:href="#mab77cdf531"/></g></g><g id="text_4"><g transform="translate(259.472071 322.182437)scale(0.1 -0.1)"><defs><path id="DejaVuSans-33" d="M 2597 2516 Q 3050 2419 3304 2112 Q 3559 1806 3559 1356 Q 3559 666 3084 287 Q 2609 -91 1734 -91 Q 1441 -91 1130 -33 Q 819 25 488 141 L 488 750 Q 750 597 1062 519 Q 1375 441 1716 441 Q 2309 441 2620 675 Q 2931 909 2931 1356 Q 2931 1769 2642 2001 Q 2353 2234 1838 2234 L 1294 2234 L 1294 2753 L 1863 2753 Q 2328 2753 2575 2939 Q 2822 3125 2822 3475 Q 2822 3834 2567 4026 Q 2313 4219 1838 4219 Q 1578 4219 1281 4162 Q 984 4106 628 3988 L 628 4550 Q 988 4650 1302 4700 Q 1616 4750 1894 4750 Q 2613 4750 3031 4423 Q 3450 4097 3450 3541 Q 3450 3153 3228 2886 Q 3006 2619 2597 2516 z" transform="scale(0.015625)"/></defs><use xlink:href="#DejaVuSans-33"/><use x="63.623" xlink:href="#DejaVuSans-30"/><use x="127.246" xlink:href="#DejaVuSans-30"/></g></g></g><g id="xtick_5"><g id="line2d_5"><g><use style="stroke:#000;stroke-width:.8" x="334.077" y="307.584" xlink:href="#mab77cdf531"/></g></g><g id="text_5"><g transform="translate(324.533102 322.182437)scale(0.1 -0.1)"><defs><path id="DejaVuSans-34" d="M 2419 4116 L 825 1625 L 2419 1625 L 2419 4116 z M 2253 4666 L 3047 4666 L 3047 1625 L 3713 1625 L 3713 1100 L 3047 1100 L 3047 0 L 2419 0 L 2419 1100 L 313 1100 L 313 1709 L 2253 4666 z" transform="scale(0.015625)"/></defs><use xlink:href="#DejaVuSans-34"/><use x="63.623" xlink:href="#DejaVuSans-30"/><use x="127.246" xlink:href="#DejaVuSans-30"/></g></g></g><g id="xtick_6"><g id="line2d_6"><g><use style="stroke:#000;stroke-width:.8" x="399.138" y="307.584" xlink:href="#mab77cdf531"/></g></g><g id="text_6"><g transform="translate(389.594133 322.182437)scale(0.1 -0.1)"><defs><path id="DejaVuSans-35" d="M 691 4666 L 3169 4666 L 3169 4134 L 1269 4134 L 1269 2991 Q 1406 3038 1543 3061 Q 1681 3084 1819 3084 Q 2600 3084 3056 2656 Q 3513 2228 3513 1497 Q 3513 744 3044 326 Q 2575 -91 1722 -91 Q 1428 -91 1123 -41 Q 819 9 494 109 L 494 744 Q 775 591 1075 516 Q 1375 441 1709 441 Q 2250 441 2565 725 Q 2881 1009 2881 1497 Q 2881 1984 2565 2268 Q 2250 2553 1709 2553 Q 1456 2553 1204 2497 Q 953 2441 691 2322 L 691 4666 z" transform="scale(0.015625)"/></defs><use xlink:href="#DejaVuSans-35"/><use x="63.623" xlink:href="#DejaVuSans-30"/><use x="127.246" xlink:href="#DejaVuSans-30"/></g></g></g><g id="text_7"><g transform="translate(218.349063 337.513688)scale(0.1 -0.1)"><defs><path id="DejaVuSans-c9" d="M 628 4666 L 3578 4666 L 3578 4134 L 1259 4134 L 1259 2753 L 3481 2753 L 3481 2222 L 1259 2222 L 1259 531 L 3634 531 L 3634 0 L 628 0 L 628 4666 z M 2268 5921 L 2846 5921 L 2134 5096 L 1655 5096 L 2268 5921 z" transform="scale(0.015625)"/><path id="DejaVuSans-70" d="M 1159 525 L 1159 -1331 L 581 -1331 L 581 3500 L 1159 3500 L 1159 2969 Q 1341 3281 1617 3432 Q 1894 3584 2278 3584 Q 2916 3584 3314 3078 Q 3713 2572 3713 1747 Q 3713 922 3314 415 Q 2916 -91 2278 -91 Q 1894 -91 1617 61 Q 1341 213 1159 525 z M 3116 1747 Q 3116 2381 2855 2742 Q 2594 3103 2138 3103 Q 1681 3103 1420 2742 Q 1159 2381 1159 1747 Q 1159 1113 1420 752 Q 1681 391 2138 391 Q 2594 391 2855 752 Q 3116 1113 3116 1747 z" transform="scale(0.015625)"/><path id="DejaVuSans-6f" d="M 1959 3097 Q 1497 3097 1228 2736 Q 959 2375 959 1747 Q 959 1119 1226 758 Q 1494 397 1959 397 Q 2419 397 2687 759 Q 2956 1122 2956 1747 Q 2956 2369 2687 2733 Q 2419 3097 1959 3097 z M 1959 3584 Q 2709 3584 3137 3096 Q 3566 2609 3566 1747 Q 3566 888 3137 398 Q 2709 -91 1959 -91 Q 1206 -91 779 398 Q 353 888 353 1747 Q 353 2609 779 3096 Q 1206 3584 1959 3584 z" transform="scale(0.015625)"/><path id="DejaVuSans-63" d="M 3122 3366 L 3122 2828 Q 2878 2963 2633 3030 Q 2388 3097 2138 3097 Q 1578 3097 1268 2742 Q 959 2388 959 1747 Q 959 1106 1268 751 Q 1578 397 2138 397 Q 2388 397 2633 464 Q 2878 531 3122 666 L 3122 134 Q 2881 22 2623 -34 Q 2366 -91 2075 -91 Q 1284 -91 818 406 Q 353 903 353 1747 Q 353 2603 823 3093 Q 1294 3584 2113 3584 Q 2378 3584 2631 3529 Q 2884 3475 3122 3366 z" transform="scale(0.015625)"/><path id="DejaVuSans-61" d="M 2194 1759 Q 1497 1759 1228 1600 Q 959 1441 959 1056 Q 959 750 1161 570 Q 1363 391 1709 391 Q 2188 391 2477 730 Q 2766 1069 2766 1631 L 2766 1759 L 2194 1759 z M 3341 1997 L 3341 0 L 2766 0 L 2766 531 Q 2569 213 2275 61 Q 1981 -91 1556 -91 Q 1019 -91 701 211 Q 384 513 384 1019 Q 384 1609 779 1909 Q 1175 2209 1959 2209 L 2766 2209 L 2766 2266 Q 2766 2663 2505 2880 Q 2244 3097 1772 3097 Q 1472 3097 1187 3025 Q 903 2953 641 2809 L 641 3341 Q 956 3463 1253 3523 Q 1550 3584 1831 3584 Q 2591 3584 2966 3190 Q 3341 2797 3341 1997 z" transform="scale(0.015625)"/><path id="DejaVuSans-73" d="M 2834 3397 L 2834 2853 Q 2591 2978 2328 3040 Q 2066 3103 1784 3103 Q 1356 3103 1142 2972 Q 928 2841 928 2578 Q 928 2378 1081 2264 Q 1234 2150 1697 2047 L 1894 2003 Q 2506 1872 2764 1633 Q 3022 1394 3022 966 Q 3022 478 2636 193 Q 2250 -91 1575 -91 Q 1294 -91 989 -36 Q 684 19 347 128 L 347 722 Q 666 556 975 473 Q 1284 391 1588 391 Q 1994 391 2212 530 Q 2431 669 2431 922 Q 2431 1156 2273 1281 Q 2116 1406 1581 1522 L 1381 1569 Q 847 1681 609 1914 Q 372 2147 372 2553 Q 372 3047 722 3315 Q 1072 3584 1716 3584 Q 2034 3584 2315 3537 Q 2597 3491 2834 3397 z" transform="scale(0.015625)"/></defs><use xlink:href="#DejaVuSans-c9"/><use x="63.184" xlink:href="#DejaVuSans-70"/><use x="126.66" xlink:href="#DejaVuSans-6f"/><use x="187.842" xlink:href="#DejaVuSans-63"/><use x="242.822" xlink:href="#DejaVuSans-61"/><use x="304.102" xlink:href="#DejaVuSans-73"/></g></g></g><g id="matplotlib.axis_2"><g id="ytick_1"><g id="line2d_7"><defs><path id="m0328682ca5" d="M 0 0 L -3.5 0" style="stroke:#000;stroke-width:.8"/></defs><g><use style="stroke:#000;stroke-width:.8" x="57.6" y="295.498" xlink:href="#m0328682ca5"/></g></g><g id="text_8"><g transform="translate(28.334375 299.297078)scale(0.1 -0.1)"><defs><path id="DejaVuSans-2e" d="M 684 794 L 1344 794 L 1344 0 L 684 0 L 684 794 z" transform="scale(0.015625)"/></defs><use xlink:href="#DejaVuSans-30"/><use x="63.623" xlink:href="#DejaVuSans-2e"/><use x="95.41" xlink:href="#DejaVuSans-30"/><use x="159.033" xlink:href="#DejaVuSans-30"/></g></g></g><g id="ytick_2"><g id="line2d_8"><g><use style="stroke:#000;stroke-width:.8" x="57.6" y="260.922" xlink:href="#m0328682ca5"/></g></g><g id="text_9"><g transform="translate(28.334375 264.721056)scale(0.1 -0.1)"><use xlink:href="#DejaVuSans-30"/><use x="63.623" xlink:href="#DejaVuSans-2e"/><use x="95.41" xlink:href="#DejaVuSans-30"/><use x="159.033" xlink:href="#DejaVuSans-32"/></g></g></g><g id="ytick_3"><g id="line2d_9"><g><use style="stroke:#000;stroke-width:.8" x="57.6" y="226.346" xlink:href="#m0328682ca5"/></g></g><g id="text_10"><g transform="translate(28.334375 230.145034)scale(0.1 -0.1)"><use xlink:href="#DejaVuSans-30"/><use x="63.623" xlink:href="#DejaVuSans-2e"/><use x="95.41" xlink:href="#DejaVuSans-30"/><use x="159.033" xlink:href="#DejaVuSans-34"/></g></g></g><g id="ytick_4"><g id="line2d_10"><g><use style="stroke:#000;stroke-width:.8" x="57.6" y="191.77" xlink:href="#m0328682ca5"/></g></g><g id="text_11"><g transform="translate(28.334375 195.569011)scale(0.1 -0.1)"><defs><path id="DejaVuSans-36" d="M 2113 2584 Q 1688 2584 1439 2293 Q 1191 2003 1191 1497 Q 1191 994 1439 701 Q 1688 409 2113 409 Q 2538 409 2786 701 Q 3034 994 3034 1497 Q 3034 2003 2786 2293 Q 2538 2584 2113 2584 z M 3366 4563 L 3366 3988 Q 3128 4100 2886 4159 Q 2644 4219 2406 4219 Q 1781 4219 1451 3797 Q 1122 3375 1075 2522 Q 1259 2794 1537 2939 Q 1816 3084 2150 3084 Q 2853 3084 3261 2657 Q 3669 2231 3669 1497 Q 3669 778 3244 343 Q 2819 -91 2113 -91 Q 1303 -91 875 529 Q 447 1150 447 2328 Q 447 3434 972 4092 Q 1497 4750 2381 4750 Q 2619 4750 2861 4703 Q 3103 4656 3366 4563 z" transform="scale(0.015625)"/></defs><use xlink:href="#DejaVuSans-30"/><use x="63.623" xlink:href="#DejaVuSans-2e"/><use x="95.41" xlink:href="#DejaVuSans-30"/><use x="159.033" xlink:href="#DejaVuSans-36"/></g></g></g><g id="ytick_5"><g id="line2d_11"><g><use style="stroke:#000;stroke-width:.8" x="57.6" y="157.194" xlink:href="#m0328682ca5"/></g></g><g id="text_12"><g transform="translate(28.334375 160.992989)scale(0.1 -0.1)"><defs><path id="DejaVuSans-38" d="M 2034 2216 Q 1584 2216 1326 1975 Q 1069 1734 1069 1313 Q 1069 891 1326 650 Q 1584 409 2034 409 Q 2484 409 2743 651 Q 3003 894 3003 1313 Q 3003 1734 2745 1975 Q 2488 2216 2034 2216 z M 1403 2484 Q 997 2584 770 2862 Q 544 3141 544 3541 Q 544 4100 942 4425 Q 1341 4750 2034 4750 Q 2731 4750 3128 4425 Q 3525 4100 3525 3541 Q 3525 3141 3298 2862 Q 3072 2584 2669 2484 Q 3125 2378 3379 2068 Q 3634 1759 3634 1313 Q 3634 634 3220 271 Q 2806 -91 2034 -91 Q 1263 -91 848 271 Q 434 634 434 1313 Q 434 1759 690 2068 Q 947 2378 1403 2484 z M 1172 3481 Q 1172 3119 1398 2916 Q 1625 2713 2034 2713 Q 2441 2713 2670 2916 Q 2900 3119 2900 3481 Q 2900 3844 2670 4047 Q 2441 4250 2034 4250 Q 1625 4250 1398 4047 Q 1172 3844 1172 3481 z" transform="scale(0.015625)"/></defs><use xlink:href="#DejaVuSans-30"/><use x="63.623" xlink:href="#DejaVuSans-2e"/><use x="95.41" xlink:href="#DejaVuSans-30"/><use x="159.033" xlink:href="#DejaVuSans-38"/></g></g></g><g id="ytick_6"><g id="line2d_12"><g><use style="stroke:#000;stroke-width:.8" x="57.6" y="122.618" xlink:href="#m0328682ca5"/></g></g><g id="text_13"><g transform="translate(28.334375 126.416967)scale(0.1 -0.1)"><use xlink:href="#DejaVuSans-30"/><use x="63.623" xlink:href="#DejaVuSans-2e"/><use x="95.41" xlink:href="#DejaVuSans-31"/><use x="159.033" xlink:href="#DejaVuSans-30"/></g></g></g><g id="ytick_7"><g id="line2d_13"><g><use style="stroke:#000;stroke-width:.8" x="57.6" y="88.042" xlink:href="#m0328682ca5"/></g></g><g id="text_14"><g transform="translate(28.334375 91.840945)scale(0.1 -0.1)"><use xlink:href="#DejaVuSans-30"/><use x="63.623" xlink:href="#DejaVuSans-2e"/><use x="95.41" xlink:href="#DejaVuSans-31"/><use x="159.033" xlink:href="#DejaVuSans-32"/></g></g></g><g id="ytick_8"><g id="line2d_14"><g><use style="stroke:#000;stroke-width:.8" x="57.6" y="53.466" xlink:href="#m0328682ca5"/></g></g><g id="text_15"><g transform="translate(28.334375 57.264922)scale(0.1 -0.1)"><use xlink:href="#DejaVuSans-30"/><use x="63.623" xlink:href="#DejaVuSans-2e"/><use x="95.41" xlink:href="#DejaVuSans-31"/><use x="159.033" xlink:href="#DejaVuSans-34"/></g></g></g><g id="text_16"><g transform="translate(22.254688 185.175656)rotate(-90)scale(0.1 -0.1)"><defs><path id="DejaVuSans-4d" d="M 628 4666 L 1569 4666 L 2759 1491 L 3956 4666 L 4897 4666 L 4897 0 L 4281 0 L 4281 4097 L 3078 897 L 2444 897 L 1241 4097 L 1241 0 L 628 0 L 628 4666 z" transform="scale(0.015625)"/><path id="DejaVuSans-53" d="M 3425 4513 L 3425 3897 Q 3066 4069 2747 4153 Q 2428 4238 2131 4238 Q 1616 4238 1336 4038 Q 1056 3838 1056 3469 Q 1056 3159 1242 3001 Q 1428 2844 1947 2747 L 2328 2669 Q 3034 2534 3370 2195 Q 3706 1856 3706 1288 Q 3706 609 3251 259 Q 2797 -91 1919 -91 Q 1588 -91 1214 -16 Q 841 59 441 206 L 441 856 Q 825 641 1194 531 Q 1563 422 1919 422 Q 2459 422 2753 634 Q 3047 847 3047 1241 Q 3047 1584 2836 1778 Q 2625 1972 2144 2069 L 1759 2144 Q 1053 2284 737 2584 Q 422 2884 422 3419 Q 422 4038 858 4394 Q 1294 4750 2059 4750 Q 2388 4750 2728 4690 Q 3069 4631 3425 4513 z" transform="scale(0.015625)"/><path id="DejaVuSans-45" d="M 628 4666 L 3578 4666 L 3578 4134 L 1259 4134 L 1259 2753 L 3481 2753 L 3481 2222 L 1259 2222 L 1259 531 L 3634 531 L 3634 0 L 628 0 L 628 4666 z" transform="scale(0.015625)"/></defs><use xlink:href="#DejaVuSans-4d"/><use x="86.279" xlink:href="#DejaVuSans-53"/><use x="149.756" xlink:href="#DejaVuSans-45"/></g></g></g><g id="line2d_15"><path d="M 73.832727 53.568 L 74.483338 182.09711 L 75.133948 218.880539 L 75.784558 237.920839 L 76.435169 248.570632 L 77.085779 256.154461 L 77.736389 261.439321 L 78.386999 265.310094 L 79.68822 270.594577 L 80.33883 272.860481 L 80.989441 274.336778 L 84.242492 279.747088 L 84.893103 280.28095 L 85.543713 281.072324 L 86.844934 282.233401 L 87.495544 282.600663 L 88.146154 283.358192 L 88.796764 283.570443 L 89.447375 284.460572 L 90.097985 284.552396 L 90.748595 285.148979 L 91.399206 285.225215 L 92.049816 285.909239 L 92.700426 285.95989 L 94.001647 286.74549 L 94.652257 286.847356 L 95.953478 287.384318 L 98.555919 288.441897 L 99.206529 288.427367 L 100.50775 289.071656 L 101.15836 289.049627 L 101.808971 289.441367 L 102.459581 289.341546 L 103.110191 289.667664 L 104.411412 289.906433 L 105.712633 290.518949 L 106.363243 290.217813 L 107.664463 290.584917 L 110.917515 291.125793 L 117.423618 291.939449 L 118.074228 292.159821 L 120.026059 292.248582 L 126.532163 292.802843 L 132.387655 293.177739 L 136.291317 293.38285 L 158.412068 294.10668 L 169.472443 294.322215 L 185.737701 294.552717 L 211.762113 294.79447 L 233.232254 294.916661 L 324.968308 295.180592 L 398.487273 295.270591 L 398.487273 295.270591" clip-path="url(#pd13ece86df)" style="fill:none;stroke:#1f77b4;stroke-linecap:square;stroke-width:1.5"/></g><g id="line2d_16"><path d="M 73.832727 160.748438 L 74.483338 222.924923 L 75.133948 247.414404 L 75.784558 259.868104 L 76.435169 268.950854 L 77.085779 274.068336 L 77.736389 277.974994 L 79.03761 282.972053 L 79.68822 284.322246 L 80.33883 285.124381 L 81.640051 287.825138 L 82.941272 289.474921 L 83.591882 289.935806 L 84.242492 290.64994 L 84.893103 290.828212 L 85.543713 291.485446 L 86.844934 292.251951 L 87.495544 292.396424 L 88.146154 292.744203 L 88.796764 292.892218 L 89.447375 293.156708 L 90.748595 293.174786 L 91.399206 293.313491 L 92.049816 293.743686 L 93.351037 293.958251 L 94.001647 293.914292 L 95.302868 294.21039 L 95.953478 294.171005 L 97.254698 294.336528 L 98.555919 294.336912 L 99.206529 294.538977 L 100.50775 294.508161 L 101.808971 294.71705 L 127.182773 295.238943 L 257.304835 295.472532 L 398.487273 295.488 L 398.487273 295.488" clip-path="url(#pd13ece86df)" style="fill:none;stroke:#ff7f0e;stroke-linecap:square;stroke-width:1.5"/></g><g id="line2d_17"><path d="M 398.487273 307.584 L 398.487273 41.472" clip-path="url(#pd13ece86df)" style="fill:none;stroke:red;stroke-dasharray:5.55,2.4;stroke-dashoffset:0;stroke-width:1.5"/></g><g id="patch_3"><path d="M 57.6 307.584 L 57.6 41.472" style="fill:none;stroke:#000;stroke-linecap:square;stroke-linejoin:miter;stroke-width:.8"/></g><g id="patch_4"><path d="M 414.72 307.584 L 414.72 41.472" style="fill:none;stroke:#000;stroke-linecap:square;stroke-linejoin:miter;stroke-width:.8"/></g><g id="patch_5"><path d="M 57.6 307.584 L 414.72 307.584" style="fill:none;stroke:#000;stroke-linecap:square;stroke-linejoin:miter;stroke-width:.8"/></g><g id="patch_6"><path d="M 57.6 41.472 L 414.72 41.472" style="fill:none;stroke:#000;stroke-linecap:square;stroke-linejoin:miter;stroke-width:.8"/></g><g id="text_17"><g transform="translate(191.023125 35.472)scale(0.12 -0.12)"><defs><path id="DejaVuSans-72" d="M 2631 2963 Q 2534 3019 2420 3045 Q 2306 3072 2169 3072 Q 1681 3072 1420 2755 Q 1159 2438 1159 1844 L 1159 0 L 581 0 L 581 3500 L 1159 3500 L 1159 2956 Q 1341 3275 1631 3429 Q 1922 3584 2338 3584 Q 2397 3584 2469 3576 Q 2541 3569 2628 3553 L 2631 2963 z" transform="scale(0.015625)"/><path id="DejaVuSans-20" transform="scale(0.015625)"/><path id="DejaVuSans-64" d="M 2906 2969 L 2906 4863 L 3481 4863 L 3481 0 L 2906 0 L 2906 525 Q 2725 213 2448 61 Q 2172 -91 1784 -91 Q 1150 -91 751 415 Q 353 922 353 1747 Q 353 2572 751 3078 Q 1150 3584 1784 3584 Q 2172 3584 2448 3432 Q 2725 3281 2906 2969 z M 947 1747 Q 947 1113 1208 752 Q 1469 391 1925 391 Q 2381 391 2643 752 Q 2906 1113 2906 1747 Q 2906 2381 2643 2742 Q 2381 3103 1925 3103 Q 1469 3103 1208 2742 Q 947 2381 947 1747 z" transform="scale(0.015625)"/><path id="DejaVuSans-65" d="M 3597 1894 L 3597 1613 L 953 1613 Q 991 1019 1311 708 Q 1631 397 2203 397 Q 2534 397 2845 478 Q 3156 559 3463 722 L 3463 178 Q 3153 47 2828 -22 Q 2503 -91 2169 -91 Q 1331 -91 842 396 Q 353 884 353 1716 Q 353 2575 817 3079 Q 1281 3584 2069 3584 Q 2775 3584 3186 3129 Q 3597 2675 3597 1894 z M 3022 2063 Q 3016 2534 2758 2815 Q 2500 3097 2075 3097 Q 1594 3097 1305 2825 Q 1016 2553 972 2059 L 3022 2063 z" transform="scale(0.015625)"/><path id="DejaVuSans-6c" d="M 603 4863 L 1178 4863 L 1178 0 L 603 0 L 603 4863 z" transform="scale(0.015625)"/></defs><use xlink:href="#DejaVuSans-45"/><use x="63.184" xlink:href="#DejaVuSans-72"/><use x="102.547" xlink:href="#DejaVuSans-72"/><use x="141.41" xlink:href="#DejaVuSans-6f"/><use x="202.592" xlink:href="#DejaVuSans-20"/><use x="234.379" xlink:href="#DejaVuSans-64"/><use x="297.855" xlink:href="#DejaVuSans-6f"/><use x="359.037" xlink:href="#DejaVuSans-20"/><use x="390.824" xlink:href="#DejaVuSans-4d"/><use x="477.104" xlink:href="#DejaVuSans-6f"/><use x="538.285" xlink:href="#DejaVuSans-64"/><use x="601.762" xlink:href="#DejaVuSans-65"/><use x="663.285" xlink:href="#DejaVuSans-6c"/><use x="691.068" xlink:href="#DejaVuSans-6f"/></g></g><g id="legend_1"><g id="patch_7"><path d="M 321.099688 93.525125 L 407.72 93.525125 Q 409.72 93.525125 409.72 91.525125 L 409.72 48.472 Q 409.72 46.472 407.72 46.472 L 321.099688 46.472 Q 319.099688 46.472 319.099688 48.472 L 319.099688 91.525125 Q 319.099688 93.525125 321.099688 93.525125 z" style="fill:#fff;opacity:.8;stroke:#ccc;stroke-linejoin:miter"/></g><g id="line2d_18"><path d="M 323.099688 54.570438 L 343.099688 54.570438" style="fill:none;stroke:#1f77b4;stroke-linecap:square;stroke-width:1.5"/></g><g id="text_18"><g transform="translate(351.099688 58.070438)scale(0.1 -0.1)"><defs><path id="DejaVuSans-54" d="M -19 4666 L 3928 4666 L 3928 4134 L 2272 4134 L 2272 0 L 1638 0 L 1638 4134 L -19 4134 L -19 4666 z" transform="scale(0.015625)"/><path id="DejaVuSans-69" d="M 603 3500 L 1178 3500 L 1178 0 L 603 0 L 603 3500 z M 603 4863 L 1178 4863 L 1178 4134 L 603 4134 L 603 4863 z" transform="scale(0.015625)"/><path id="DejaVuSans-6e" d="M 3513 2113 L 3513 0 L 2938 0 L 2938 2094 Q 2938 2591 2744 2837 Q 2550 3084 2163 3084 Q 1697 3084 1428 2787 Q 1159 2491 1159 1978 L 1159 0 L 581 0 L 581 3500 L 1159 3500 L 1159 2956 Q 1366 3272 1645 3428 Q 1925 3584 2291 3584 Q 2894 3584 3203 3211 Q 3513 2838 3513 2113 z" transform="scale(0.015625)"/></defs><use xlink:href="#DejaVuSans-54"/><use x="46.334" xlink:href="#DejaVuSans-72"/><use x="85.197" xlink:href="#DejaVuSans-65"/><use x="146.721" xlink:href="#DejaVuSans-69"/><use x="174.504" xlink:href="#DejaVuSans-6e"/><use x="237.883" xlink:href="#DejaVuSans-6f"/></g></g><g id="line2d_20"><path d="M 323.099688 69.267313 L 343.099688 69.267313" style="fill:none;stroke:#ff7f0e;stroke-linecap:square;stroke-width:1.5"/></g><g id="text_19"><g transform="translate(351.099688 72.767313)scale(0.1 -0.1)"><defs><path id="DejaVuSans-56" d="M 1831 0 L 50 4666 L 709 4666 L 2188 738 L 3669 4666 L 4325 4666 L 2547 0 L 1831 0 z" transform="scale(0.015625)"/><path id="DejaVuSans-e7" d="M 3122 3366 L 3122 2828 Q 2878 2963 2633 3030 Q 2388 3097 2138 3097 Q 1578 3097 1268 2742 Q 959 2388 959 1747 Q 959 1106 1268 751 Q 1578 397 2138 397 Q 2388 397 2633 464 Q 2878 531 3122 666 L 3122 134 Q 2881 22 2623 -34 Q 2366 -91 2075 -91 Q 1284 -91 818 406 Q 353 903 353 1747 Q 353 2603 823 3093 Q 1294 3584 2113 3584 Q 2378 3584 2631 3529 Q 2884 3475 3122 3366 z M 2311 0 Q 2482 -194 2566 -358 Q 2651 -522 2651 -672 Q 2651 -950 2463 -1092 Q 2276 -1234 1907 -1234 Q 1764 -1234 1628 -1215 Q 1492 -1197 1357 -1159 L 1357 -750 Q 1464 -803 1579 -826 Q 1695 -850 1842 -850 Q 2026 -850 2120 -775 Q 2214 -700 2214 -556 Q 2214 -463 2146 -327 Q 2079 -191 1939 0 L 2311 0 z" transform="scale(0.015625)"/><path id="DejaVuSans-e3" d="M 2194 1759 Q 1497 1759 1228 1600 Q 959 1441 959 1056 Q 959 750 1161 570 Q 1363 391 1709 391 Q 2188 391 2477 730 Q 2766 1069 2766 1631 L 2766 1759 L 2194 1759 z M 3341 1997 L 3341 0 L 2766 0 L 2766 531 Q 2569 213 2275 61 Q 1981 -91 1556 -91 Q 1019 -91 701 211 Q 384 513 384 1019 Q 384 1609 779 1909 Q 1175 2209 1959 2209 L 2766 2209 L 2766 2266 Q 2766 2663 2505 2880 Q 2244 3097 1772 3097 Q 1472 3097 1187 3025 Q 903 2953 641 2809 L 641 3341 Q 956 3463 1253 3523 Q 1550 3584 1831 3584 Q 2591 3584 2966 3190 Q 3341 2797 3341 1997 z M 1844 4281 L 1665 4453 Q 1597 4516 1545 4545 Q 1494 4575 1453 4575 Q 1334 4575 1278 4461 Q 1222 4347 1215 4091 L 825 4091 Q 831 4513 990 4742 Q 1150 4972 1434 4972 Q 1553 4972 1653 4928 Q 1753 4884 1869 4781 L 2047 4609 Q 2115 4547 2167 4517 Q 2219 4488 2259 4488 Q 2378 4488 2434 4602 Q 2490 4716 2497 4972 L 2887 4972 Q 2881 4550 2721 4320 Q 2562 4091 2278 4091 Q 2159 4091 2059 4134 Q 1959 4178 1844 4281 z" transform="scale(0.015625)"/></defs><use xlink:href="#DejaVuSans-56"/><use x="60.658" xlink:href="#DejaVuSans-61"/><use x="121.938" xlink:href="#DejaVuSans-6c"/><use x="149.721" xlink:href="#DejaVuSans-69"/><use x="177.504" xlink:href="#DejaVuSans-64"/><use x="240.98" xlink:href="#DejaVuSans-61"/><use x="302.26" xlink:href="#DejaVuSans-e7"/><use x="357.24" xlink:href="#DejaVuSans-e3"/><use x="418.52" xlink:href="#DejaVuSans-6f"/></g></g><g id="line2d_22"><path d="M 323.099688 83.945438 L 343.099688 83.945438" style="fill:none;stroke:red;stroke-dasharray:5.55,2.4;stroke-dashoffset:0;stroke-width:1.5"/></g><g id="text_20"><g transform="translate(351.099688 87.445438)scale(0.1 -0.1)"><use xlink:href="#DejaVuSans-4d"/><use x="86.279" xlink:href="#DejaVuSans-65"/><use x="147.803" xlink:href="#DejaVuSans-6e"/><use x="211.182" xlink:href="#DejaVuSans-6f"/><use x="272.363" xlink:href="#DejaVuSans-72"/><use x="313.477" xlink:href="#DejaVuSans-20"/><use x="345.264" xlink:href="#DejaVuSans-65"/><use x="406.787" xlink:href="#DejaVuSans-72"/><use x="446.15" xlink:href="#DejaVuSans-72"/><use x="485.014" xlink:href="#DejaVuSans-6f"/></g></g></g></g></g><defs><clipPath id="pd13ece86df"><rect width="357.12" height="266.112" x="57.6" y="41.472"/></clipPath></defs></svg>