<svg xmlns="http://www.w3.org/2000/svg" xmlns:xlink="http://www.w3.org/1999/xlink" width="614.4" height="460.8" version="1.1" viewBox="0 0 460.8 345.6"><metadata><rdf:RDF xmlns:cc="http://creativecommons.org/ns#" xmlns:dc="http://purl.org/dc/elements/1.1/" xmlns:rdf="http://www.w3.org/1999/02/22-rdf-syntax-ns#"><cc:Work><dc:type rdf:resource="http://purl.org/dc/dcmitype/StillImage"/><dc:date>2021-04-16T15:22:43.743415</dc:date><dc:format>image/svg+xml</dc:format><dc:creator><cc:Agent><dc:title>Matplotlib v3.4.1, https://matplotlib.org/</dc:title></cc:Agent></dc:creator></cc:Work></rdf:RDF></metadata><defs><style type="text/css">*{stroke-linecap:butt;stroke-linejoin:round}</style></defs><g id="figure_1"><g id="patch_1"><path d="M 0 345.6 L 460.8 345.6 L 460.8 0 L 0 0 z" style="fill:#fff"/></g><g id="axes_1"><g id="patch_2"><path d="M 57.6 307.584 L 414.72 307.584 L 414.72 41.472 L 57.6 41.472 z" style="fill:#fff"/></g><g id="matplotlib.axis_1"><g id="xtick_1"><g id="line2d_1"><defs><path id="madc51b3dcd" d="M 0 0 L 0 3.5" style="stroke:#000;stroke-width:.8"/></defs><g><use style="stroke:#000;stroke-width:.8" x="73.833" y="307.584" xlink:href="#madc51b3dcd"/></g></g><g id="text_1"><g transform="translate(70.651477 322.182437)scale(0.1 -0.1)"><defs><path id="DejaVuSans-30" d="M 2034 4250 Q 1547 4250 1301 3770 Q 1056 3291 1056 2328 Q 1056 1369 1301 889 Q 1547 409 2034 409 Q 2525 409 2770 889 Q 3016 1369 3016 2328 Q 3016 3291 2770 3770 Q 2525 4250 2034 4250 z M 2034 4750 Q 2819 4750 3233 4129 Q 3647 3509 3647 2328 Q 3647 1150 3233 529 Q 2819 -91 2034 -91 Q 1250 -91 836 529 Q 422 1150 422 2328 Q 422 3509 836 4129 Q 1250 4750 2034 4750 z" transform="scale(0.015625)"/></defs><use xlink:href="#DejaVuSans-30"/></g></g></g><g id="xtick_2"><g id="line2d_2"><g><use style="stroke:#000;stroke-width:.8" x="132.647" y="307.584" xlink:href="#madc51b3dcd"/></g></g><g id="text_2"><g transform="translate(126.284457 322.182437)scale(0.1 -0.1)"><defs><path id="DejaVuSans-35" d="M 691 4666 L 3169 4666 L 3169 4134 L 1269 4134 L 1269 2991 Q 1406 3038 1543 3061 Q 1681 3084 1819 3084 Q 2600 3084 3056 2656 Q 3513 2228 3513 1497 Q 3513 744 3044 326 Q 2575 -91 1722 -91 Q 1428 -91 1123 -41 Q 819 9 494 109 L 494 744 Q 775 591 1075 516 Q 1375 441 1709 441 Q 2250 441 2565 725 Q 2881 1009 2881 1497 Q 2881 1984 2565 2268 Q 2250 2553 1709 2553 Q 1456 2553 1204 2497 Q 953 2441 691 2322 L 691 4666 z" transform="scale(0.015625)"/></defs><use xlink:href="#DejaVuSans-35"/><use x="63.623" xlink:href="#DejaVuSans-30"/></g></g></g><g id="xtick_3"><g id="line2d_3"><g><use style="stroke:#000;stroke-width:.8" x="191.461" y="307.584" xlink:href="#madc51b3dcd"/></g></g><g id="text_3"><g transform="translate(181.917436 322.182437)scale(0.1 -0.1)"><defs><path id="DejaVuSans-31" d="M 794 531 L 1825 531 L 1825 4091 L 703 3866 L 703 4441 L 1819 4666 L 2450 4666 L 2450 531 L 3481 531 L 3481 0 L 794 0 L 794 531 z" transform="scale(0.015625)"/></defs><use xlink:href="#DejaVuSans-31"/><use x="63.623" xlink:href="#DejaVuSans-30"/><use x="127.246" xlink:href="#DejaVuSans-30"/></g></g></g><g id="xtick_4"><g id="line2d_4"><g><use style="stroke:#000;stroke-width:.8" x="250.275" y="307.584" xlink:href="#madc51b3dcd"/></g></g><g id="text_4"><g transform="translate(240.731665 322.182437)scale(0.1 -0.1)"><use xlink:href="#DejaVuSans-31"/><use x="63.623" xlink:href="#DejaVuSans-35"/><use x="127.246" xlink:href="#DejaVuSans-30"/></g></g></g><g id="xtick_5"><g id="line2d_5"><g><use style="stroke:#000;stroke-width:.8" x="309.09" y="307.584" xlink:href="#madc51b3dcd"/></g></g><g id="text_5"><g transform="translate(299.545894 322.182437)scale(0.1 -0.1)"><defs><path id="DejaVuSans-32" d="M 1228 531 L 3431 531 L 3431 0 L 469 0 L 469 531 Q 828 903 1448 1529 Q 2069 2156 2228 2338 Q 2531 2678 2651 2914 Q 2772 3150 2772 3378 Q 2772 3750 2511 3984 Q 2250 4219 1831 4219 Q 1534 4219 1204 4116 Q 875 4013 500 3803 L 500 4441 Q 881 4594 1212 4672 Q 1544 4750 1819 4750 Q 2544 4750 2975 4387 Q 3406 4025 3406 3419 Q 3406 3131 3298 2873 Q 3191 2616 2906 2266 Q 2828 2175 2409 1742 Q 1991 1309 1228 531 z" transform="scale(0.015625)"/></defs><use xlink:href="#DejaVuSans-32"/><use x="63.623" xlink:href="#DejaVuSans-30"/><use x="127.246" xlink:href="#DejaVuSans-30"/></g></g></g><g id="xtick_6"><g id="line2d_6"><g><use style="stroke:#000;stroke-width:.8" x="367.904" y="307.584" xlink:href="#madc51b3dcd"/></g></g><g id="text_6"><g transform="translate(358.360124 322.182437)scale(0.1 -0.1)"><use xlink:href="#DejaVuSans-32"/><use x="63.623" xlink:href="#DejaVuSans-35"/><use x="127.246" xlink:href="#DejaVuSans-30"/></g></g></g><g id="text_7"><g transform="translate(218.349063 337.513688)scale(0.1 -0.1)"><defs><path id="DejaVuSans-c9" d="M 628 4666 L 3578 4666 L 3578 4134 L 1259 4134 L 1259 2753 L 3481 2753 L 3481 2222 L 1259 2222 L 1259 531 L 3634 531 L 3634 0 L 628 0 L 628 4666 z M 2268 5921 L 2846 5921 L 2134 5096 L 1655 5096 L 2268 5921 z" transform="scale(0.015625)"/><path id="DejaVuSans-70" d="M 1159 525 L 1159 -1331 L 581 -1331 L 581 3500 L 1159 3500 L 1159 2969 Q 1341 3281 1617 3432 Q 1894 3584 2278 3584 Q 2916 3584 3314 3078 Q 3713 2572 3713 1747 Q 3713 922 3314 415 Q 2916 -91 2278 -91 Q 1894 -91 1617 61 Q 1341 213 1159 525 z M 3116 1747 Q 3116 2381 2855 2742 Q 2594 3103 2138 3103 Q 1681 3103 1420 2742 Q 1159 2381 1159 1747 Q 1159 1113 1420 752 Q 1681 391 2138 391 Q 2594 391 2855 752 Q 3116 1113 3116 1747 z" transform="scale(0.015625)"/><path id="DejaVuSans-6f" d="M 1959 3097 Q 1497 3097 1228 2736 Q 959 2375 959 1747 Q 959 1119 1226 758 Q 1494 397 1959 397 Q 2419 397 2687 759 Q 2956 1122 2956 1747 Q 2956 2369 2687 2733 Q 2419 3097 1959 3097 z M 1959 3584 Q 2709 3584 3137 3096 Q 3566 2609 3566 1747 Q 3566 888 3137 398 Q 2709 -91 1959 -91 Q 1206 -91 779 398 Q 353 888 353 1747 Q 353 2609 779 3096 Q 1206 3584 1959 3584 z" transform="scale(0.015625)"/><path id="DejaVuSans-63" d="M 3122 3366 L 3122 2828 Q 2878 2963 2633 3030 Q 2388 3097 2138 3097 Q 1578 3097 1268 2742 Q 959 2388 959 1747 Q 959 1106 1268 751 Q 1578 397 2138 397 Q 2388 397 2633 464 Q 2878 531 3122 666 L 3122 134 Q 2881 22 2623 -34 Q 2366 -91 2075 -91 Q 1284 -91 818 406 Q 353 903 353 1747 Q 353 2603 823 3093 Q 1294 3584 2113 3584 Q 2378 3584 2631 3529 Q 2884 3475 3122 3366 z" transform="scale(0.015625)"/><path id="DejaVuSans-61" d="M 2194 1759 Q 1497 1759 1228 1600 Q 959 1441 959 1056 Q 959 750 1161 570 Q 1363 391 1709 391 Q 2188 391 2477 730 Q 2766 1069 2766 1631 L 2766 1759 L 2194 1759 z M 3341 1997 L 3341 0 L 2766 0 L 2766 531 Q 2569 213 2275 61 Q 1981 -91 1556 -91 Q 1019 -91 701 211 Q 384 513 384 1019 Q 384 1609 779 1909 Q 1175 2209 1959 2209 L 2766 2209 L 2766 2266 Q 2766 2663 2505 2880 Q 2244 3097 1772 3097 Q 1472 3097 1187 3025 Q 903 2953 641 2809 L 641 3341 Q 956 3463 1253 3523 Q 1550 3584 1831 3584 Q 2591 3584 2966 3190 Q 3341 2797 3341 1997 z" transform="scale(0.015625)"/><path id="DejaVuSans-73" d="M 2834 3397 L 2834 2853 Q 2591 2978 2328 3040 Q 2066 3103 1784 3103 Q 1356 3103 1142 2972 Q 928 2841 928 2578 Q 928 2378 1081 2264 Q 1234 2150 1697 2047 L 1894 2003 Q 2506 1872 2764 1633 Q 3022 1394 3022 966 Q 3022 478 2636 193 Q 2250 -91 1575 -91 Q 1294 -91 989 -36 Q 684 19 347 128 L 347 722 Q 666 556 975 473 Q 1284 391 1588 391 Q 1994 391 2212 530 Q 2431 669 2431 922 Q 2431 1156 2273 1281 Q 2116 1406 1581 1522 L 1381 1569 Q 847 1681 609 1914 Q 372 2147 372 2553 Q 372 3047 722 3315 Q 1072 3584 1716 3584 Q 2034 3584 2315 3537 Q 2597 3491 2834 3397 z" transform="scale(0.015625)"/></defs><use xlink:href="#DejaVuSans-c9"/><use x="63.184" xlink:href="#DejaVuSans-70"/><use x="126.66" xlink:href="#DejaVuSans-6f"/><use x="187.842" xlink:href="#DejaVuSans-63"/><use x="242.822" xlink:href="#DejaVuSans-61"/><use x="304.102" xlink:href="#DejaVuSans-73"/></g></g></g><g id="matplotlib.axis_2"><g id="ytick_1"><g id="line2d_7"><defs><path id="maa2dcc4d8a" d="M 0 0 L -3.5 0" style="stroke:#000;stroke-width:.8"/></defs><g><use style="stroke:#000;stroke-width:.8" x="57.6" y="296.657" xlink:href="#maa2dcc4d8a"/></g></g><g id="text_8"><g transform="translate(21.971875 300.456332)scale(0.1 -0.1)"><defs><path id="DejaVuSans-2e" d="M 684 794 L 1344 794 L 1344 0 L 684 0 L 684 794 z" transform="scale(0.015625)"/></defs><use xlink:href="#DejaVuSans-30"/><use x="63.623" xlink:href="#DejaVuSans-2e"/><use x="95.41" xlink:href="#DejaVuSans-30"/><use x="159.033" xlink:href="#DejaVuSans-30"/><use x="222.656" xlink:href="#DejaVuSans-30"/></g></g></g><g id="ytick_2"><g id="line2d_8"><g><use style="stroke:#000;stroke-width:.8" x="57.6" y="262.328" xlink:href="#maa2dcc4d8a"/></g></g><g id="text_9"><g transform="translate(21.971875 266.12733)scale(0.1 -0.1)"><use xlink:href="#DejaVuSans-30"/><use x="63.623" xlink:href="#DejaVuSans-2e"/><use x="95.41" xlink:href="#DejaVuSans-30"/><use x="159.033" xlink:href="#DejaVuSans-32"/><use x="222.656" xlink:href="#DejaVuSans-35"/></g></g></g><g id="ytick_3"><g id="line2d_9"><g><use style="stroke:#000;stroke-width:.8" x="57.6" y="227.999" xlink:href="#maa2dcc4d8a"/></g></g><g id="text_10"><g transform="translate(21.971875 231.798328)scale(0.1 -0.1)"><use xlink:href="#DejaVuSans-30"/><use x="63.623" xlink:href="#DejaVuSans-2e"/><use x="95.41" xlink:href="#DejaVuSans-30"/><use x="159.033" xlink:href="#DejaVuSans-35"/><use x="222.656" xlink:href="#DejaVuSans-30"/></g></g></g><g id="ytick_4"><g id="line2d_10"><g><use style="stroke:#000;stroke-width:.8" x="57.6" y="193.67" xlink:href="#maa2dcc4d8a"/></g></g><g id="text_11"><g transform="translate(21.971875 197.469326)scale(0.1 -0.1)"><defs><path id="DejaVuSans-37" d="M 525 4666 L 3525 4666 L 3525 4397 L 1831 0 L 1172 0 L 2766 4134 L 525 4134 L 525 4666 z" transform="scale(0.015625)"/></defs><use xlink:href="#DejaVuSans-30"/><use x="63.623" xlink:href="#DejaVuSans-2e"/><use x="95.41" xlink:href="#DejaVuSans-30"/><use x="159.033" xlink:href="#DejaVuSans-37"/><use x="222.656" xlink:href="#DejaVuSans-35"/></g></g></g><g id="ytick_5"><g id="line2d_11"><g><use style="stroke:#000;stroke-width:.8" x="57.6" y="159.341" xlink:href="#maa2dcc4d8a"/></g></g><g id="text_12"><g transform="translate(21.971875 163.140324)scale(0.1 -0.1)"><use xlink:href="#DejaVuSans-30"/><use x="63.623" xlink:href="#DejaVuSans-2e"/><use x="95.41" xlink:href="#DejaVuSans-31"/><use x="159.033" xlink:href="#DejaVuSans-30"/><use x="222.656" xlink:href="#DejaVuSans-30"/></g></g></g><g id="ytick_6"><g id="line2d_12"><g><use style="stroke:#000;stroke-width:.8" x="57.6" y="125.012" xlink:href="#maa2dcc4d8a"/></g></g><g id="text_13"><g transform="translate(21.971875 128.811322)scale(0.1 -0.1)"><use xlink:href="#DejaVuSans-30"/><use x="63.623" xlink:href="#DejaVuSans-2e"/><use x="95.41" xlink:href="#DejaVuSans-31"/><use x="159.033" xlink:href="#DejaVuSans-32"/><use x="222.656" xlink:href="#DejaVuSans-35"/></g></g></g><g id="ytick_7"><g id="line2d_13"><g><use style="stroke:#000;stroke-width:.8" x="57.6" y="90.683" xlink:href="#maa2dcc4d8a"/></g></g><g id="text_14"><g transform="translate(21.971875 94.48232)scale(0.1 -0.1)"><use xlink:href="#DejaVuSans-30"/><use x="63.623" xlink:href="#DejaVuSans-2e"/><use x="95.41" xlink:href="#DejaVuSans-31"/><use x="159.033" xlink:href="#DejaVuSans-35"/><use x="222.656" xlink:href="#DejaVuSans-30"/></g></g></g><g id="ytick_8"><g id="line2d_14"><g><use style="stroke:#000;stroke-width:.8" x="57.6" y="56.354" xlink:href="#maa2dcc4d8a"/></g></g><g id="text_15"><g transform="translate(21.971875 60.153318)scale(0.1 -0.1)"><use xlink:href="#DejaVuSans-30"/><use x="63.623" xlink:href="#DejaVuSans-2e"/><use x="95.41" xlink:href="#DejaVuSans-31"/><use x="159.033" xlink:href="#DejaVuSans-37"/><use x="222.656" xlink:href="#DejaVuSans-35"/></g></g></g><g id="text_16"><g transform="translate(15.892188 185.175656)rotate(-90)scale(0.1 -0.1)"><defs><path id="DejaVuSans-4d" d="M 628 4666 L 1569 4666 L 2759 1491 L 3956 4666 L 4897 4666 L 4897 0 L 4281 0 L 4281 4097 L 3078 897 L 2444 897 L 1241 4097 L 1241 0 L 628 0 L 628 4666 z" transform="scale(0.015625)"/><path id="DejaVuSans-53" d="M 3425 4513 L 3425 3897 Q 3066 4069 2747 4153 Q 2428 4238 2131 4238 Q 1616 4238 1336 4038 Q 1056 3838 1056 3469 Q 1056 3159 1242 3001 Q 1428 2844 1947 2747 L 2328 2669 Q 3034 2534 3370 2195 Q 3706 1856 3706 1288 Q 3706 609 3251 259 Q 2797 -91 1919 -91 Q 1588 -91 1214 -16 Q 841 59 441 206 L 441 856 Q 825 641 1194 531 Q 1563 422 1919 422 Q 2459 422 2753 634 Q 3047 847 3047 1241 Q 3047 1584 2836 1778 Q 2625 1972 2144 2069 L 1759 2144 Q 1053 2284 737 2584 Q 422 2884 422 3419 Q 422 4038 858 4394 Q 1294 4750 2059 4750 Q 2388 4750 2728 4690 Q 3069 4631 3425 4513 z" transform="scale(0.015625)"/><path id="DejaVuSans-45" d="M 628 4666 L 3578 4666 L 3578 4134 L 1259 4134 L 1259 2753 L 3481 2753 L 3481 2222 L 1259 2222 L 1259 531 L 3634 531 L 3634 0 L 628 0 L 628 4666 z" transform="scale(0.015625)"/></defs><use xlink:href="#DejaVuSans-4d"/><use x="86.279" xlink:href="#DejaVuSans-53"/><use x="149.756" xlink:href="#DejaVuSans-45"/></g></g></g><g id="line2d_15"><path d="M 73.832727 53.568 L 75.009012 143.187937 L 76.185296 172.218355 L 77.361581 189.722626 L 78.537866 202.243875 L 79.71415 212.977647 L 83.243004 230.40975 L 84.419289 235.772951 L 85.595573 240.378757 L 86.771858 242.589089 L 89.124427 249.172911 L 90.300711 251.293237 L 91.476996 253.818134 L 95.00585 259.716467 L 96.182134 261.224595 L 97.358419 262.086052 L 98.534704 263.574273 L 100.887273 265.546751 L 103.239842 267.552935 L 104.416126 267.863221 L 105.592411 268.903636 L 107.94498 269.975037 L 109.121265 270.531723 L 110.297549 270.852774 L 111.473834 271.880631 L 112.650119 271.928327 L 113.826403 273.049811 L 115.002688 272.816011 L 116.178972 273.204906 L 118.531542 273.455822 L 119.707826 274.355139 L 120.884111 274.600021 L 122.060395 274.111463 L 124.412964 274.825632 L 126.765534 275.155579 L 127.941818 275.446216 L 130.294387 275.711345 L 132.646957 276.322913 L 133.823241 276.222558 L 134.999526 276.797507 L 136.17581 277.219595 L 137.352095 276.94575 L 139.704664 277.052083 L 140.880949 277.394955 L 142.057233 277.402399 L 143.233518 277.867137 L 144.409802 277.664547 L 145.586087 278.020788 L 146.762372 277.590444 L 147.938656 277.737136 L 149.114941 278.137836 L 150.291225 279.082838 L 151.46751 278.050298 L 153.820079 278.288968 L 154.996364 278.912971 L 156.172648 278.144524 L 157.348933 278.253407 L 158.525217 278.598754 L 159.701502 278.477523 L 160.877787 278.803877 L 163.230356 278.730469 L 164.40664 279.504929 L 165.582925 279.12347 L 166.759209 279.318173 L 167.935494 279.19089 L 170.288063 279.18734 L 171.464348 280.269471 L 172.640632 279.936123 L 173.816917 279.215647 L 174.993202 279.637945 L 176.169486 279.654426 L 177.345771 279.45505 L 179.69834 279.609252 L 180.874625 279.831638 L 182.050909 280.41354 L 183.227194 279.69462 L 184.403478 280.10982 L 185.579763 279.891129 L 187.932332 279.81844 L 189.108617 281.137487 L 190.284901 279.6049 L 192.63747 280.328544 L 193.813755 279.921323 L 194.99004 280.398984 L 196.166324 279.967936 L 197.342609 280.328305 L 198.518893 280.273073 L 199.695178 280.359805 L 200.871462 280.111973 L 202.047747 280.372113 L 203.224032 280.45043 L 204.400316 280.239774 L 205.576601 281.325525 L 206.752885 280.222096 L 207.92917 280.397269 L 209.105455 280.321254 L 211.458024 280.95984 L 212.634308 280.248893 L 213.810593 280.747668 L 214.986877 280.525862 L 216.163162 280.80329 L 217.339447 280.559832 L 218.515731 281.332625 L 219.692016 280.4506 L 220.8683 281.060076 L 222.044585 280.73359 L 223.22087 280.743904 L 224.397154 281.634706 L 225.573439 280.588066 L 226.749723 281.697509 L 227.926008 280.472908 L 229.102292 280.989873 L 231.454862 280.624897 L 232.631146 280.89322 L 233.807431 280.786301 L 234.983715 280.863596 L 236.16 281.191674 L 237.336285 280.762595 L 238.512569 280.806436 L 240.865138 281.117231 L 242.041423 281.492428 L 243.217708 280.821411 L 244.393992 281.39648 L 245.570277 280.971755 L 249.09913 281.111328 L 250.275415 281.160811 L 251.4517 281.423134 L 253.804269 280.977973 L 254.980553 281.496192 L 256.156838 281.664373 L 257.333123 281.008162 L 258.509407 281.339778 L 259.685692 280.955931 L 260.861976 281.481038 L 262.038261 281.083958 L 264.39083 281.242632 L 265.567115 281.477713 L 266.743399 281.469064 L 267.919684 281.079059 L 269.095968 281.837387 L 270.272253 281.900577 L 271.448538 281.752966 L 272.624822 280.972644 L 273.801107 281.249469 L 276.153676 281.234381 L 278.506245 281.805602 L 279.68253 281.578883 L 280.858814 281.503923 L 282.035099 281.248268 L 283.211383 281.952642 L 284.387668 281.106701 L 285.563953 281.41247 L 287.916522 281.368176 L 289.092806 281.55771 L 290.269091 281.376128 L 291.445375 281.809973 L 292.62166 281.693836 L 293.797945 281.406953 L 294.974229 281.434651 L 296.150514 281.667406 L 297.326798 281.619128 L 298.503083 281.367792 L 300.855652 281.355785 L 303.208221 281.475201 L 304.384506 281.388552 L 305.560791 281.894994 L 306.737075 281.985699 L 307.91336 281.429964 L 309.089644 281.966917 L 310.265929 281.67603 L 311.442213 281.739182 L 313.794783 281.640481 L 314.971067 282.096142 L 316.147352 281.419147 L 317.323636 281.60143 L 318.499921 282.107845 L 319.676206 281.517539 L 320.85249 281.63198 L 322.028775 281.399035 L 323.205059 281.807256 L 324.381344 281.490676 L 325.557628 281.951521 L 326.733913 281.472511 L 327.910198 281.658176 L 329.086482 281.454084 L 331.439051 281.981959 L 332.615336 281.770799 L 333.791621 281.80215 L 334.967905 281.500269 L 336.14419 282.039021 L 337.320474 281.642497 L 338.496759 281.690219 L 339.673043 283.485388 L 340.849328 281.195933 L 342.025613 281.867027 L 344.378182 281.632423 L 345.554466 281.817747 L 346.730751 281.753165 L 347.907036 281.839327 L 349.08332 281.749449 L 350.259605 281.842804 L 351.435889 281.6683 L 352.612174 282.129805 L 353.788458 282.231086 L 354.964743 281.674 L 357.317312 281.696668 L 358.493597 281.936018 L 360.846166 281.861378 L 362.022451 281.952719 L 363.198735 281.719866 L 364.37502 282.368897 L 365.551304 281.626651 L 366.727589 282.25743 L 367.903874 282.422768 L 369.080158 281.970382 L 370.256443 281.798087 L 371.432727 282.176091 L 372.609012 282.774506 L 373.785296 281.447397 L 374.961581 281.868331 L 377.31415 281.823473 L 378.490435 281.897293 L 379.666719 282.301803 L 380.843004 282.127015 L 382.019289 281.819993 L 384.371858 281.813508 L 385.548142 282.188948 L 386.724427 282.788784 L 387.900711 281.482296 L 389.076996 281.601421 L 390.253281 281.940008 L 391.429565 281.959348 L 392.60585 281.867285 L 393.782134 282.064289 L 396.134704 281.932874 L 397.310988 282.421432 L 398.487273 281.72457 L 398.487273 281.72457" clip-path="url(#p30ac6fe9fb)" style="fill:none;stroke:#1f77b4;stroke-linecap:square;stroke-width:1.5"/></g><g id="line2d_16"><path d="M 73.832727 136.746611 L 75.009012 169.871615 L 76.185296 186.992936 L 77.361581 197.484201 L 78.537866 206.136883 L 79.71415 209.535353 L 80.890435 219.116279 L 82.066719 224.472405 L 84.419289 233.608831 L 85.595573 240.058 L 86.771858 241.86471 L 87.948142 244.288253 L 89.124427 249.067344 L 90.300711 251.116668 L 91.476996 251.815537 L 92.653281 255.085354 L 93.829565 255.272778 L 95.00585 259.38708 L 96.182134 259.895859 L 97.358419 262.620304 L 98.534704 263.487329 L 99.710988 266.115269 L 100.887273 268.382668 L 102.063557 271.346699 L 103.239842 267.669663 L 104.416126 269.633759 L 105.592411 272.861375 L 106.768696 273.057392 L 107.94498 275.671207 L 109.121265 276.761953 L 110.297549 276.867452 L 111.473834 273.24718 L 112.650119 273.397174 L 113.826403 270.593919 L 115.002688 278.389844 L 116.178972 275.88267 L 117.355257 281.143584 L 118.531542 281.324678 L 120.884111 274.979673 L 122.060395 277.788314 L 123.23668 279.44176 L 124.412964 280.341984 L 125.589249 283.808811 L 126.765534 283.116083 L 127.941818 284.184788 L 129.118103 284.337037 L 130.294387 284.638243 L 131.470672 283.646287 L 132.646957 284.373902 L 133.823241 283.830994 L 134.999526 287.418676 L 136.17581 288.910469 L 137.352095 282.227336 L 138.528379 284.860523 L 139.704664 287.12147 L 140.880949 283.313725 L 142.057233 287.327624 L 143.233518 288.716793 L 144.409802 284.630171 L 145.586087 282.18264 L 146.762372 286.805876 L 147.938656 286.597991 L 149.114941 283.604933 L 150.291225 289.275421 L 151.46751 286.580549 L 152.643794 285.300286 L 153.820079 286.99391 L 154.996364 282.486076 L 156.172648 283.657036 L 157.348933 285.541966 L 158.525217 284.388967 L 159.701502 287.683326 L 160.877787 289.336987 L 162.054071 285.98526 L 163.230356 287.784708 L 164.40664 291.055827 L 165.582925 285.822246 L 166.759209 289.614368 L 167.935494 287.460395 L 170.288063 286.24255 L 171.464348 291.075621 L 172.640632 285.159218 L 174.993202 289.751262 L 176.169486 286.180264 L 177.345771 288.74259 L 178.522055 290.166322 L 179.69834 287.811621 L 180.874625 290.606148 L 182.050909 291.09938 L 183.227194 288.921356 L 184.403478 287.902287 L 185.579763 289.306175 L 186.756047 289.405846 L 187.932332 290.232027 L 189.108617 283.634637 L 190.284901 286.961968 L 191.461186 289.207927 L 192.63747 287.344417 L 193.813755 289.903847 L 194.99004 287.707431 L 196.166324 290.400359 L 198.518893 291.357678 L 199.695178 292.015842 L 200.871462 290.88407 L 202.047747 290.722044 L 203.224032 290.069235 L 204.400316 291.13994 L 205.576601 293.350204 L 206.752885 290.337613 L 207.92917 289.61985 L 209.105455 289.938144 L 210.281739 288.740723 L 211.458024 288.111025 L 212.634308 290.73797 L 213.810593 291.988524 L 214.986877 290.698868 L 216.163162 292.068379 L 217.339447 292.286974 L 218.515731 287.945359 L 219.692016 289.194432 L 220.8683 292.454661 L 222.044585 290.390568 L 223.22087 289.31052 L 224.397154 292.941406 L 225.573439 291.079124 L 226.749723 285.921213 L 227.926008 289.644322 L 229.102292 292.410217 L 230.278577 292.662437 L 231.454862 292.063988 L 232.631146 292.081367 L 233.807431 291.522142 L 234.983715 290.811357 L 236.16 289.78551 L 237.336285 290.757733 L 238.512569 291.288974 L 239.688854 292.795722 L 240.865138 293.231625 L 242.041423 294.323076 L 243.217708 293.969215 L 244.393992 289.978553 L 245.570277 290.719544 L 246.746561 290.12443 L 247.922846 290.893768 L 249.09913 289.775844 L 251.4517 293.142831 L 252.627984 293.37073 L 253.804269 292.534367 L 254.980553 293.560082 L 256.156838 290.595298 L 257.333123 290.674594 L 258.509407 289.404284 L 259.685692 292.094924 L 260.861976 291.247493 L 262.038261 291.871584 L 263.214545 292.316996 L 264.39083 291.574805 L 265.567115 290.59216 L 266.743399 293.466935 L 267.919684 292.917591 L 269.095968 289.567066 L 270.272253 293.627308 L 271.448538 294.506552 L 272.624822 292.937807 L 274.977391 291.950544 L 276.153676 292.283567 L 277.32996 293.459306 L 278.506245 290.386434 L 279.68253 291.746709 L 280.858814 293.539538 L 282.035099 293.008078 L 283.211383 294.036079 L 284.387668 292.892042 L 285.563953 292.002978 L 286.740237 292.199505 L 287.916522 292.085571 L 289.092806 293.539286 L 290.269091 292.618028 L 291.445375 293.647798 L 292.62166 294.042576 L 293.797945 293.882544 L 294.974229 293.159826 L 296.150514 292.81719 L 297.326798 291.455643 L 298.503083 291.518862 L 299.679368 292.648421 L 300.855652 292.716116 L 302.031937 292.348108 L 303.208221 293.319771 L 304.384506 293.056537 L 305.560791 293.89967 L 306.737075 294.328406 L 307.91336 293.754247 L 309.089644 294.483045 L 310.265929 293.138229 L 311.442213 294.122034 L 312.618498 293.649962 L 313.794783 293.838229 L 314.971067 294.68931 L 316.147352 292.38139 L 317.323636 291.641905 L 318.499921 294.053396 L 319.676206 293.68148 L 320.85249 293.85926 L 322.028775 292.952263 L 323.205059 293.415156 L 324.381344 293.581207 L 325.557628 294.50914 L 326.733913 293.437129 L 327.910198 293.634799 L 329.086482 293.212892 L 330.262767 293.89506 L 331.439051 292.147051 L 332.615336 293.916478 L 333.791621 294.465876 L 334.967905 294.449469 L 336.14419 292.083577 L 337.320474 292.866371 L 338.496759 293.021353 L 339.673043 295.488 L 340.849328 293.430547 L 343.201897 294.463084 L 345.554466 293.853983 L 346.730751 292.7194 L 349.08332 292.903108 L 350.259605 292.881957 L 351.435889 293.442224 L 352.612174 294.190396 L 353.788458 292.870972 L 354.964743 293.695401 L 356.141028 292.903232 L 357.317312 293.140887 L 358.493597 293.878776 L 359.669881 292.76963 L 360.846166 294.530239 L 362.022451 294.495895 L 363.198735 293.494496 L 364.37502 294.350965 L 365.551304 293.867267 L 366.727589 294.775396 L 367.903874 292.078787 L 369.080158 290.778406 L 370.256443 293.318472 L 371.432727 291.659027 L 372.609012 288.92795 L 373.785296 291.961173 L 374.961581 293.361858 L 376.137866 292.344283 L 377.31415 292.493261 L 378.490435 293.723237 L 379.666719 291.81029 L 380.843004 294.597473 L 382.019289 294.603994 L 383.195573 293.749104 L 385.548142 294.475164 L 386.724427 295.376575 L 389.076996 294.264912 L 390.253281 293.752707 L 391.429565 294.072707 L 392.60585 293.160662 L 393.782134 294.474582 L 394.958419 294.700876 L 396.134704 292.897207 L 397.310988 292.506926 L 398.487273 293.693516 L 398.487273 293.693516" clip-path="url(#p30ac6fe9fb)" style="fill:none;stroke:#ff7f0e;stroke-linecap:square;stroke-width:1.5"/></g><g id="line2d_17"><path d="M 339.673043 307.584 L 339.673043 41.472" clip-path="url(#p30ac6fe9fb)" style="fill:none;stroke:red;stroke-dasharray:5.55,2.4;stroke-dashoffset:0;stroke-width:1.5"/></g><g id="patch_3"><path d="M 57.6 307.584 L 57.6 41.472" style="fill:none;stroke:#000;stroke-linecap:square;stroke-linejoin:miter;stroke-width:.8"/></g><g id="patch_4"><path d="M 414.72 307.584 L 414.72 41.472" style="fill:none;stroke:#000;stroke-linecap:square;stroke-linejoin:miter;stroke-width:.8"/></g><g id="patch_5"><path d="M 57.6 307.584 L 414.72 307.584" style="fill:none;stroke:#000;stroke-linecap:square;stroke-linejoin:miter;stroke-width:.8"/></g><g id="patch_6"><path d="M 57.6 41.472 L 414.72 41.472" style="fill:none;stroke:#000;stroke-linecap:square;stroke-linejoin:miter;stroke-width:.8"/></g><g id="text_17"><g transform="translate(191.023125 35.472)scale(0.12 -0.12)"><defs><path id="DejaVuSans-72" d="M 2631 2963 Q 2534 3019 2420 3045 Q 2306 3072 2169 3072 Q 1681 3072 1420 2755 Q 1159 2438 1159 1844 L 1159 0 L 581 0 L 581 3500 L 1159 3500 L 1159 2956 Q 1341 3275 1631 3429 Q 1922 3584 2338 3584 Q 2397 3584 2469 3576 Q 2541 3569 2628 3553 L 2631 2963 z" transform="scale(0.015625)"/><path id="DejaVuSans-20" transform="scale(0.015625)"/><path id="DejaVuSans-64" d="M 2906 2969 L 2906 4863 L 3481 4863 L 3481 0 L 2906 0 L 2906 525 Q 2725 213 2448 61 Q 2172 -91 1784 -91 Q 1150 -91 751 415 Q 353 922 353 1747 Q 353 2572 751 3078 Q 1150 3584 1784 3584 Q 2172 3584 2448 3432 Q 2725 3281 2906 2969 z M 947 1747 Q 947 1113 1208 752 Q 1469 391 1925 391 Q 2381 391 2643 752 Q 2906 1113 2906 1747 Q 2906 2381 2643 2742 Q 2381 3103 1925 3103 Q 1469 3103 1208 2742 Q 947 2381 947 1747 z" transform="scale(0.015625)"/><path id="DejaVuSans-65" d="M 3597 1894 L 3597 1613 L 953 1613 Q 991 1019 1311 708 Q 1631 397 2203 397 Q 2534 397 2845 478 Q 3156 559 3463 722 L 3463 178 Q 3153 47 2828 -22 Q 2503 -91 2169 -91 Q 1331 -91 842 396 Q 353 884 353 1716 Q 353 2575 817 3079 Q 1281 3584 2069 3584 Q 2775 3584 3186 3129 Q 3597 2675 3597 1894 z M 3022 2063 Q 3016 2534 2758 2815 Q 2500 3097 2075 3097 Q 1594 3097 1305 2825 Q 1016 2553 972 2059 L 3022 2063 z" transform="scale(0.015625)"/><path id="DejaVuSans-6c" d="M 603 4863 L 1178 4863 L 1178 0 L 603 0 L 603 4863 z" transform="scale(0.015625)"/></defs><use xlink:href="#DejaVuSans-45"/><use x="63.184" xlink:href="#DejaVuSans-72"/><use x="102.547" xlink:href="#DejaVuSans-72"/><use x="141.41" xlink:href="#DejaVuSans-6f"/><use x="202.592" xlink:href="#DejaVuSans-20"/><use x="234.379" xlink:href="#DejaVuSans-64"/><use x="297.855" xlink:href="#DejaVuSans-6f"/><use x="359.037" xlink:href="#DejaVuSans-20"/><use x="390.824" xlink:href="#DejaVuSans-4d"/><use x="477.104" xlink:href="#DejaVuSans-6f"/><use x="538.285" xlink:href="#DejaVuSans-64"/><use x="601.762" xlink:href="#DejaVuSans-65"/><use x="663.285" xlink:href="#DejaVuSans-6c"/><use x="691.068" xlink:href="#DejaVuSans-6f"/></g></g><g id="legend_1"><g id="patch_7"><path d="M 321.099688 93.525125 L 407.72 93.525125 Q 409.72 93.525125 409.72 91.525125 L 409.72 48.472 Q 409.72 46.472 407.72 46.472 L 321.099688 46.472 Q 319.099688 46.472 319.099688 48.472 L 319.099688 91.525125 Q 319.099688 93.525125 321.099688 93.525125 z" style="fill:#fff;opacity:.8;stroke:#ccc;stroke-linejoin:miter"/></g><g id="line2d_18"><path d="M 323.099688 54.570438 L 343.099688 54.570438" style="fill:none;stroke:#1f77b4;stroke-linecap:square;stroke-width:1.5"/></g><g id="text_18"><g transform="translate(351.099688 58.070438)scale(0.1 -0.1)"><defs><path id="DejaVuSans-54" d="M -19 4666 L 3928 4666 L 3928 4134 L 2272 4134 L 2272 0 L 1638 0 L 1638 4134 L -19 4134 L -19 4666 z" transform="scale(0.015625)"/><path id="DejaVuSans-69" d="M 603 3500 L 1178 3500 L 1178 0 L 603 0 L 603 3500 z M 603 4863 L 1178 4863 L 1178 4134 L 603 4134 L 603 4863 z" transform="scale(0.015625)"/><path id="DejaVuSans-6e" d="M 3513 2113 L 3513 0 L 2938 0 L 2938 2094 Q 2938 2591 2744 2837 Q 2550 3084 2163 3084 Q 1697 3084 1428 2787 Q 1159 2491 1159 1978 L 1159 0 L 581 0 L 581 3500 L 1159 3500 L 1159 2956 Q 1366 3272 1645 3428 Q 1925 3584 2291 3584 Q 2894 3584 3203 3211 Q 3513 2838 3513 2113 z" transform="scale(0.015625)"/></defs><use xlink:href="#DejaVuSans-54"/><use x="46.334" xlink:href="#DejaVuSans-72"/><use x="85.197" xlink:href="#DejaVuSans-65"/><use x="146.721" xlink:href="#DejaVuSans-69"/><use x="174.504" xlink:href="#DejaVuSans-6e"/><use x="237.883" xlink:href="#DejaVuSans-6f"/></g></g><g id="line2d_20"><path d="M 323.099688 69.267313 L 343.099688 69.267313" style="fill:none;stroke:#ff7f0e;stroke-linecap:square;stroke-width:1.5"/></g><g id="text_19"><g transform="translate(351.099688 72.767313)scale(0.1 -0.1)"><defs><path id="DejaVuSans-56" d="M 1831 0 L 50 4666 L 709 4666 L 2188 738 L 3669 4666 L 4325 4666 L 2547 0 L 1831 0 z" transform="scale(0.015625)"/><path id="DejaVuSans-e7" d="M 3122 3366 L 3122 2828 Q 2878 2963 2633 3030 Q 2388 3097 2138 3097 Q 1578 3097 1268 2742 Q 959 2388 959 1747 Q 959 1106 1268 751 Q 1578 397 2138 397 Q 2388 397 2633 464 Q 2878 531 3122 666 L 3122 134 Q 2881 22 2623 -34 Q 2366 -91 2075 -91 Q 1284 -91 818 406 Q 353 903 353 1747 Q 353 2603 823 3093 Q 1294 3584 2113 3584 Q 2378 3584 2631 3529 Q 2884 3475 3122 3366 z M 2311 0 Q 2482 -194 2566 -358 Q 2651 -522 2651 -672 Q 2651 -950 2463 -1092 Q 2276 -1234 1907 -1234 Q 1764 -1234 1628 -1215 Q 1492 -1197 1357 -1159 L 1357 -750 Q 1464 -803 1579 -826 Q 1695 -850 1842 -850 Q 2026 -850 2120 -775 Q 2214 -700 2214 -556 Q 2214 -463 2146 -327 Q 2079 -191 1939 0 L 2311 0 z" transform="scale(0.015625)"/><path id="DejaVuSans-e3" d="M 2194 1759 Q 1497 1759 1228 1600 Q 959 1441 959 1056 Q 959 750 1161 570 Q 1363 391 1709 391 Q 2188 391 2477 730 Q 2766 1069 2766 1631 L 2766 1759 L 2194 1759 z M 3341 1997 L 3341 0 L 2766 0 L 2766 531 Q 2569 213 2275 61 Q 1981 -91 1556 -91 Q 1019 -91 701 211 Q 384 513 384 1019 Q 384 1609 779 1909 Q 1175 2209 1959 2209 L 2766 2209 L 2766 2266 Q 2766 2663 2505 2880 Q 2244 3097 1772 3097 Q 1472 3097 1187 3025 Q 903 2953 641 2809 L 641 3341 Q 956 3463 1253 3523 Q 1550 3584 1831 3584 Q 2591 3584 2966 3190 Q 3341 2797 3341 1997 z M 1844 4281 L 1665 4453 Q 1597 4516 1545 4545 Q 1494 4575 1453 4575 Q 1334 4575 1278 4461 Q 1222 4347 1215 4091 L 825 4091 Q 831 4513 990 4742 Q 1150 4972 1434 4972 Q 1553 4972 1653 4928 Q 1753 4884 1869 4781 L 2047 4609 Q 2115 4547 2167 4517 Q 2219 4488 2259 4488 Q 2378 4488 2434 4602 Q 2490 4716 2497 4972 L 2887 4972 Q 2881 4550 2721 4320 Q 2562 4091 2278 4091 Q 2159 4091 2059 4134 Q 1959 4178 1844 4281 z" transform="scale(0.015625)"/></defs><use xlink:href="#DejaVuSans-56"/><use x="60.658" xlink:href="#DejaVuSans-61"/><use x="121.938" xlink:href="#DejaVuSans-6c"/><use x="149.721" xlink:href="#DejaVuSans-69"/><use x="177.504" xlink:href="#DejaVuSans-64"/><use x="240.98" xlink:href="#DejaVuSans-61"/><use x="302.26" xlink:href="#DejaVuSans-e7"/><use x="357.24" xlink:href="#DejaVuSans-e3"/><use x="418.52" xlink:href="#DejaVuSans-6f"/></g></g><g id="line2d_22"><path d="M 323.099688 83.945438 L 343.099688 83.945438" style="fill:none;stroke:red;stroke-dasharray:5.55,2.4;stroke-dashoffset:0;stroke-width:1.5"/></g><g id="text_20"><g transform="translate(351.099688 87.445438)scale(0.1 -0.1)"><use xlink:href="#DejaVuSans-4d"/><use x="86.279" xlink:href="#DejaVuSans-65"/><use x="147.803" xlink:href="#DejaVuSans-6e"/><use x="211.182" xlink:href="#DejaVuSans-6f"/><use x="272.363" xlink:href="#DejaVuSans-72"/><use x="313.477" xlink:href="#DejaVuSans-20"/><use x="345.264" xlink:href="#DejaVuSans-65"/><use x="406.787" xlink:href="#DejaVuSans-72"/><use x="446.15" xlink:href="#DejaVuSans-72"/><use x="485.014" xlink:href="#DejaVuSans-6f"/></g></g></g></g></g><defs><clipPath id="p30ac6fe9fb"><rect width="357.12" height="266.112" x="57.6" y="41.472"/></clipPath></defs></svg>