<svg xmlns="http://www.w3.org/2000/svg" xmlns:xlink="http://www.w3.org/1999/xlink" width="614.4" height="460.8" version="1.1" viewBox="0 0 460.8 345.6"><metadata><rdf:RDF xmlns:cc="http://creativecommons.org/ns#" xmlns:dc="http://purl.org/dc/elements/1.1/" xmlns:rdf="http://www.w3.org/1999/02/22-rdf-syntax-ns#"><cc:Work><dc:type rdf:resource="http://purl.org/dc/dcmitype/StillImage"/><dc:date>2021-04-16T16:10:26.875502</dc:date><dc:format>image/svg+xml</dc:format><dc:creator><cc:Agent><dc:title>Matplotlib v3.4.1, https://matplotlib.org/</dc:title></cc:Agent></dc:creator></cc:Work></rdf:RDF></metadata><defs><style type="text/css">*{stroke-linecap:butt;stroke-linejoin:round}</style></defs><g id="figure_1"><g id="patch_1"><path d="M 0 345.6 L 460.8 345.6 L 460.8 0 L 0 0 z" style="fill:#fff"/></g><g id="axes_1"><g id="patch_2"><path d="M 57.6 307.584 L 414.72 307.584 L 414.72 41.472 L 57.6 41.472 z" style="fill:#fff"/></g><g id="matplotlib.axis_1"><g id="xtick_1"><g id="line2d_1"><defs><path id="m6e64264627" d="M 0 0 L 0 3.5" style="stroke:#000;stroke-width:.8"/></defs><g><use style="stroke:#000;stroke-width:.8" x="73.833" y="307.584" xlink:href="#m6e64264627"/></g></g><g id="text_1"><g transform="translate(70.651477 322.182437)scale(0.1 -0.1)"><defs><path id="DejaVuSans-30" d="M 2034 4250 Q 1547 4250 1301 3770 Q 1056 3291 1056 2328 Q 1056 1369 1301 889 Q 1547 409 2034 409 Q 2525 409 2770 889 Q 3016 1369 3016 2328 Q 3016 3291 2770 3770 Q 2525 4250 2034 4250 z M 2034 4750 Q 2819 4750 3233 4129 Q 3647 3509 3647 2328 Q 3647 1150 3233 529 Q 2819 -91 2034 -91 Q 1250 -91 836 529 Q 422 1150 422 2328 Q 422 3509 836 4129 Q 1250 4750 2034 4750 z" transform="scale(0.015625)"/></defs><use xlink:href="#DejaVuSans-30"/></g></g></g><g id="xtick_2"><g id="line2d_2"><g><use style="stroke:#000;stroke-width:.8" x="137.994" y="307.584" xlink:href="#m6e64264627"/></g></g><g id="text_2"><g transform="translate(131.631205 322.182437)scale(0.1 -0.1)"><defs><path id="DejaVuSans-35" d="M 691 4666 L 3169 4666 L 3169 4134 L 1269 4134 L 1269 2991 Q 1406 3038 1543 3061 Q 1681 3084 1819 3084 Q 2600 3084 3056 2656 Q 3513 2228 3513 1497 Q 3513 744 3044 326 Q 2575 -91 1722 -91 Q 1428 -91 1123 -41 Q 819 9 494 109 L 494 744 Q 775 591 1075 516 Q 1375 441 1709 441 Q 2250 441 2565 725 Q 2881 1009 2881 1497 Q 2881 1984 2565 2268 Q 2250 2553 1709 2553 Q 1456 2553 1204 2497 Q 953 2441 691 2322 L 691 4666 z" transform="scale(0.015625)"/></defs><use xlink:href="#DejaVuSans-35"/><use x="63.623" xlink:href="#DejaVuSans-30"/></g></g></g><g id="xtick_3"><g id="line2d_3"><g><use style="stroke:#000;stroke-width:.8" x="202.155" y="307.584" xlink:href="#m6e64264627"/></g></g><g id="text_3"><g transform="translate(192.610932 322.182437)scale(0.1 -0.1)"><defs><path id="DejaVuSans-31" d="M 794 531 L 1825 531 L 1825 4091 L 703 3866 L 703 4441 L 1819 4666 L 2450 4666 L 2450 531 L 3481 531 L 3481 0 L 794 0 L 794 531 z" transform="scale(0.015625)"/></defs><use xlink:href="#DejaVuSans-31"/><use x="63.623" xlink:href="#DejaVuSans-30"/><use x="127.246" xlink:href="#DejaVuSans-30"/></g></g></g><g id="xtick_4"><g id="line2d_4"><g><use style="stroke:#000;stroke-width:.8" x="266.316" y="307.584" xlink:href="#m6e64264627"/></g></g><g id="text_4"><g transform="translate(256.771909 322.182437)scale(0.1 -0.1)"><use xlink:href="#DejaVuSans-31"/><use x="63.623" xlink:href="#DejaVuSans-35"/><use x="127.246" xlink:href="#DejaVuSans-30"/></g></g></g><g id="xtick_5"><g id="line2d_5"><g><use style="stroke:#000;stroke-width:.8" x="330.477" y="307.584" xlink:href="#m6e64264627"/></g></g><g id="text_5"><g transform="translate(320.932887 322.182437)scale(0.1 -0.1)"><defs><path id="DejaVuSans-32" d="M 1228 531 L 3431 531 L 3431 0 L 469 0 L 469 531 Q 828 903 1448 1529 Q 2069 2156 2228 2338 Q 2531 2678 2651 2914 Q 2772 3150 2772 3378 Q 2772 3750 2511 3984 Q 2250 4219 1831 4219 Q 1534 4219 1204 4116 Q 875 4013 500 3803 L 500 4441 Q 881 4594 1212 4672 Q 1544 4750 1819 4750 Q 2544 4750 2975 4387 Q 3406 4025 3406 3419 Q 3406 3131 3298 2873 Q 3191 2616 2906 2266 Q 2828 2175 2409 1742 Q 1991 1309 1228 531 z" transform="scale(0.015625)"/></defs><use xlink:href="#DejaVuSans-32"/><use x="63.623" xlink:href="#DejaVuSans-30"/><use x="127.246" xlink:href="#DejaVuSans-30"/></g></g></g><g id="xtick_6"><g id="line2d_6"><g><use style="stroke:#000;stroke-width:.8" x="394.638" y="307.584" xlink:href="#m6e64264627"/></g></g><g id="text_6"><g transform="translate(385.093864 322.182437)scale(0.1 -0.1)"><use xlink:href="#DejaVuSans-32"/><use x="63.623" xlink:href="#DejaVuSans-35"/><use x="127.246" xlink:href="#DejaVuSans-30"/></g></g></g><g id="text_7"><g transform="translate(218.349063 337.513688)scale(0.1 -0.1)"><defs><path id="DejaVuSans-c9" d="M 628 4666 L 3578 4666 L 3578 4134 L 1259 4134 L 1259 2753 L 3481 2753 L 3481 2222 L 1259 2222 L 1259 531 L 3634 531 L 3634 0 L 628 0 L 628 4666 z M 2268 5921 L 2846 5921 L 2134 5096 L 1655 5096 L 2268 5921 z" transform="scale(0.015625)"/><path id="DejaVuSans-70" d="M 1159 525 L 1159 -1331 L 581 -1331 L 581 3500 L 1159 3500 L 1159 2969 Q 1341 3281 1617 3432 Q 1894 3584 2278 3584 Q 2916 3584 3314 3078 Q 3713 2572 3713 1747 Q 3713 922 3314 415 Q 2916 -91 2278 -91 Q 1894 -91 1617 61 Q 1341 213 1159 525 z M 3116 1747 Q 3116 2381 2855 2742 Q 2594 3103 2138 3103 Q 1681 3103 1420 2742 Q 1159 2381 1159 1747 Q 1159 1113 1420 752 Q 1681 391 2138 391 Q 2594 391 2855 752 Q 3116 1113 3116 1747 z" transform="scale(0.015625)"/><path id="DejaVuSans-6f" d="M 1959 3097 Q 1497 3097 1228 2736 Q 959 2375 959 1747 Q 959 1119 1226 758 Q 1494 397 1959 397 Q 2419 397 2687 759 Q 2956 1122 2956 1747 Q 2956 2369 2687 2733 Q 2419 3097 1959 3097 z M 1959 3584 Q 2709 3584 3137 3096 Q 3566 2609 3566 1747 Q 3566 888 3137 398 Q 2709 -91 1959 -91 Q 1206 -91 779 398 Q 353 888 353 1747 Q 353 2609 779 3096 Q 1206 3584 1959 3584 z" transform="scale(0.015625)"/><path id="DejaVuSans-63" d="M 3122 3366 L 3122 2828 Q 2878 2963 2633 3030 Q 2388 3097 2138 3097 Q 1578 3097 1268 2742 Q 959 2388 959 1747 Q 959 1106 1268 751 Q 1578 397 2138 397 Q 2388 397 2633 464 Q 2878 531 3122 666 L 3122 134 Q 2881 22 2623 -34 Q 2366 -91 2075 -91 Q 1284 -91 818 406 Q 353 903 353 1747 Q 353 2603 823 3093 Q 1294 3584 2113 3584 Q 2378 3584 2631 3529 Q 2884 3475 3122 3366 z" transform="scale(0.015625)"/><path id="DejaVuSans-61" d="M 2194 1759 Q 1497 1759 1228 1600 Q 959 1441 959 1056 Q 959 750 1161 570 Q 1363 391 1709 391 Q 2188 391 2477 730 Q 2766 1069 2766 1631 L 2766 1759 L 2194 1759 z M 3341 1997 L 3341 0 L 2766 0 L 2766 531 Q 2569 213 2275 61 Q 1981 -91 1556 -91 Q 1019 -91 701 211 Q 384 513 384 1019 Q 384 1609 779 1909 Q 1175 2209 1959 2209 L 2766 2209 L 2766 2266 Q 2766 2663 2505 2880 Q 2244 3097 1772 3097 Q 1472 3097 1187 3025 Q 903 2953 641 2809 L 641 3341 Q 956 3463 1253 3523 Q 1550 3584 1831 3584 Q 2591 3584 2966 3190 Q 3341 2797 3341 1997 z" transform="scale(0.015625)"/><path id="DejaVuSans-73" d="M 2834 3397 L 2834 2853 Q 2591 2978 2328 3040 Q 2066 3103 1784 3103 Q 1356 3103 1142 2972 Q 928 2841 928 2578 Q 928 2378 1081 2264 Q 1234 2150 1697 2047 L 1894 2003 Q 2506 1872 2764 1633 Q 3022 1394 3022 966 Q 3022 478 2636 193 Q 2250 -91 1575 -91 Q 1294 -91 989 -36 Q 684 19 347 128 L 347 722 Q 666 556 975 473 Q 1284 391 1588 391 Q 1994 391 2212 530 Q 2431 669 2431 922 Q 2431 1156 2273 1281 Q 2116 1406 1581 1522 L 1381 1569 Q 847 1681 609 1914 Q 372 2147 372 2553 Q 372 3047 722 3315 Q 1072 3584 1716 3584 Q 2034 3584 2315 3537 Q 2597 3491 2834 3397 z" transform="scale(0.015625)"/></defs><use xlink:href="#DejaVuSans-c9"/><use x="63.184" xlink:href="#DejaVuSans-70"/><use x="126.66" xlink:href="#DejaVuSans-6f"/><use x="187.842" xlink:href="#DejaVuSans-63"/><use x="242.822" xlink:href="#DejaVuSans-61"/><use x="304.102" xlink:href="#DejaVuSans-73"/></g></g></g><g id="matplotlib.axis_2"><g id="ytick_1"><g id="line2d_7"><defs><path id="m4694fba68a" d="M 0 0 L -3.5 0" style="stroke:#000;stroke-width:.8"/></defs><g><use style="stroke:#000;stroke-width:.8" x="57.6" y="297.531" xlink:href="#m4694fba68a"/></g></g><g id="text_8"><g transform="translate(28.334375 301.330331)scale(0.1 -0.1)"><defs><path id="DejaVuSans-2e" d="M 684 794 L 1344 794 L 1344 0 L 684 0 L 684 794 z" transform="scale(0.015625)"/></defs><use xlink:href="#DejaVuSans-30"/><use x="63.623" xlink:href="#DejaVuSans-2e"/><use x="95.41" xlink:href="#DejaVuSans-30"/><use x="159.033" xlink:href="#DejaVuSans-30"/></g></g></g><g id="ytick_2"><g id="line2d_8"><g><use style="stroke:#000;stroke-width:.8" x="57.6" y="263.674" xlink:href="#m4694fba68a"/></g></g><g id="text_9"><g transform="translate(28.334375 267.47325)scale(0.1 -0.1)"><use xlink:href="#DejaVuSans-30"/><use x="63.623" xlink:href="#DejaVuSans-2e"/><use x="95.41" xlink:href="#DejaVuSans-30"/><use x="159.033" xlink:href="#DejaVuSans-32"/></g></g></g><g id="ytick_3"><g id="line2d_9"><g><use style="stroke:#000;stroke-width:.8" x="57.6" y="229.817" xlink:href="#m4694fba68a"/></g></g><g id="text_10"><g transform="translate(28.334375 233.61617)scale(0.1 -0.1)"><defs><path id="DejaVuSans-34" d="M 2419 4116 L 825 1625 L 2419 1625 L 2419 4116 z M 2253 4666 L 3047 4666 L 3047 1625 L 3713 1625 L 3713 1100 L 3047 1100 L 3047 0 L 2419 0 L 2419 1100 L 313 1100 L 313 1709 L 2253 4666 z" transform="scale(0.015625)"/></defs><use xlink:href="#DejaVuSans-30"/><use x="63.623" xlink:href="#DejaVuSans-2e"/><use x="95.41" xlink:href="#DejaVuSans-30"/><use x="159.033" xlink:href="#DejaVuSans-34"/></g></g></g><g id="ytick_4"><g id="line2d_10"><g><use style="stroke:#000;stroke-width:.8" x="57.6" y="195.96" xlink:href="#m4694fba68a"/></g></g><g id="text_11"><g transform="translate(28.334375 199.759089)scale(0.1 -0.1)"><defs><path id="DejaVuSans-36" d="M 2113 2584 Q 1688 2584 1439 2293 Q 1191 2003 1191 1497 Q 1191 994 1439 701 Q 1688 409 2113 409 Q 2538 409 2786 701 Q 3034 994 3034 1497 Q 3034 2003 2786 2293 Q 2538 2584 2113 2584 z M 3366 4563 L 3366 3988 Q 3128 4100 2886 4159 Q 2644 4219 2406 4219 Q 1781 4219 1451 3797 Q 1122 3375 1075 2522 Q 1259 2794 1537 2939 Q 1816 3084 2150 3084 Q 2853 3084 3261 2657 Q 3669 2231 3669 1497 Q 3669 778 3244 343 Q 2819 -91 2113 -91 Q 1303 -91 875 529 Q 447 1150 447 2328 Q 447 3434 972 4092 Q 1497 4750 2381 4750 Q 2619 4750 2861 4703 Q 3103 4656 3366 4563 z" transform="scale(0.015625)"/></defs><use xlink:href="#DejaVuSans-30"/><use x="63.623" xlink:href="#DejaVuSans-2e"/><use x="95.41" xlink:href="#DejaVuSans-30"/><use x="159.033" xlink:href="#DejaVuSans-36"/></g></g></g><g id="ytick_5"><g id="line2d_11"><g><use style="stroke:#000;stroke-width:.8" x="57.6" y="162.103" xlink:href="#m4694fba68a"/></g></g><g id="text_12"><g transform="translate(28.334375 165.902009)scale(0.1 -0.1)"><defs><path id="DejaVuSans-38" d="M 2034 2216 Q 1584 2216 1326 1975 Q 1069 1734 1069 1313 Q 1069 891 1326 650 Q 1584 409 2034 409 Q 2484 409 2743 651 Q 3003 894 3003 1313 Q 3003 1734 2745 1975 Q 2488 2216 2034 2216 z M 1403 2484 Q 997 2584 770 2862 Q 544 3141 544 3541 Q 544 4100 942 4425 Q 1341 4750 2034 4750 Q 2731 4750 3128 4425 Q 3525 4100 3525 3541 Q 3525 3141 3298 2862 Q 3072 2584 2669 2484 Q 3125 2378 3379 2068 Q 3634 1759 3634 1313 Q 3634 634 3220 271 Q 2806 -91 2034 -91 Q 1263 -91 848 271 Q 434 634 434 1313 Q 434 1759 690 2068 Q 947 2378 1403 2484 z M 1172 3481 Q 1172 3119 1398 2916 Q 1625 2713 2034 2713 Q 2441 2713 2670 2916 Q 2900 3119 2900 3481 Q 2900 3844 2670 4047 Q 2441 4250 2034 4250 Q 1625 4250 1398 4047 Q 1172 3844 1172 3481 z" transform="scale(0.015625)"/></defs><use xlink:href="#DejaVuSans-30"/><use x="63.623" xlink:href="#DejaVuSans-2e"/><use x="95.41" xlink:href="#DejaVuSans-30"/><use x="159.033" xlink:href="#DejaVuSans-38"/></g></g></g><g id="ytick_6"><g id="line2d_12"><g><use style="stroke:#000;stroke-width:.8" x="57.6" y="128.246" xlink:href="#m4694fba68a"/></g></g><g id="text_13"><g transform="translate(28.334375 132.044928)scale(0.1 -0.1)"><use xlink:href="#DejaVuSans-30"/><use x="63.623" xlink:href="#DejaVuSans-2e"/><use x="95.41" xlink:href="#DejaVuSans-31"/><use x="159.033" xlink:href="#DejaVuSans-30"/></g></g></g><g id="ytick_7"><g id="line2d_13"><g><use style="stroke:#000;stroke-width:.8" x="57.6" y="94.389" xlink:href="#m4694fba68a"/></g></g><g id="text_14"><g transform="translate(28.334375 98.187848)scale(0.1 -0.1)"><use xlink:href="#DejaVuSans-30"/><use x="63.623" xlink:href="#DejaVuSans-2e"/><use x="95.41" xlink:href="#DejaVuSans-31"/><use x="159.033" xlink:href="#DejaVuSans-32"/></g></g></g><g id="ytick_8"><g id="line2d_14"><g><use style="stroke:#000;stroke-width:.8" x="57.6" y="60.532" xlink:href="#m4694fba68a"/></g></g><g id="text_15"><g transform="translate(28.334375 64.330767)scale(0.1 -0.1)"><use xlink:href="#DejaVuSans-30"/><use x="63.623" xlink:href="#DejaVuSans-2e"/><use x="95.41" xlink:href="#DejaVuSans-31"/><use x="159.033" xlink:href="#DejaVuSans-34"/></g></g></g><g id="text_16"><g transform="translate(22.254688 185.175656)rotate(-90)scale(0.1 -0.1)"><defs><path id="DejaVuSans-4d" d="M 628 4666 L 1569 4666 L 2759 1491 L 3956 4666 L 4897 4666 L 4897 0 L 4281 0 L 4281 4097 L 3078 897 L 2444 897 L 1241 4097 L 1241 0 L 628 0 L 628 4666 z" transform="scale(0.015625)"/><path id="DejaVuSans-53" d="M 3425 4513 L 3425 3897 Q 3066 4069 2747 4153 Q 2428 4238 2131 4238 Q 1616 4238 1336 4038 Q 1056 3838 1056 3469 Q 1056 3159 1242 3001 Q 1428 2844 1947 2747 L 2328 2669 Q 3034 2534 3370 2195 Q 3706 1856 3706 1288 Q 3706 609 3251 259 Q 2797 -91 1919 -91 Q 1588 -91 1214 -16 Q 841 59 441 206 L 441 856 Q 825 641 1194 531 Q 1563 422 1919 422 Q 2459 422 2753 634 Q 3047 847 3047 1241 Q 3047 1584 2836 1778 Q 2625 1972 2144 2069 L 1759 2144 Q 1053 2284 737 2584 Q 422 2884 422 3419 Q 422 4038 858 4394 Q 1294 4750 2059 4750 Q 2388 4750 2728 4690 Q 3069 4631 3425 4513 z" transform="scale(0.015625)"/><path id="DejaVuSans-45" d="M 628 4666 L 3578 4666 L 3578 4134 L 1259 4134 L 1259 2753 L 3481 2753 L 3481 2222 L 1259 2222 L 1259 531 L 3634 531 L 3634 0 L 628 0 L 628 4666 z" transform="scale(0.015625)"/></defs><use xlink:href="#DejaVuSans-4d"/><use x="86.279" xlink:href="#DejaVuSans-53"/><use x="149.756" xlink:href="#DejaVuSans-45"/></g></g></g><g id="line2d_15"><path d="M 73.832727 53.568 L 75.115947 129.871313 L 76.399166 163.932158 L 77.682386 186.811123 L 78.965605 203.092651 L 80.248825 212.870127 L 81.532045 224.110417 L 82.815264 228.674623 L 84.098484 234.592289 L 85.381703 239.465053 L 86.664923 243.890361 L 87.948142 247.573604 L 89.231362 249.939109 L 90.514581 252.791239 L 91.797801 254.939186 L 94.36424 257.763429 L 95.64746 259.4446 L 96.930679 260.815745 L 98.213899 262.957584 L 99.497118 262.971433 L 100.780338 263.574117 L 102.063557 264.727007 L 104.629996 265.782322 L 105.913216 266.609371 L 107.196436 268.02524 L 108.479655 268.685262 L 109.762875 268.772555 L 111.046094 269.202492 L 112.329314 268.817362 L 113.612533 269.659095 L 114.895753 270.021677 L 116.178972 270.648281 L 117.462192 270.492908 L 118.745411 270.968459 L 120.028631 271.30853 L 121.311851 271.238823 L 122.59507 271.81398 L 123.87829 272.545789 L 125.161509 272.036685 L 126.444729 273.355623 L 127.727948 272.435656 L 129.011168 272.826216 L 130.294387 272.861821 L 131.577607 273.561597 L 132.860826 273.38097 L 134.144046 273.410052 L 135.427266 273.764019 L 136.710485 274.238629 L 137.993705 274.174767 L 139.276924 274.292403 L 140.560144 275.40074 L 141.843363 274.546936 L 143.126583 274.292518 L 144.409802 274.964178 L 145.693022 274.870959 L 146.976241 276.88997 L 148.259461 274.905718 L 149.542681 274.411471 L 150.8259 274.980028 L 153.392339 275.69101 L 154.675559 275.649689 L 155.958778 275.450685 L 158.525217 275.60113 L 159.808437 275.924685 L 161.091656 275.590639 L 162.374876 275.820311 L 163.658096 276.613757 L 164.941315 275.702064 L 166.224535 276.057473 L 167.507754 275.987829 L 168.790974 276.306148 L 170.074193 276.052417 L 171.357413 276.190066 L 172.640632 276.093409 L 173.923852 277.088939 L 176.490291 276.237049 L 177.773511 277.162027 L 179.05673 276.272825 L 180.33995 277.028598 L 181.623169 276.998677 L 182.906389 276.70884 L 184.189608 276.730866 L 185.472828 277.280828 L 188.039267 276.746913 L 189.322487 277.395433 L 190.605706 277.022955 L 191.888926 276.943254 L 193.172145 278.543983 L 194.455365 276.564562 L 195.738584 277.225921 L 197.021804 277.301921 L 198.305023 277.125751 L 202.154682 277.439707 L 203.437902 277.62948 L 204.721121 277.147626 L 206.004341 277.640975 L 207.28756 277.336431 L 208.57078 277.954944 L 209.853999 277.376391 L 211.137219 278.565062 L 212.420438 277.129457 L 213.703658 277.954427 L 214.986877 277.586587 L 216.270097 277.410003 L 217.553317 278.23977 L 218.836536 277.569648 L 221.402975 278.50329 L 222.686195 279.091236 L 223.969414 277.609732 L 225.252634 278.220797 L 226.535853 277.854274 L 227.819073 277.776021 L 231.668732 278.30657 L 232.951951 278.87003 L 234.235171 278.365079 L 235.51839 278.282122 L 236.80161 277.977278 L 238.084829 278.377411 L 239.368049 279.116567 L 240.651268 278.875807 L 241.934488 277.60728 L 243.217708 278.639115 L 245.784147 278.175163 L 247.067366 278.113248 L 250.917025 278.769289 L 252.200244 278.108605 L 253.483464 278.400289 L 254.766683 278.984289 L 256.049903 277.880343 L 257.333123 278.550841 L 258.616342 278.471586 L 259.899562 279.166804 L 262.466001 278.588531 L 263.74922 278.38685 L 265.03244 278.578935 L 266.315659 280.213545 L 267.598879 278.041622 L 270.165318 278.905427 L 271.448538 278.74358 L 274.014977 279.205594 L 275.298196 278.263804 L 276.581416 278.714496 L 277.864635 279.406466 L 279.147855 278.248749 L 280.431074 279.049142 L 281.714294 278.463047 L 282.997513 278.705421 L 284.280733 278.53829 L 285.563953 278.856554 L 286.847172 278.600144 L 288.130392 278.754763 L 289.413611 280.258514 L 290.696831 279.207466 L 291.98005 278.33995 L 293.26327 279.139547 L 294.546489 279.355801 L 295.829709 278.894764 L 297.112928 279.389934 L 298.396148 279.118169 L 299.679368 278.435624 L 302.245807 279.672344 L 303.529026 278.711108 L 304.812246 278.706919 L 306.095465 278.894621 L 307.378685 278.712587 L 309.945124 278.89358 L 311.228344 279.118349 L 312.511563 280.345621 L 313.794783 278.405785 L 315.078002 279.33747 L 316.361222 278.880084 L 318.927661 278.723155 L 320.21088 278.962362 L 322.777319 278.831156 L 324.060539 279.10881 L 325.343759 278.873811 L 326.626978 279.013627 L 327.910198 279.03262 L 329.193417 279.375565 L 330.476637 278.905065 L 331.759856 279.585826 L 333.043076 278.930453 L 334.326295 280.739006 L 335.609515 278.313646 L 336.892734 279.803268 L 338.175954 278.885557 L 339.459174 279.119137 L 340.742393 278.857788 L 343.308832 279.220926 L 344.592052 279.092018 L 345.875271 279.229487 L 347.158491 280.401131 L 348.44171 279.05878 L 349.72493 279.249318 L 351.008149 278.866007 L 352.291369 278.952568 L 353.574589 279.202345 L 354.857808 280.276443 L 356.141028 278.81294 L 357.424247 278.944365 L 358.707467 280.045024 L 359.990686 278.841338 L 362.557125 279.505308 L 363.840345 278.948404 L 365.123564 279.918332 L 366.406784 279.026042 L 367.690004 279.340495 L 368.973223 279.403078 L 370.256443 279.02565 L 371.539662 279.863718 L 372.822882 279.425385 L 375.389321 279.202925 L 376.67254 279.198968 L 377.95576 280.109171 L 379.23898 279.188616 L 380.522199 279.761222 L 381.805419 279.827024 L 383.088638 279.772892 L 384.371858 279.224001 L 385.655077 279.03335 L 388.221516 279.46156 L 389.504736 279.357776 L 390.787955 279.059453 L 392.071175 279.500997 L 393.354395 279.351205 L 394.637614 279.481998 L 395.920834 280.084928 L 397.204053 279.295175 L 398.487273 279.198025 L 398.487273 279.198025" clip-path="url(#p93ddea17bc)" style="fill:none;stroke:#1f77b4;stroke-linecap:square;stroke-width:1.5"/></g><g id="line2d_16"><path d="M 73.832727 133.719828 L 75.115947 174.392059 L 76.399166 199.431588 L 77.682386 214.465261 L 78.965605 227.170685 L 80.248825 234.77501 L 81.532045 241.014485 L 82.815264 244.349162 L 84.098484 249.906568 L 85.381703 253.094241 L 86.664923 255.949773 L 87.948142 256.421679 L 89.231362 258.73122 L 90.514581 261.994068 L 91.797801 261.963205 L 93.08102 268.051292 L 94.36424 269.498327 L 95.64746 271.580414 L 96.930679 269.829591 L 98.213899 275.240119 L 99.497118 270.914678 L 100.780338 273.722093 L 102.063557 272.93566 L 103.346777 273.573311 L 105.913216 278.409672 L 107.196436 281.12564 L 108.479655 280.999626 L 109.762875 277.880751 L 111.046094 276.128447 L 112.329314 280.428736 L 113.612533 281.88473 L 114.895753 282.413307 L 116.178972 283.853932 L 117.462192 283.568346 L 118.745411 281.770237 L 120.028631 284.119971 L 121.311851 283.272236 L 122.59507 281.228817 L 123.87829 285.645984 L 125.161509 283.393582 L 126.444729 278.6462 L 127.727948 280.400776 L 129.011168 285.542508 L 130.294387 284.699253 L 131.577607 284.714172 L 132.860826 282.151955 L 134.144046 284.732609 L 135.427266 282.987688 L 136.710485 287.197657 L 137.993705 287.283952 L 139.276924 288.444194 L 140.560144 280.920828 L 141.843363 282.988235 L 143.126583 286.082317 L 144.409802 287.781273 L 145.693022 284.312264 L 146.976241 289.568511 L 148.259461 289.261859 L 149.542681 287.843219 L 150.8259 287.610512 L 152.10912 284.729814 L 153.392339 288.84353 L 154.675559 286.440132 L 155.958778 286.432084 L 157.241998 287.525581 L 159.808437 286.284607 L 161.091656 286.481914 L 162.374876 284.808941 L 163.658096 284.765425 L 164.941315 285.787703 L 166.224535 288.473012 L 167.507754 288.613752 L 168.790974 288.493988 L 170.074193 288.102458 L 171.357413 286.509981 L 172.640632 286.448206 L 173.923852 289.909933 L 175.207072 290.095204 L 176.490291 287.280986 L 177.773511 290.094444 L 179.05673 288.672938 L 180.33995 289.60365 L 181.623169 288.549698 L 182.906389 288.01016 L 184.189608 288.600746 L 185.472828 290.780483 L 186.756047 286.543986 L 188.039267 287.539646 L 189.322487 290.656984 L 190.605706 287.932631 L 191.888926 287.940335 L 193.172145 292.334155 L 194.455365 290.111944 L 195.738584 289.989905 L 197.021804 290.932119 L 199.588243 290.564447 L 200.871462 289.154189 L 202.154682 289.581036 L 203.437902 291.406424 L 204.721121 290.739864 L 206.004341 291.099677 L 207.28756 290.441946 L 208.57078 290.733727 L 209.853999 290.250757 L 211.137219 284.515439 L 212.420438 288.693773 L 213.703658 290.812931 L 214.986877 288.477167 L 216.270097 289.224354 L 217.553317 286.696164 L 218.836536 289.603191 L 220.119756 291.05614 L 221.402975 286.128028 L 222.686195 292.665082 L 223.969414 289.692892 L 225.252634 289.148897 L 226.535853 289.79874 L 227.819073 290.300867 L 229.102292 291.171686 L 230.385512 289.74843 L 231.668732 290.30349 L 232.951951 292.488601 L 234.235171 293.040604 L 235.51839 289.954005 L 236.80161 290.413135 L 238.084829 289.510459 L 239.368049 293.079674 L 240.651268 293.900125 L 241.934488 291.713543 L 243.217708 292.828071 L 245.784147 292.847748 L 247.067366 291.253618 L 248.350586 291.582083 L 249.633805 289.940296 L 250.917025 293.482412 L 252.200244 293.192411 L 253.483464 292.156654 L 254.766683 294.135517 L 256.049903 292.025035 L 257.333123 292.267676 L 258.616342 291.00783 L 259.899562 293.967368 L 261.182781 291.700795 L 262.466001 293.005441 L 263.74922 293.581214 L 265.03244 291.139699 L 266.315659 294.801595 L 268.882098 291.974572 L 270.165318 293.896165 L 271.448538 291.736175 L 272.731757 293.6659 L 274.014977 293.908708 L 275.298196 293.357793 L 276.581416 291.620062 L 277.864635 289.570829 L 279.147855 292.402763 L 280.431074 289.954002 L 281.714294 291.442348 L 282.997513 291.316952 L 284.280733 292.39028 L 285.563953 293.973063 L 286.847172 293.832774 L 288.130392 294.391478 L 289.413611 288.322527 L 290.696831 287.016029 L 291.98005 291.932646 L 293.26327 293.93235 L 294.546489 294.808035 L 295.829709 291.813315 L 297.112928 293.528376 L 298.396148 294.176567 L 299.679368 293.334677 L 300.962587 294.220391 L 302.245807 290.706136 L 303.529026 291.061249 L 304.812246 292.849588 L 306.095465 293.846152 L 307.378685 293.424884 L 308.661904 291.909004 L 309.945124 293.348232 L 311.228344 291.399684 L 312.511563 287.202426 L 313.794783 289.61831 L 315.078002 293.239193 L 316.361222 292.587635 L 317.644441 292.201383 L 318.927661 293.080224 L 320.21088 292.564133 L 321.4941 293.268672 L 322.777319 293.552616 L 324.060539 292.430025 L 325.343759 292.971164 L 326.626978 292.30597 L 327.910198 293.453645 L 329.193417 290.466024 L 330.476637 290.704191 L 331.759856 294.420202 L 333.043076 294.496994 L 334.326295 295.488 L 335.609515 294.778519 L 336.892734 291.379239 L 338.175954 292.534699 L 339.459174 293.408569 L 340.742393 293.161389 L 342.025613 293.121298 L 343.308832 293.797391 L 344.592052 292.856607 L 345.875271 292.284234 L 347.158491 294.931135 L 348.44171 294.328366 L 349.72493 294.081528 L 351.008149 293.173367 L 352.291369 293.458519 L 353.574589 292.510489 L 354.857808 294.882153 L 356.141028 294.475284 L 357.424247 293.493377 L 358.707467 290.219923 L 359.990686 291.889889 L 361.273906 291.832003 L 362.557125 293.991568 L 363.840345 293.022316 L 365.123564 293.892521 L 366.406784 292.6237 L 367.690004 292.661842 L 368.973223 291.751421 L 370.256443 292.587359 L 371.539662 291.430596 L 372.822882 291.64453 L 374.106101 293.596874 L 375.389321 292.107201 L 376.67254 292.150043 L 377.95576 294.741405 L 379.23898 294.011909 L 380.522199 291.611931 L 381.805419 291.422083 L 383.088638 293.90057 L 384.371858 293.999093 L 386.938297 293.117729 L 388.221516 294.424496 L 389.504736 294.550994 L 390.787955 294.346125 L 392.071175 291.842869 L 393.354395 293.852946 L 394.637614 292.081862 L 395.920834 295.197496 L 397.204053 293.610318 L 398.487273 292.771231 L 398.487273 292.771231" clip-path="url(#p93ddea17bc)" style="fill:none;stroke:#ff7f0e;stroke-linecap:square;stroke-width:1.5"/></g><g id="line2d_17"><path d="M 334.326295 307.584 L 334.326295 41.472" clip-path="url(#p93ddea17bc)" style="fill:none;stroke:red;stroke-dasharray:5.55,2.4;stroke-dashoffset:0;stroke-width:1.5"/></g><g id="patch_3"><path d="M 57.6 307.584 L 57.6 41.472" style="fill:none;stroke:#000;stroke-linecap:square;stroke-linejoin:miter;stroke-width:.8"/></g><g id="patch_4"><path d="M 414.72 307.584 L 414.72 41.472" style="fill:none;stroke:#000;stroke-linecap:square;stroke-linejoin:miter;stroke-width:.8"/></g><g id="patch_5"><path d="M 57.6 307.584 L 414.72 307.584" style="fill:none;stroke:#000;stroke-linecap:square;stroke-linejoin:miter;stroke-width:.8"/></g><g id="patch_6"><path d="M 57.6 41.472 L 414.72 41.472" style="fill:none;stroke:#000;stroke-linecap:square;stroke-linejoin:miter;stroke-width:.8"/></g><g id="text_17"><g transform="translate(191.023125 35.472)scale(0.12 -0.12)"><defs><path id="DejaVuSans-72" d="M 2631 2963 Q 2534 3019 2420 3045 Q 2306 3072 2169 3072 Q 1681 3072 1420 2755 Q 1159 2438 1159 1844 L 1159 0 L 581 0 L 581 3500 L 1159 3500 L 1159 2956 Q 1341 3275 1631 3429 Q 1922 3584 2338 3584 Q 2397 3584 2469 3576 Q 2541 3569 2628 3553 L 2631 2963 z" transform="scale(0.015625)"/><path id="DejaVuSans-20" transform="scale(0.015625)"/><path id="DejaVuSans-64" d="M 2906 2969 L 2906 4863 L 3481 4863 L 3481 0 L 2906 0 L 2906 525 Q 2725 213 2448 61 Q 2172 -91 1784 -91 Q 1150 -91 751 415 Q 353 922 353 1747 Q 353 2572 751 3078 Q 1150 3584 1784 3584 Q 2172 3584 2448 3432 Q 2725 3281 2906 2969 z M 947 1747 Q 947 1113 1208 752 Q 1469 391 1925 391 Q 2381 391 2643 752 Q 2906 1113 2906 1747 Q 2906 2381 2643 2742 Q 2381 3103 1925 3103 Q 1469 3103 1208 2742 Q 947 2381 947 1747 z" transform="scale(0.015625)"/><path id="DejaVuSans-65" d="M 3597 1894 L 3597 1613 L 953 1613 Q 991 1019 1311 708 Q 1631 397 2203 397 Q 2534 397 2845 478 Q 3156 559 3463 722 L 3463 178 Q 3153 47 2828 -22 Q 2503 -91 2169 -91 Q 1331 -91 842 396 Q 353 884 353 1716 Q 353 2575 817 3079 Q 1281 3584 2069 3584 Q 2775 3584 3186 3129 Q 3597 2675 3597 1894 z M 3022 2063 Q 3016 2534 2758 2815 Q 2500 3097 2075 3097 Q 1594 3097 1305 2825 Q 1016 2553 972 2059 L 3022 2063 z" transform="scale(0.015625)"/><path id="DejaVuSans-6c" d="M 603 4863 L 1178 4863 L 1178 0 L 603 0 L 603 4863 z" transform="scale(0.015625)"/></defs><use xlink:href="#DejaVuSans-45"/><use x="63.184" xlink:href="#DejaVuSans-72"/><use x="102.547" xlink:href="#DejaVuSans-72"/><use x="141.41" xlink:href="#DejaVuSans-6f"/><use x="202.592" xlink:href="#DejaVuSans-20"/><use x="234.379" xlink:href="#DejaVuSans-64"/><use x="297.855" xlink:href="#DejaVuSans-6f"/><use x="359.037" xlink:href="#DejaVuSans-20"/><use x="390.824" xlink:href="#DejaVuSans-4d"/><use x="477.104" xlink:href="#DejaVuSans-6f"/><use x="538.285" xlink:href="#DejaVuSans-64"/><use x="601.762" xlink:href="#DejaVuSans-65"/><use x="663.285" xlink:href="#DejaVuSans-6c"/><use x="691.068" xlink:href="#DejaVuSans-6f"/></g></g><g id="legend_1"><g id="patch_7"><path d="M 321.099688 93.525125 L 407.72 93.525125 Q 409.72 93.525125 409.72 91.525125 L 409.72 48.472 Q 409.72 46.472 407.72 46.472 L 321.099688 46.472 Q 319.099688 46.472 319.099688 48.472 L 319.099688 91.525125 Q 319.099688 93.525125 321.099688 93.525125 z" style="fill:#fff;opacity:.8;stroke:#ccc;stroke-linejoin:miter"/></g><g id="line2d_18"><path d="M 323.099688 54.570438 L 343.099688 54.570438" style="fill:none;stroke:#1f77b4;stroke-linecap:square;stroke-width:1.5"/></g><g id="text_18"><g transform="translate(351.099688 58.070438)scale(0.1 -0.1)"><defs><path id="DejaVuSans-54" d="M -19 4666 L 3928 4666 L 3928 4134 L 2272 4134 L 2272 0 L 1638 0 L 1638 4134 L -19 4134 L -19 4666 z" transform="scale(0.015625)"/><path id="DejaVuSans-69" d="M 603 3500 L 1178 3500 L 1178 0 L 603 0 L 603 3500 z M 603 4863 L 1178 4863 L 1178 4134 L 603 4134 L 603 4863 z" transform="scale(0.015625)"/><path id="DejaVuSans-6e" d="M 3513 2113 L 3513 0 L 2938 0 L 2938 2094 Q 2938 2591 2744 2837 Q 2550 3084 2163 3084 Q 1697 3084 1428 2787 Q 1159 2491 1159 1978 L 1159 0 L 581 0 L 581 3500 L 1159 3500 L 1159 2956 Q 1366 3272 1645 3428 Q 1925 3584 2291 3584 Q 2894 3584 3203 3211 Q 3513 2838 3513 2113 z" transform="scale(0.015625)"/></defs><use xlink:href="#DejaVuSans-54"/><use x="46.334" xlink:href="#DejaVuSans-72"/><use x="85.197" xlink:href="#DejaVuSans-65"/><use x="146.721" xlink:href="#DejaVuSans-69"/><use x="174.504" xlink:href="#DejaVuSans-6e"/><use x="237.883" xlink:href="#DejaVuSans-6f"/></g></g><g id="line2d_20"><path d="M 323.099688 69.267313 L 343.099688 69.267313" style="fill:none;stroke:#ff7f0e;stroke-linecap:square;stroke-width:1.5"/></g><g id="text_19"><g transform="translate(351.099688 72.767313)scale(0.1 -0.1)"><defs><path id="DejaVuSans-56" d="M 1831 0 L 50 4666 L 709 4666 L 2188 738 L 3669 4666 L 4325 4666 L 2547 0 L 1831 0 z" transform="scale(0.015625)"/><path id="DejaVuSans-e7" d="M 3122 3366 L 3122 2828 Q 2878 2963 2633 3030 Q 2388 3097 2138 3097 Q 1578 3097 1268 2742 Q 959 2388 959 1747 Q 959 1106 1268 751 Q 1578 397 2138 397 Q 2388 397 2633 464 Q 2878 531 3122 666 L 3122 134 Q 2881 22 2623 -34 Q 2366 -91 2075 -91 Q 1284 -91 818 406 Q 353 903 353 1747 Q 353 2603 823 3093 Q 1294 3584 2113 3584 Q 2378 3584 2631 3529 Q 2884 3475 3122 3366 z M 2311 0 Q 2482 -194 2566 -358 Q 2651 -522 2651 -672 Q 2651 -950 2463 -1092 Q 2276 -1234 1907 -1234 Q 1764 -1234 1628 -1215 Q 1492 -1197 1357 -1159 L 1357 -750 Q 1464 -803 1579 -826 Q 1695 -850 1842 -850 Q 2026 -850 2120 -775 Q 2214 -700 2214 -556 Q 2214 -463 2146 -327 Q 2079 -191 1939 0 L 2311 0 z" transform="scale(0.015625)"/><path id="DejaVuSans-e3" d="M 2194 1759 Q 1497 1759 1228 1600 Q 959 1441 959 1056 Q 959 750 1161 570 Q 1363 391 1709 391 Q 2188 391 2477 730 Q 2766 1069 2766 1631 L 2766 1759 L 2194 1759 z M 3341 1997 L 3341 0 L 2766 0 L 2766 531 Q 2569 213 2275 61 Q 1981 -91 1556 -91 Q 1019 -91 701 211 Q 384 513 384 1019 Q 384 1609 779 1909 Q 1175 2209 1959 2209 L 2766 2209 L 2766 2266 Q 2766 2663 2505 2880 Q 2244 3097 1772 3097 Q 1472 3097 1187 3025 Q 903 2953 641 2809 L 641 3341 Q 956 3463 1253 3523 Q 1550 3584 1831 3584 Q 2591 3584 2966 3190 Q 3341 2797 3341 1997 z M 1844 4281 L 1665 4453 Q 1597 4516 1545 4545 Q 1494 4575 1453 4575 Q 1334 4575 1278 4461 Q 1222 4347 1215 4091 L 825 4091 Q 831 4513 990 4742 Q 1150 4972 1434 4972 Q 1553 4972 1653 4928 Q 1753 4884 1869 4781 L 2047 4609 Q 2115 4547 2167 4517 Q 2219 4488 2259 4488 Q 2378 4488 2434 4602 Q 2490 4716 2497 4972 L 2887 4972 Q 2881 4550 2721 4320 Q 2562 4091 2278 4091 Q 2159 4091 2059 4134 Q 1959 4178 1844 4281 z" transform="scale(0.015625)"/></defs><use xlink:href="#DejaVuSans-56"/><use x="60.658" xlink:href="#DejaVuSans-61"/><use x="121.938" xlink:href="#DejaVuSans-6c"/><use x="149.721" xlink:href="#DejaVuSans-69"/><use x="177.504" xlink:href="#DejaVuSans-64"/><use x="240.98" xlink:href="#DejaVuSans-61"/><use x="302.26" xlink:href="#DejaVuSans-e7"/><use x="357.24" xlink:href="#DejaVuSans-e3"/><use x="418.52" xlink:href="#DejaVuSans-6f"/></g></g><g id="line2d_22"><path d="M 323.099688 83.945438 L 343.099688 83.945438" style="fill:none;stroke:red;stroke-dasharray:5.55,2.4;stroke-dashoffset:0;stroke-width:1.5"/></g><g id="text_20"><g transform="translate(351.099688 87.445438)scale(0.1 -0.1)"><use xlink:href="#DejaVuSans-4d"/><use x="86.279" xlink:href="#DejaVuSans-65"/><use x="147.803" xlink:href="#DejaVuSans-6e"/><use x="211.182" xlink:href="#DejaVuSans-6f"/><use x="272.363" xlink:href="#DejaVuSans-72"/><use x="313.477" xlink:href="#DejaVuSans-20"/><use x="345.264" xlink:href="#DejaVuSans-65"/><use x="406.787" xlink:href="#DejaVuSans-72"/><use x="446.15" xlink:href="#DejaVuSans-72"/><use x="485.014" xlink:href="#DejaVuSans-6f"/></g></g></g></g></g><defs><clipPath id="p93ddea17bc"><rect width="357.12" height="266.112" x="57.6" y="41.472"/></clipPath></defs></svg>