<svg xmlns="http://www.w3.org/2000/svg" xmlns:xlink="http://www.w3.org/1999/xlink" width="614.4" height="460.8" version="1.1" viewBox="0 0 460.8 345.6"><metadata><rdf:RDF xmlns:cc="http://creativecommons.org/ns#" xmlns:dc="http://purl.org/dc/elements/1.1/" xmlns:rdf="http://www.w3.org/1999/02/22-rdf-syntax-ns#"><cc:Work><dc:type rdf:resource="http://purl.org/dc/dcmitype/StillImage"/><dc:date>2021-04-16T15:35:51.912219</dc:date><dc:format>image/svg+xml</dc:format><dc:creator><cc:Agent><dc:title>Matplotlib v3.4.1, https://matplotlib.org/</dc:title></cc:Agent></dc:creator></cc:Work></rdf:RDF></metadata><defs><style type="text/css">*{stroke-linecap:butt;stroke-linejoin:round}</style></defs><g id="figure_1"><g id="patch_1"><path d="M 0 345.6 L 460.8 345.6 L 460.8 0 L 0 0 z" style="fill:#fff"/></g><g id="axes_1"><g id="patch_2"><path d="M 57.6 307.584 L 414.72 307.584 L 414.72 41.472 L 57.6 41.472 z" style="fill:#fff"/></g><g id="matplotlib.axis_1"><g id="xtick_1"><g id="line2d_1"><defs><path id="m724af59002" d="M 0 0 L 0 3.5" style="stroke:#000;stroke-width:.8"/></defs><g><use style="stroke:#000;stroke-width:.8" x="73.833" y="307.584" xlink:href="#m724af59002"/></g></g><g id="text_1"><g transform="translate(70.651477 322.182437)scale(0.1 -0.1)"><defs><path id="DejaVuSans-30" d="M 2034 4250 Q 1547 4250 1301 3770 Q 1056 3291 1056 2328 Q 1056 1369 1301 889 Q 1547 409 2034 409 Q 2525 409 2770 889 Q 3016 1369 3016 2328 Q 3016 3291 2770 3770 Q 2525 4250 2034 4250 z M 2034 4750 Q 2819 4750 3233 4129 Q 3647 3509 3647 2328 Q 3647 1150 3233 529 Q 2819 -91 2034 -91 Q 1250 -91 836 529 Q 422 1150 422 2328 Q 422 3509 836 4129 Q 1250 4750 2034 4750 z" transform="scale(0.015625)"/></defs><use xlink:href="#DejaVuSans-30"/></g></g></g><g id="xtick_2"><g id="line2d_2"><g><use style="stroke:#000;stroke-width:.8" x="141.049" y="307.584" xlink:href="#m724af59002"/></g></g><g id="text_2"><g transform="translate(131.505239 322.182437)scale(0.1 -0.1)"><defs><path id="DejaVuSans-31" d="M 794 531 L 1825 531 L 1825 4091 L 703 3866 L 703 4441 L 1819 4666 L 2450 4666 L 2450 531 L 3481 531 L 3481 0 L 794 0 L 794 531 z" transform="scale(0.015625)"/></defs><use xlink:href="#DejaVuSans-31"/><use x="63.623" xlink:href="#DejaVuSans-30"/><use x="127.246" xlink:href="#DejaVuSans-30"/></g></g></g><g id="xtick_3"><g id="line2d_3"><g><use style="stroke:#000;stroke-width:.8" x="208.265" y="307.584" xlink:href="#m724af59002"/></g></g><g id="text_3"><g transform="translate(198.721501 322.182437)scale(0.1 -0.1)"><defs><path id="DejaVuSans-32" d="M 1228 531 L 3431 531 L 3431 0 L 469 0 L 469 531 Q 828 903 1448 1529 Q 2069 2156 2228 2338 Q 2531 2678 2651 2914 Q 2772 3150 2772 3378 Q 2772 3750 2511 3984 Q 2250 4219 1831 4219 Q 1534 4219 1204 4116 Q 875 4013 500 3803 L 500 4441 Q 881 4594 1212 4672 Q 1544 4750 1819 4750 Q 2544 4750 2975 4387 Q 3406 4025 3406 3419 Q 3406 3131 3298 2873 Q 3191 2616 2906 2266 Q 2828 2175 2409 1742 Q 1991 1309 1228 531 z" transform="scale(0.015625)"/></defs><use xlink:href="#DejaVuSans-32"/><use x="63.623" xlink:href="#DejaVuSans-30"/><use x="127.246" xlink:href="#DejaVuSans-30"/></g></g></g><g id="xtick_4"><g id="line2d_4"><g><use style="stroke:#000;stroke-width:.8" x="275.482" y="307.584" xlink:href="#m724af59002"/></g></g><g id="text_4"><g transform="translate(265.937763 322.182437)scale(0.1 -0.1)"><defs><path id="DejaVuSans-33" d="M 2597 2516 Q 3050 2419 3304 2112 Q 3559 1806 3559 1356 Q 3559 666 3084 287 Q 2609 -91 1734 -91 Q 1441 -91 1130 -33 Q 819 25 488 141 L 488 750 Q 750 597 1062 519 Q 1375 441 1716 441 Q 2309 441 2620 675 Q 2931 909 2931 1356 Q 2931 1769 2642 2001 Q 2353 2234 1838 2234 L 1294 2234 L 1294 2753 L 1863 2753 Q 2328 2753 2575 2939 Q 2822 3125 2822 3475 Q 2822 3834 2567 4026 Q 2313 4219 1838 4219 Q 1578 4219 1281 4162 Q 984 4106 628 3988 L 628 4550 Q 988 4650 1302 4700 Q 1616 4750 1894 4750 Q 2613 4750 3031 4423 Q 3450 4097 3450 3541 Q 3450 3153 3228 2886 Q 3006 2619 2597 2516 z" transform="scale(0.015625)"/></defs><use xlink:href="#DejaVuSans-33"/><use x="63.623" xlink:href="#DejaVuSans-30"/><use x="127.246" xlink:href="#DejaVuSans-30"/></g></g></g><g id="xtick_5"><g id="line2d_5"><g><use style="stroke:#000;stroke-width:.8" x="342.698" y="307.584" xlink:href="#m724af59002"/></g></g><g id="text_5"><g transform="translate(333.154025 322.182437)scale(0.1 -0.1)"><defs><path id="DejaVuSans-34" d="M 2419 4116 L 825 1625 L 2419 1625 L 2419 4116 z M 2253 4666 L 3047 4666 L 3047 1625 L 3713 1625 L 3713 1100 L 3047 1100 L 3047 0 L 2419 0 L 2419 1100 L 313 1100 L 313 1709 L 2253 4666 z" transform="scale(0.015625)"/></defs><use xlink:href="#DejaVuSans-34"/><use x="63.623" xlink:href="#DejaVuSans-30"/><use x="127.246" xlink:href="#DejaVuSans-30"/></g></g></g><g id="xtick_6"><g id="line2d_6"><g><use style="stroke:#000;stroke-width:.8" x="409.914" y="307.584" xlink:href="#m724af59002"/></g></g><g id="text_6"><g transform="translate(400.370287 322.182437)scale(0.1 -0.1)"><defs><path id="DejaVuSans-35" d="M 691 4666 L 3169 4666 L 3169 4134 L 1269 4134 L 1269 2991 Q 1406 3038 1543 3061 Q 1681 3084 1819 3084 Q 2600 3084 3056 2656 Q 3513 2228 3513 1497 Q 3513 744 3044 326 Q 2575 -91 1722 -91 Q 1428 -91 1123 -41 Q 819 9 494 109 L 494 744 Q 775 591 1075 516 Q 1375 441 1709 441 Q 2250 441 2565 725 Q 2881 1009 2881 1497 Q 2881 1984 2565 2268 Q 2250 2553 1709 2553 Q 1456 2553 1204 2497 Q 953 2441 691 2322 L 691 4666 z" transform="scale(0.015625)"/></defs><use xlink:href="#DejaVuSans-35"/><use x="63.623" xlink:href="#DejaVuSans-30"/><use x="127.246" xlink:href="#DejaVuSans-30"/></g></g></g><g id="text_7"><g transform="translate(218.349063 337.513688)scale(0.1 -0.1)"><defs><path id="DejaVuSans-c9" d="M 628 4666 L 3578 4666 L 3578 4134 L 1259 4134 L 1259 2753 L 3481 2753 L 3481 2222 L 1259 2222 L 1259 531 L 3634 531 L 3634 0 L 628 0 L 628 4666 z M 2268 5921 L 2846 5921 L 2134 5096 L 1655 5096 L 2268 5921 z" transform="scale(0.015625)"/><path id="DejaVuSans-70" d="M 1159 525 L 1159 -1331 L 581 -1331 L 581 3500 L 1159 3500 L 1159 2969 Q 1341 3281 1617 3432 Q 1894 3584 2278 3584 Q 2916 3584 3314 3078 Q 3713 2572 3713 1747 Q 3713 922 3314 415 Q 2916 -91 2278 -91 Q 1894 -91 1617 61 Q 1341 213 1159 525 z M 3116 1747 Q 3116 2381 2855 2742 Q 2594 3103 2138 3103 Q 1681 3103 1420 2742 Q 1159 2381 1159 1747 Q 1159 1113 1420 752 Q 1681 391 2138 391 Q 2594 391 2855 752 Q 3116 1113 3116 1747 z" transform="scale(0.015625)"/><path id="DejaVuSans-6f" d="M 1959 3097 Q 1497 3097 1228 2736 Q 959 2375 959 1747 Q 959 1119 1226 758 Q 1494 397 1959 397 Q 2419 397 2687 759 Q 2956 1122 2956 1747 Q 2956 2369 2687 2733 Q 2419 3097 1959 3097 z M 1959 3584 Q 2709 3584 3137 3096 Q 3566 2609 3566 1747 Q 3566 888 3137 398 Q 2709 -91 1959 -91 Q 1206 -91 779 398 Q 353 888 353 1747 Q 353 2609 779 3096 Q 1206 3584 1959 3584 z" transform="scale(0.015625)"/><path id="DejaVuSans-63" d="M 3122 3366 L 3122 2828 Q 2878 2963 2633 3030 Q 2388 3097 2138 3097 Q 1578 3097 1268 2742 Q 959 2388 959 1747 Q 959 1106 1268 751 Q 1578 397 2138 397 Q 2388 397 2633 464 Q 2878 531 3122 666 L 3122 134 Q 2881 22 2623 -34 Q 2366 -91 2075 -91 Q 1284 -91 818 406 Q 353 903 353 1747 Q 353 2603 823 3093 Q 1294 3584 2113 3584 Q 2378 3584 2631 3529 Q 2884 3475 3122 3366 z" transform="scale(0.015625)"/><path id="DejaVuSans-61" d="M 2194 1759 Q 1497 1759 1228 1600 Q 959 1441 959 1056 Q 959 750 1161 570 Q 1363 391 1709 391 Q 2188 391 2477 730 Q 2766 1069 2766 1631 L 2766 1759 L 2194 1759 z M 3341 1997 L 3341 0 L 2766 0 L 2766 531 Q 2569 213 2275 61 Q 1981 -91 1556 -91 Q 1019 -91 701 211 Q 384 513 384 1019 Q 384 1609 779 1909 Q 1175 2209 1959 2209 L 2766 2209 L 2766 2266 Q 2766 2663 2505 2880 Q 2244 3097 1772 3097 Q 1472 3097 1187 3025 Q 903 2953 641 2809 L 641 3341 Q 956 3463 1253 3523 Q 1550 3584 1831 3584 Q 2591 3584 2966 3190 Q 3341 2797 3341 1997 z" transform="scale(0.015625)"/><path id="DejaVuSans-73" d="M 2834 3397 L 2834 2853 Q 2591 2978 2328 3040 Q 2066 3103 1784 3103 Q 1356 3103 1142 2972 Q 928 2841 928 2578 Q 928 2378 1081 2264 Q 1234 2150 1697 2047 L 1894 2003 Q 2506 1872 2764 1633 Q 3022 1394 3022 966 Q 3022 478 2636 193 Q 2250 -91 1575 -91 Q 1294 -91 989 -36 Q 684 19 347 128 L 347 722 Q 666 556 975 473 Q 1284 391 1588 391 Q 1994 391 2212 530 Q 2431 669 2431 922 Q 2431 1156 2273 1281 Q 2116 1406 1581 1522 L 1381 1569 Q 847 1681 609 1914 Q 372 2147 372 2553 Q 372 3047 722 3315 Q 1072 3584 1716 3584 Q 2034 3584 2315 3537 Q 2597 3491 2834 3397 z" transform="scale(0.015625)"/></defs><use xlink:href="#DejaVuSans-c9"/><use x="63.184" xlink:href="#DejaVuSans-70"/><use x="126.66" xlink:href="#DejaVuSans-6f"/><use x="187.842" xlink:href="#DejaVuSans-63"/><use x="242.822" xlink:href="#DejaVuSans-61"/><use x="304.102" xlink:href="#DejaVuSans-73"/></g></g></g><g id="matplotlib.axis_2"><g id="ytick_1"><g id="line2d_7"><defs><path id="mb755a41c64" d="M 0 0 L -3.5 0" style="stroke:#000;stroke-width:.8"/></defs><g><use style="stroke:#000;stroke-width:.8" x="57.6" y="295.508" xlink:href="#mb755a41c64"/></g></g><g id="text_8"><g transform="translate(28.334375 299.307141)scale(0.1 -0.1)"><defs><path id="DejaVuSans-2e" d="M 684 794 L 1344 794 L 1344 0 L 684 0 L 684 794 z" transform="scale(0.015625)"/></defs><use xlink:href="#DejaVuSans-30"/><use x="63.623" xlink:href="#DejaVuSans-2e"/><use x="95.41" xlink:href="#DejaVuSans-30"/><use x="159.033" xlink:href="#DejaVuSans-30"/></g></g></g><g id="ytick_2"><g id="line2d_8"><g><use style="stroke:#000;stroke-width:.8" x="57.6" y="256.209" xlink:href="#mb755a41c64"/></g></g><g id="text_9"><g transform="translate(28.334375 260.007862)scale(0.1 -0.1)"><use xlink:href="#DejaVuSans-30"/><use x="63.623" xlink:href="#DejaVuSans-2e"/><use x="95.41" xlink:href="#DejaVuSans-30"/><use x="159.033" xlink:href="#DejaVuSans-32"/></g></g></g><g id="ytick_3"><g id="line2d_9"><g><use style="stroke:#000;stroke-width:.8" x="57.6" y="216.909" xlink:href="#mb755a41c64"/></g></g><g id="text_10"><g transform="translate(28.334375 220.708583)scale(0.1 -0.1)"><use xlink:href="#DejaVuSans-30"/><use x="63.623" xlink:href="#DejaVuSans-2e"/><use x="95.41" xlink:href="#DejaVuSans-30"/><use x="159.033" xlink:href="#DejaVuSans-34"/></g></g></g><g id="ytick_4"><g id="line2d_10"><g><use style="stroke:#000;stroke-width:.8" x="57.6" y="177.61" xlink:href="#mb755a41c64"/></g></g><g id="text_11"><g transform="translate(28.334375 181.409304)scale(0.1 -0.1)"><defs><path id="DejaVuSans-36" d="M 2113 2584 Q 1688 2584 1439 2293 Q 1191 2003 1191 1497 Q 1191 994 1439 701 Q 1688 409 2113 409 Q 2538 409 2786 701 Q 3034 994 3034 1497 Q 3034 2003 2786 2293 Q 2538 2584 2113 2584 z M 3366 4563 L 3366 3988 Q 3128 4100 2886 4159 Q 2644 4219 2406 4219 Q 1781 4219 1451 3797 Q 1122 3375 1075 2522 Q 1259 2794 1537 2939 Q 1816 3084 2150 3084 Q 2853 3084 3261 2657 Q 3669 2231 3669 1497 Q 3669 778 3244 343 Q 2819 -91 2113 -91 Q 1303 -91 875 529 Q 447 1150 447 2328 Q 447 3434 972 4092 Q 1497 4750 2381 4750 Q 2619 4750 2861 4703 Q 3103 4656 3366 4563 z" transform="scale(0.015625)"/></defs><use xlink:href="#DejaVuSans-30"/><use x="63.623" xlink:href="#DejaVuSans-2e"/><use x="95.41" xlink:href="#DejaVuSans-30"/><use x="159.033" xlink:href="#DejaVuSans-36"/></g></g></g><g id="ytick_5"><g id="line2d_11"><g><use style="stroke:#000;stroke-width:.8" x="57.6" y="138.311" xlink:href="#mb755a41c64"/></g></g><g id="text_12"><g transform="translate(28.334375 142.110026)scale(0.1 -0.1)"><defs><path id="DejaVuSans-38" d="M 2034 2216 Q 1584 2216 1326 1975 Q 1069 1734 1069 1313 Q 1069 891 1326 650 Q 1584 409 2034 409 Q 2484 409 2743 651 Q 3003 894 3003 1313 Q 3003 1734 2745 1975 Q 2488 2216 2034 2216 z M 1403 2484 Q 997 2584 770 2862 Q 544 3141 544 3541 Q 544 4100 942 4425 Q 1341 4750 2034 4750 Q 2731 4750 3128 4425 Q 3525 4100 3525 3541 Q 3525 3141 3298 2862 Q 3072 2584 2669 2484 Q 3125 2378 3379 2068 Q 3634 1759 3634 1313 Q 3634 634 3220 271 Q 2806 -91 2034 -91 Q 1263 -91 848 271 Q 434 634 434 1313 Q 434 1759 690 2068 Q 947 2378 1403 2484 z M 1172 3481 Q 1172 3119 1398 2916 Q 1625 2713 2034 2713 Q 2441 2713 2670 2916 Q 2900 3119 2900 3481 Q 2900 3844 2670 4047 Q 2441 4250 2034 4250 Q 1625 4250 1398 4047 Q 1172 3844 1172 3481 z" transform="scale(0.015625)"/></defs><use xlink:href="#DejaVuSans-30"/><use x="63.623" xlink:href="#DejaVuSans-2e"/><use x="95.41" xlink:href="#DejaVuSans-30"/><use x="159.033" xlink:href="#DejaVuSans-38"/></g></g></g><g id="ytick_6"><g id="line2d_12"><g><use style="stroke:#000;stroke-width:.8" x="57.6" y="99.012" xlink:href="#mb755a41c64"/></g></g><g id="text_13"><g transform="translate(28.334375 102.810747)scale(0.1 -0.1)"><use xlink:href="#DejaVuSans-30"/><use x="63.623" xlink:href="#DejaVuSans-2e"/><use x="95.41" xlink:href="#DejaVuSans-31"/><use x="159.033" xlink:href="#DejaVuSans-30"/></g></g></g><g id="ytick_7"><g id="line2d_13"><g><use style="stroke:#000;stroke-width:.8" x="57.6" y="59.712" xlink:href="#mb755a41c64"/></g></g><g id="text_14"><g transform="translate(28.334375 63.511468)scale(0.1 -0.1)"><use xlink:href="#DejaVuSans-30"/><use x="63.623" xlink:href="#DejaVuSans-2e"/><use x="95.41" xlink:href="#DejaVuSans-31"/><use x="159.033" xlink:href="#DejaVuSans-32"/></g></g></g><g id="text_15"><g transform="translate(22.254688 185.175656)rotate(-90)scale(0.1 -0.1)"><defs><path id="DejaVuSans-4d" d="M 628 4666 L 1569 4666 L 2759 1491 L 3956 4666 L 4897 4666 L 4897 0 L 4281 0 L 4281 4097 L 3078 897 L 2444 897 L 1241 4097 L 1241 0 L 628 0 L 628 4666 z" transform="scale(0.015625)"/><path id="DejaVuSans-53" d="M 3425 4513 L 3425 3897 Q 3066 4069 2747 4153 Q 2428 4238 2131 4238 Q 1616 4238 1336 4038 Q 1056 3838 1056 3469 Q 1056 3159 1242 3001 Q 1428 2844 1947 2747 L 2328 2669 Q 3034 2534 3370 2195 Q 3706 1856 3706 1288 Q 3706 609 3251 259 Q 2797 -91 1919 -91 Q 1588 -91 1214 -16 Q 841 59 441 206 L 441 856 Q 825 641 1194 531 Q 1563 422 1919 422 Q 2459 422 2753 634 Q 3047 847 3047 1241 Q 3047 1584 2836 1778 Q 2625 1972 2144 2069 L 1759 2144 Q 1053 2284 737 2584 Q 422 2884 422 3419 Q 422 4038 858 4394 Q 1294 4750 2059 4750 Q 2388 4750 2728 4690 Q 3069 4631 3425 4513 z" transform="scale(0.015625)"/><path id="DejaVuSans-45" d="M 628 4666 L 3578 4666 L 3578 4134 L 1259 4134 L 1259 2753 L 3481 2753 L 3481 2222 L 1259 2222 L 1259 531 L 3634 531 L 3634 0 L 628 0 L 628 4666 z" transform="scale(0.015625)"/></defs><use xlink:href="#DejaVuSans-4d"/><use x="86.279" xlink:href="#DejaVuSans-53"/><use x="149.756" xlink:href="#DejaVuSans-45"/></g></g></g><g id="line2d_14"><path d="M 73.832727 53.568 L 74.50489 126.443805 L 75.177053 157.433606 L 75.849215 177.068667 L 76.521378 189.539167 L 77.19354 199.654613 L 77.865703 207.81684 L 79.210028 220.45871 L 79.882191 225.922587 L 80.554353 229.63366 L 81.226516 234.079265 L 81.898679 235.84934 L 82.570841 239.094663 L 84.587329 246.217668 L 85.931654 250.139329 L 86.603817 250.91893 L 87.948142 253.548135 L 89.292468 255.902889 L 89.96463 257.635708 L 90.636793 257.45565 L 91.308955 258.035087 L 91.981118 259.359118 L 92.653281 259.612948 L 93.325443 259.701869 L 93.997606 260.705285 L 94.669768 261.023191 L 95.341931 261.763381 L 96.014094 262.775724 L 96.686256 263.202827 L 97.358419 262.967348 L 98.702744 263.245994 L 99.374907 264.156774 L 100.047069 264.197301 L 100.719232 264.8345 L 101.391395 264.64556 L 102.063557 264.96899 L 103.407883 266.118576 L 104.080045 266.553803 L 104.752208 265.990025 L 105.42437 265.873771 L 106.096533 266.5655 L 106.768696 266.355438 L 107.440858 267.178413 L 108.113021 266.688269 L 108.785184 267.054931 L 109.457346 267.598055 L 110.129509 268.541943 L 110.801671 267.253306 L 112.145997 267.89021 L 112.818159 267.830736 L 113.490322 268.497914 L 114.162484 268.281928 L 116.178972 268.675662 L 116.851135 268.721824 L 118.19546 269.153175 L 118.867623 269.053221 L 119.539785 269.33866 L 120.884111 270.464125 L 121.556273 269.658519 L 122.228436 269.926358 L 122.900599 269.480942 L 123.572761 270.002604 L 124.917086 269.72608 L 125.589249 270.08122 L 126.261412 270.093946 L 126.933574 269.986648 L 127.605737 271.391284 L 128.277899 270.611086 L 128.950062 270.185692 L 129.622225 270.576592 L 130.96655 270.87327 L 131.638713 271.31286 L 132.310875 270.572579 L 132.983038 270.936375 L 133.6552 270.628799 L 134.327363 271.049744 L 134.999526 272.001537 L 135.671688 271.187758 L 136.343851 271.488397 L 137.016014 271.316438 L 137.688176 273.097663 L 138.360339 272.014539 L 139.032501 273.074012 L 139.704664 270.911948 L 140.376827 272.078897 L 141.721152 271.533624 L 142.393315 273.66968 L 143.065477 271.458881 L 143.73764 273.182715 L 144.409802 271.243129 L 145.081965 271.451888 L 145.754128 271.533988 L 146.42629 271.913114 L 147.098453 271.700251 L 147.770615 271.672015 L 148.442778 272.007768 L 149.114941 272.709109 L 149.787103 271.658089 L 150.459266 272.808654 L 151.131429 271.654546 L 151.803591 272.197852 L 152.475754 272.947638 L 153.147916 271.999464 L 155.164404 272.241231 L 155.836567 272.502789 L 156.50873 274.924966 L 157.180892 272.065194 L 157.853055 272.640013 L 158.525217 273.022539 L 159.19738 272.84608 L 159.869543 272.370069 L 160.541705 272.854694 L 161.213868 272.688715 L 161.88603 273.066216 L 162.558193 272.425198 L 163.230356 272.977585 L 163.902518 272.480655 L 164.574681 272.715986 L 165.246844 273.948186 L 165.919006 272.649174 L 166.591169 274.585171 L 167.263331 272.210702 L 167.935494 272.674701 L 168.607657 273.315027 L 169.279819 272.756104 L 169.951982 272.576577 L 170.624145 274.079001 L 171.296307 273.845182 L 171.96847 272.085818 L 172.640632 274.688426 L 173.312795 272.832483 L 173.984958 272.446791 L 174.65712 272.869522 L 175.329283 273.881883 L 176.001446 272.861167 L 176.673608 273.376568 L 177.345771 275.250361 L 178.017933 272.693469 L 178.690096 273.856797 L 179.362259 274.529546 L 180.034421 272.861187 L 181.378746 273.300303 L 183.395234 273.222355 L 184.73956 273.691245 L 186.083885 272.888404 L 186.756047 273.248526 L 187.42821 273.743594 L 188.100373 273.292221 L 188.772535 273.62739 L 190.116861 273.527007 L 190.789023 273.302414 L 191.461186 273.421054 L 192.133348 273.682836 L 192.805511 273.276198 L 193.477674 273.977633 L 194.149836 273.334903 L 195.494161 273.265267 L 196.166324 274.450156 L 196.838487 274.026145 L 197.510649 273.763465 L 198.182812 274.521426 L 198.854975 273.197038 L 200.1993 273.398115 L 200.871462 273.705433 L 201.543625 273.480069 L 202.215788 273.486651 L 202.88795 274.211233 L 203.560113 273.512963 L 204.232276 273.827362 L 205.576601 273.575619 L 206.248763 274.541521 L 206.920926 273.575023 L 207.593089 273.46177 L 208.265251 273.61286 L 208.937414 273.602345 L 209.609577 274.307843 L 210.281739 273.502122 L 210.953902 273.806565 L 211.626064 273.711622 L 212.97039 274.255153 L 213.642552 273.895391 L 214.314715 273.979846 L 214.986877 274.336968 L 215.65904 275.570808 L 216.331203 274.305047 L 217.003365 273.818673 L 217.675528 274.128675 L 218.347691 273.717504 L 219.019853 273.923172 L 219.692016 274.40339 L 220.364178 273.779613 L 221.036341 273.958515 L 221.708504 274.866979 L 222.380666 275.054057 L 223.052829 273.311034 L 223.724992 273.914705 L 224.397154 274.069057 L 225.069317 273.927831 L 225.741479 274.047543 L 226.413642 273.896037 L 227.085805 274.012625 L 227.757967 273.7605 L 228.43013 274.010552 L 229.774455 273.927143 L 230.446618 274.256337 L 231.11878 274.132612 L 231.790943 274.136872 L 232.463106 274.564867 L 233.135268 274.62307 L 233.807431 273.346596 L 234.479593 274.035643 L 235.151756 273.956795 L 235.823919 274.171291 L 236.496081 274.232812 L 237.168244 274.645172 L 237.840407 273.823374 L 238.512569 274.758285 L 239.184732 275.28595 L 239.856894 274.502469 L 240.529057 273.31458 L 241.20122 274.892134 L 241.873382 274.153373 L 242.545545 274.669557 L 243.217708 273.704388 L 243.88987 274.119071 L 244.562033 274.276316 L 245.234195 274.649403 L 245.906358 274.667897 L 246.578521 273.840179 L 247.250683 274.027794 L 247.922846 274.525304 L 248.595008 273.875769 L 249.267171 275.051144 L 249.939334 275.076001 L 250.611496 273.690855 L 251.283659 274.268584 L 251.955822 274.292826 L 252.627984 274.480159 L 253.300147 273.924757 L 253.972309 275.282436 L 254.644472 275.090041 L 255.316635 274.352419 L 255.988797 274.186861 L 256.66096 274.60553 L 257.333123 274.332429 L 258.005285 274.314182 L 258.677448 274.418855 L 259.34961 274.895935 L 260.021773 274.184013 L 260.693936 274.203131 L 261.366098 274.059669 L 262.038261 274.602318 L 262.710423 275.475334 L 263.382586 274.526592 L 264.054749 274.252216 L 264.726911 274.42697 L 265.399074 274.418466 L 266.071237 274.223417 L 266.743399 274.368446 L 267.415562 274.258861 L 268.759887 274.599136 L 269.43205 275.018434 L 270.104212 277.153218 L 270.776375 273.805101 L 271.448538 274.312672 L 272.1207 275.29592 L 272.792863 274.242374 L 273.465025 274.518216 L 274.137188 274.268975 L 274.809351 274.234653 L 275.481513 274.419598 L 279.514489 274.565344 L 280.186652 274.070173 L 280.858814 274.8619 L 281.530977 273.995101 L 282.203139 274.548014 L 282.875302 274.405537 L 283.547465 274.579878 L 284.219627 274.410772 L 284.89179 274.47832 L 285.563953 274.688021 L 286.236115 274.2377 L 286.908278 275.893506 L 287.58044 274.166597 L 288.924766 274.865451 L 289.596928 274.608956 L 290.269091 274.640329 L 290.941254 275.164327 L 291.613416 274.805902 L 292.285579 274.578153 L 292.957741 275.251284 L 293.629904 274.541602 L 294.302067 274.378394 L 294.974229 274.469746 L 296.318554 274.997889 L 296.990717 274.253138 L 297.66288 274.440781 L 298.335042 275.427014 L 299.679368 274.484906 L 301.023693 274.852514 L 301.695855 274.989308 L 302.368018 274.525139 L 303.040181 274.93149 L 303.712343 274.158333 L 304.384506 274.954728 L 305.056669 274.357954 L 305.728831 275.682448 L 306.400994 274.172925 L 307.073156 274.197274 L 307.745319 274.987154 L 308.417482 274.631461 L 309.089644 274.49582 L 309.761807 274.478724 L 310.43397 274.86201 L 311.106132 274.524859 L 311.778295 274.574355 L 312.450457 275.169061 L 313.12262 274.58794 L 313.794783 275.665202 L 314.466945 274.448341 L 315.139108 274.636786 L 316.483433 274.415993 L 317.155596 274.595408 L 317.827758 274.465263 L 319.172084 275.195281 L 319.844246 274.568898 L 320.516409 274.861274 L 321.188571 274.316625 L 321.860734 275.214378 L 322.532897 274.345992 L 323.205059 275.043531 L 323.877222 274.234222 L 325.221547 275.598075 L 325.89371 274.251581 L 326.565872 275.333252 L 327.238035 274.515171 L 327.910198 275.658261 L 328.58236 274.411691 L 329.254523 274.51878 L 329.926685 275.029905 L 330.598848 274.684898 L 331.271011 275.027727 L 331.943173 274.532554 L 332.615336 274.835484 L 333.287499 274.995768 L 333.959661 275.325138 L 334.631824 274.721297 L 335.303986 274.555504 L 335.976149 275.841478 L 336.648312 274.819834 L 337.320474 275.574104 L 337.992637 274.704418 L 338.6648 275.136317 L 339.336962 274.65423 L 340.009125 275.22294 L 341.35345 275.418953 L 342.025613 274.681794 L 344.714263 274.538853 L 345.386426 274.767298 L 346.058588 274.526548 L 346.730751 274.806266 L 347.402914 274.541713 L 348.747239 274.67884 L 349.419401 275.070169 L 350.763727 274.651807 L 351.435889 274.856432 L 352.108052 274.8779 L 352.780215 275.705283 L 353.452377 274.503909 L 354.796702 274.964932 L 355.468865 275.002782 L 356.141028 274.876959 L 356.81319 275.141781 L 357.485353 274.890899 L 358.157516 275.002327 L 358.829678 274.957914 L 360.174003 274.427605 L 360.846166 275.006532 L 361.518329 274.868033 L 362.862654 275.181597 L 363.534816 275.614564 L 364.206979 274.964809 L 364.879142 276.327466 L 365.551304 274.432189 L 366.223467 275.005134 L 366.89563 274.995038 L 367.567792 275.31549 L 368.239955 274.898865 L 368.912117 274.717003 L 369.58428 274.991321 L 370.256443 275.540759 L 370.928605 275.2097 L 371.600768 275.478509 L 372.272931 274.319414 L 372.945093 276.15184 L 373.617256 275.165668 L 374.289418 275.420944 L 374.961581 274.860156 L 375.633744 274.635789 L 376.978069 274.789816 L 377.650232 274.587641 L 378.322394 275.417189 L 378.994557 274.854516 L 379.666719 275.691208 L 380.338882 274.64915 L 381.011045 275.105195 L 381.683207 274.724772 L 382.35537 274.858151 L 383.027532 275.327756 L 383.699695 274.806396 L 384.371858 275.841981 L 385.04402 274.980125 L 386.388346 274.894398 L 387.060508 275.84376 L 387.732671 274.661424 L 388.404833 275.361789 L 389.076996 274.984509 L 389.749159 275.214187 L 390.421321 274.787777 L 391.093484 275.202021 L 391.765647 274.779828 L 392.437809 275.15992 L 393.109972 275.148182 L 394.454297 274.71781 L 395.12646 275.203529 L 395.798622 275.099484 L 396.470785 274.707813 L 397.81511 275.119587 L 398.487273 275.592699 L 398.487273 275.592699" clip-path="url(#pb7269039b8)" style="fill:none;stroke:#1f77b4;stroke-linecap:square;stroke-width:1.5"/></g><g id="line2d_15"><path d="M 73.832727 139.594061 L 74.50489 178.265915 L 75.177053 201.11334 L 75.849215 217.123888 L 76.521378 229.514841 L 77.19354 239.455052 L 78.537866 253.626947 L 79.882191 263.84939 L 80.554353 268.338653 L 81.226516 271.176692 L 81.898679 274.886507 L 83.915167 280.964384 L 84.587329 282.18281 L 85.259492 283.695727 L 86.603817 285.727652 L 87.27598 286.396114 L 87.948142 287.386808 L 89.292468 288.671147 L 89.96463 287.984094 L 90.636793 289.653513 L 91.981118 290.479085 L 95.341931 291.889512 L 96.014094 291.215066 L 96.686256 292.096403 L 98.030582 292.595706 L 98.702744 292.697469 L 99.374907 292.911793 L 100.047069 292.971076 L 100.719232 292.667329 L 101.391395 292.832979 L 102.063557 293.264504 L 102.73572 293.517085 L 103.407883 293.329363 L 104.080045 292.667216 L 104.752208 292.762436 L 105.42437 293.638672 L 106.096533 293.894962 L 106.768696 293.772538 L 107.440858 294.044014 L 108.113021 293.867114 L 108.785184 293.970607 L 109.457346 294.195112 L 110.129509 293.711404 L 110.801671 293.965071 L 111.473834 294.089218 L 112.145997 294.006253 L 112.818159 294.190485 L 113.490322 294.093379 L 115.50681 294.507978 L 116.178972 294.284068 L 117.523298 294.336768 L 118.19546 294.607208 L 120.211948 294.110397 L 120.884111 293.806886 L 121.556273 294.762709 L 122.900599 294.710722 L 123.572761 294.476269 L 124.244924 294.406227 L 125.589249 294.780017 L 126.933574 294.738005 L 127.605737 294.973882 L 128.277899 294.628738 L 128.950062 294.785721 L 129.622225 294.805109 L 130.294387 294.962805 L 130.96655 294.769879 L 131.638713 295.009755 L 134.327363 294.871073 L 134.999526 294.590164 L 135.671688 294.941342 L 136.343851 295.079779 L 137.016014 295.024872 L 137.688176 294.540897 L 138.360339 295.101838 L 139.032501 294.585845 L 139.704664 294.73474 L 140.376827 294.6214 L 141.048989 295.052713 L 141.721152 295.114028 L 142.393315 294.772904 L 143.065477 294.941154 L 143.73764 294.652528 L 144.409802 295.081236 L 146.42629 295.15507 L 147.770615 295.116952 L 148.442778 295.131412 L 149.114941 294.908351 L 149.787103 295.123337 L 150.459266 294.95781 L 151.131429 295.059037 L 151.803591 294.981301 L 152.475754 295.250143 L 154.492242 295.106164 L 155.164404 295.187401 L 155.836567 295.137252 L 156.50873 295.308421 L 157.180892 295.207431 L 157.853055 295.259807 L 158.525217 295.181165 L 159.869543 295.273567 L 160.541705 295.283866 L 161.213868 295.139926 L 161.88603 295.279429 L 165.919006 295.147226 L 166.591169 295.334874 L 167.935494 295.246148 L 169.279819 295.290982 L 170.624145 295.154619 L 171.296307 294.913686 L 171.96847 295.196027 L 172.640632 295.336602 L 176.001446 295.315799 L 176.673608 295.183135 L 177.345771 295.362615 L 178.690096 295.157105 L 179.362259 295.366517 L 184.067397 295.17605 L 184.73956 295.356577 L 186.756047 295.298252 L 187.42821 295.231306 L 188.772535 295.334989 L 190.116861 295.356695 L 191.461186 295.34901 L 192.805511 295.315473 L 194.149836 295.323091 L 200.1993 295.354852 L 201.543625 295.325846 L 204.232276 295.304522 L 205.576601 295.322919 L 206.920926 295.391314 L 211.626064 295.353587 L 213.642552 295.39437 L 214.986877 295.345612 L 215.65904 295.429938 L 217.003365 295.394034 L 219.019853 295.396883 L 221.036341 295.395927 L 223.052829 295.412843 L 226.413642 295.354069 L 249.267171 295.449366 L 253.972309 295.452497 L 255.316635 295.391877 L 260.693936 295.449017 L 266.071237 295.425179 L 272.792863 295.453792 L 282.875302 295.452393 L 296.990717 295.460428 L 307.745319 295.463139 L 317.155596 295.464521 L 342.697775 295.469759 L 362.190491 295.471592 L 369.58428 295.482716 L 398.487273 295.471242 L 398.487273 295.471242" clip-path="url(#pb7269039b8)" style="fill:none;stroke:#ff7f0e;stroke-linecap:square;stroke-width:1.5"/></g><g id="line2d_16"><path d="M 364.879142 307.584 L 364.879142 41.472" clip-path="url(#pb7269039b8)" style="fill:none;stroke:red;stroke-dasharray:5.55,2.4;stroke-dashoffset:0;stroke-width:1.5"/></g><g id="patch_3"><path d="M 57.6 307.584 L 57.6 41.472" style="fill:none;stroke:#000;stroke-linecap:square;stroke-linejoin:miter;stroke-width:.8"/></g><g id="patch_4"><path d="M 414.72 307.584 L 414.72 41.472" style="fill:none;stroke:#000;stroke-linecap:square;stroke-linejoin:miter;stroke-width:.8"/></g><g id="patch_5"><path d="M 57.6 307.584 L 414.72 307.584" style="fill:none;stroke:#000;stroke-linecap:square;stroke-linejoin:miter;stroke-width:.8"/></g><g id="patch_6"><path d="M 57.6 41.472 L 414.72 41.472" style="fill:none;stroke:#000;stroke-linecap:square;stroke-linejoin:miter;stroke-width:.8"/></g><g id="text_16"><g transform="translate(191.023125 35.472)scale(0.12 -0.12)"><defs><path id="DejaVuSans-72" d="M 2631 2963 Q 2534 3019 2420 3045 Q 2306 3072 2169 3072 Q 1681 3072 1420 2755 Q 1159 2438 1159 1844 L 1159 0 L 581 0 L 581 3500 L 1159 3500 L 1159 2956 Q 1341 3275 1631 3429 Q 1922 3584 2338 3584 Q 2397 3584 2469 3576 Q 2541 3569 2628 3553 L 2631 2963 z" transform="scale(0.015625)"/><path id="DejaVuSans-20" transform="scale(0.015625)"/><path id="DejaVuSans-64" d="M 2906 2969 L 2906 4863 L 3481 4863 L 3481 0 L 2906 0 L 2906 525 Q 2725 213 2448 61 Q 2172 -91 1784 -91 Q 1150 -91 751 415 Q 353 922 353 1747 Q 353 2572 751 3078 Q 1150 3584 1784 3584 Q 2172 3584 2448 3432 Q 2725 3281 2906 2969 z M 947 1747 Q 947 1113 1208 752 Q 1469 391 1925 391 Q 2381 391 2643 752 Q 2906 1113 2906 1747 Q 2906 2381 2643 2742 Q 2381 3103 1925 3103 Q 1469 3103 1208 2742 Q 947 2381 947 1747 z" transform="scale(0.015625)"/><path id="DejaVuSans-65" d="M 3597 1894 L 3597 1613 L 953 1613 Q 991 1019 1311 708 Q 1631 397 2203 397 Q 2534 397 2845 478 Q 3156 559 3463 722 L 3463 178 Q 3153 47 2828 -22 Q 2503 -91 2169 -91 Q 1331 -91 842 396 Q 353 884 353 1716 Q 353 2575 817 3079 Q 1281 3584 2069 3584 Q 2775 3584 3186 3129 Q 3597 2675 3597 1894 z M 3022 2063 Q 3016 2534 2758 2815 Q 2500 3097 2075 3097 Q 1594 3097 1305 2825 Q 1016 2553 972 2059 L 3022 2063 z" transform="scale(0.015625)"/><path id="DejaVuSans-6c" d="M 603 4863 L 1178 4863 L 1178 0 L 603 0 L 603 4863 z" transform="scale(0.015625)"/></defs><use xlink:href="#DejaVuSans-45"/><use x="63.184" xlink:href="#DejaVuSans-72"/><use x="102.547" xlink:href="#DejaVuSans-72"/><use x="141.41" xlink:href="#DejaVuSans-6f"/><use x="202.592" xlink:href="#DejaVuSans-20"/><use x="234.379" xlink:href="#DejaVuSans-64"/><use x="297.855" xlink:href="#DejaVuSans-6f"/><use x="359.037" xlink:href="#DejaVuSans-20"/><use x="390.824" xlink:href="#DejaVuSans-4d"/><use x="477.104" xlink:href="#DejaVuSans-6f"/><use x="538.285" xlink:href="#DejaVuSans-64"/><use x="601.762" xlink:href="#DejaVuSans-65"/><use x="663.285" xlink:href="#DejaVuSans-6c"/><use x="691.068" xlink:href="#DejaVuSans-6f"/></g></g><g id="legend_1"><g id="patch_7"><path d="M 321.099688 93.525125 L 407.72 93.525125 Q 409.72 93.525125 409.72 91.525125 L 409.72 48.472 Q 409.72 46.472 407.72 46.472 L 321.099688 46.472 Q 319.099688 46.472 319.099688 48.472 L 319.099688 91.525125 Q 319.099688 93.525125 321.099688 93.525125 z" style="fill:#fff;opacity:.8;stroke:#ccc;stroke-linejoin:miter"/></g><g id="line2d_17"><path d="M 323.099688 54.570438 L 343.099688 54.570438" style="fill:none;stroke:#1f77b4;stroke-linecap:square;stroke-width:1.5"/></g><g id="text_17"><g transform="translate(351.099688 58.070438)scale(0.1 -0.1)"><defs><path id="DejaVuSans-54" d="M -19 4666 L 3928 4666 L 3928 4134 L 2272 4134 L 2272 0 L 1638 0 L 1638 4134 L -19 4134 L -19 4666 z" transform="scale(0.015625)"/><path id="DejaVuSans-69" d="M 603 3500 L 1178 3500 L 1178 0 L 603 0 L 603 3500 z M 603 4863 L 1178 4863 L 1178 4134 L 603 4134 L 603 4863 z" transform="scale(0.015625)"/><path id="DejaVuSans-6e" d="M 3513 2113 L 3513 0 L 2938 0 L 2938 2094 Q 2938 2591 2744 2837 Q 2550 3084 2163 3084 Q 1697 3084 1428 2787 Q 1159 2491 1159 1978 L 1159 0 L 581 0 L 581 3500 L 1159 3500 L 1159 2956 Q 1366 3272 1645 3428 Q 1925 3584 2291 3584 Q 2894 3584 3203 3211 Q 3513 2838 3513 2113 z" transform="scale(0.015625)"/></defs><use xlink:href="#DejaVuSans-54"/><use x="46.334" xlink:href="#DejaVuSans-72"/><use x="85.197" xlink:href="#DejaVuSans-65"/><use x="146.721" xlink:href="#DejaVuSans-69"/><use x="174.504" xlink:href="#DejaVuSans-6e"/><use x="237.883" xlink:href="#DejaVuSans-6f"/></g></g><g id="line2d_19"><path d="M 323.099688 69.267313 L 343.099688 69.267313" style="fill:none;stroke:#ff7f0e;stroke-linecap:square;stroke-width:1.5"/></g><g id="text_18"><g transform="translate(351.099688 72.767313)scale(0.1 -0.1)"><defs><path id="DejaVuSans-56" d="M 1831 0 L 50 4666 L 709 4666 L 2188 738 L 3669 4666 L 4325 4666 L 2547 0 L 1831 0 z" transform="scale(0.015625)"/><path id="DejaVuSans-e7" d="M 3122 3366 L 3122 2828 Q 2878 2963 2633 3030 Q 2388 3097 2138 3097 Q 1578 3097 1268 2742 Q 959 2388 959 1747 Q 959 1106 1268 751 Q 1578 397 2138 397 Q 2388 397 2633 464 Q 2878 531 3122 666 L 3122 134 Q 2881 22 2623 -34 Q 2366 -91 2075 -91 Q 1284 -91 818 406 Q 353 903 353 1747 Q 353 2603 823 3093 Q 1294 3584 2113 3584 Q 2378 3584 2631 3529 Q 2884 3475 3122 3366 z M 2311 0 Q 2482 -194 2566 -358 Q 2651 -522 2651 -672 Q 2651 -950 2463 -1092 Q 2276 -1234 1907 -1234 Q 1764 -1234 1628 -1215 Q 1492 -1197 1357 -1159 L 1357 -750 Q 1464 -803 1579 -826 Q 1695 -850 1842 -850 Q 2026 -850 2120 -775 Q 2214 -700 2214 -556 Q 2214 -463 2146 -327 Q 2079 -191 1939 0 L 2311 0 z" transform="scale(0.015625)"/><path id="DejaVuSans-e3" d="M 2194 1759 Q 1497 1759 1228 1600 Q 959 1441 959 1056 Q 959 750 1161 570 Q 1363 391 1709 391 Q 2188 391 2477 730 Q 2766 1069 2766 1631 L 2766 1759 L 2194 1759 z M 3341 1997 L 3341 0 L 2766 0 L 2766 531 Q 2569 213 2275 61 Q 1981 -91 1556 -91 Q 1019 -91 701 211 Q 384 513 384 1019 Q 384 1609 779 1909 Q 1175 2209 1959 2209 L 2766 2209 L 2766 2266 Q 2766 2663 2505 2880 Q 2244 3097 1772 3097 Q 1472 3097 1187 3025 Q 903 2953 641 2809 L 641 3341 Q 956 3463 1253 3523 Q 1550 3584 1831 3584 Q 2591 3584 2966 3190 Q 3341 2797 3341 1997 z M 1844 4281 L 1665 4453 Q 1597 4516 1545 4545 Q 1494 4575 1453 4575 Q 1334 4575 1278 4461 Q 1222 4347 1215 4091 L 825 4091 Q 831 4513 990 4742 Q 1150 4972 1434 4972 Q 1553 4972 1653 4928 Q 1753 4884 1869 4781 L 2047 4609 Q 2115 4547 2167 4517 Q 2219 4488 2259 4488 Q 2378 4488 2434 4602 Q 2490 4716 2497 4972 L 2887 4972 Q 2881 4550 2721 4320 Q 2562 4091 2278 4091 Q 2159 4091 2059 4134 Q 1959 4178 1844 4281 z" transform="scale(0.015625)"/></defs><use xlink:href="#DejaVuSans-56"/><use x="60.658" xlink:href="#DejaVuSans-61"/><use x="121.938" xlink:href="#DejaVuSans-6c"/><use x="149.721" xlink:href="#DejaVuSans-69"/><use x="177.504" xlink:href="#DejaVuSans-64"/><use x="240.98" xlink:href="#DejaVuSans-61"/><use x="302.26" xlink:href="#DejaVuSans-e7"/><use x="357.24" xlink:href="#DejaVuSans-e3"/><use x="418.52" xlink:href="#DejaVuSans-6f"/></g></g><g id="line2d_21"><path d="M 323.099688 83.945438 L 343.099688 83.945438" style="fill:none;stroke:red;stroke-dasharray:5.55,2.4;stroke-dashoffset:0;stroke-width:1.5"/></g><g id="text_19"><g transform="translate(351.099688 87.445438)scale(0.1 -0.1)"><use xlink:href="#DejaVuSans-4d"/><use x="86.279" xlink:href="#DejaVuSans-65"/><use x="147.803" xlink:href="#DejaVuSans-6e"/><use x="211.182" xlink:href="#DejaVuSans-6f"/><use x="272.363" xlink:href="#DejaVuSans-72"/><use x="313.477" xlink:href="#DejaVuSans-20"/><use x="345.264" xlink:href="#DejaVuSans-65"/><use x="406.787" xlink:href="#DejaVuSans-72"/><use x="446.15" xlink:href="#DejaVuSans-72"/><use x="485.014" xlink:href="#DejaVuSans-6f"/></g></g></g></g></g><defs><clipPath id="pb7269039b8"><rect width="357.12" height="266.112" x="57.6" y="41.472"/></clipPath></defs></svg>