<svg xmlns="http://www.w3.org/2000/svg" xmlns:xlink="http://www.w3.org/1999/xlink" width="614.4" height="460.8" version="1.1" viewBox="0 0 460.8 345.6"><metadata><rdf:RDF xmlns:cc="http://creativecommons.org/ns#" xmlns:dc="http://purl.org/dc/elements/1.1/" xmlns:rdf="http://www.w3.org/1999/02/22-rdf-syntax-ns#"><cc:Work><dc:type rdf:resource="http://purl.org/dc/dcmitype/StillImage"/><dc:date>2021-05-05T14:42:33.909968</dc:date><dc:format>image/svg+xml</dc:format><dc:creator><cc:Agent><dc:title>Matplotlib v3.4.1, https://matplotlib.org/</dc:title></cc:Agent></dc:creator></cc:Work></rdf:RDF></metadata><defs><style type="text/css">*{stroke-linecap:butt;stroke-linejoin:round}</style></defs><g id="figure_1"><g id="patch_1"><path d="M 0 345.6 L 460.8 345.6 L 460.8 0 L 0 0 z" style="fill:#fff"/></g><g id="axes_1"><g id="patch_2"><path d="M 57.6 307.584 L 414.72 307.584 L 414.72 41.472 L 57.6 41.472 z" style="fill:#fff"/></g><g id="matplotlib.axis_1"><g id="xtick_1"><g id="line2d_1"><defs><path id="m4173d3e30f" d="M 0 0 L 0 3.5" style="stroke:#000;stroke-width:.8"/></defs><g><use style="stroke:#000;stroke-width:.8" x="57.6" y="307.584" xlink:href="#m4173d3e30f"/></g></g></g><g id="xtick_2"><g id="line2d_2"><g><use style="stroke:#000;stroke-width:.8" x="122.531" y="307.584" xlink:href="#m4173d3e30f"/></g></g><g id="text_1"><g transform="translate(119.349659 322.182437)scale(0.1 -0.1)"><defs><path id="DejaVuSans-34" d="M 2419 4116 L 825 1625 L 2419 1625 L 2419 4116 z M 2253 4666 L 3047 4666 L 3047 1625 L 3713 1625 L 3713 1100 L 3047 1100 L 3047 0 L 2419 0 L 2419 1100 L 313 1100 L 313 1709 L 2253 4666 z" transform="scale(0.015625)"/></defs><use xlink:href="#DejaVuSans-34"/></g></g></g><g id="xtick_3"><g id="line2d_3"><g><use style="stroke:#000;stroke-width:.8" x="187.462" y="307.584" xlink:href="#m4173d3e30f"/></g></g><g id="text_2"><g transform="translate(184.280568 322.182437)scale(0.1 -0.1)"><defs><path id="DejaVuSans-38" d="M 2034 2216 Q 1584 2216 1326 1975 Q 1069 1734 1069 1313 Q 1069 891 1326 650 Q 1584 409 2034 409 Q 2484 409 2743 651 Q 3003 894 3003 1313 Q 3003 1734 2745 1975 Q 2488 2216 2034 2216 z M 1403 2484 Q 997 2584 770 2862 Q 544 3141 544 3541 Q 544 4100 942 4425 Q 1341 4750 2034 4750 Q 2731 4750 3128 4425 Q 3525 4100 3525 3541 Q 3525 3141 3298 2862 Q 3072 2584 2669 2484 Q 3125 2378 3379 2068 Q 3634 1759 3634 1313 Q 3634 634 3220 271 Q 2806 -91 2034 -91 Q 1263 -91 848 271 Q 434 634 434 1313 Q 434 1759 690 2068 Q 947 2378 1403 2484 z M 1172 3481 Q 1172 3119 1398 2916 Q 1625 2713 2034 2713 Q 2441 2713 2670 2916 Q 2900 3119 2900 3481 Q 2900 3844 2670 4047 Q 2441 4250 2034 4250 Q 1625 4250 1398 4047 Q 1172 3844 1172 3481 z" transform="scale(0.015625)"/></defs><use xlink:href="#DejaVuSans-38"/></g></g></g><g id="xtick_4"><g id="line2d_4"><g><use style="stroke:#000;stroke-width:.8" x="252.393" y="307.584" xlink:href="#m4173d3e30f"/></g></g><g id="text_3"><g transform="translate(246.030227 322.182437)scale(0.1 -0.1)"><defs><path id="DejaVuSans-31" d="M 794 531 L 1825 531 L 1825 4091 L 703 3866 L 703 4441 L 1819 4666 L 2450 4666 L 2450 531 L 3481 531 L 3481 0 L 794 0 L 794 531 z" transform="scale(0.015625)"/><path id="DejaVuSans-36" d="M 2113 2584 Q 1688 2584 1439 2293 Q 1191 2003 1191 1497 Q 1191 994 1439 701 Q 1688 409 2113 409 Q 2538 409 2786 701 Q 3034 994 3034 1497 Q 3034 2003 2786 2293 Q 2538 2584 2113 2584 z M 3366 4563 L 3366 3988 Q 3128 4100 2886 4159 Q 2644 4219 2406 4219 Q 1781 4219 1451 3797 Q 1122 3375 1075 2522 Q 1259 2794 1537 2939 Q 1816 3084 2150 3084 Q 2853 3084 3261 2657 Q 3669 2231 3669 1497 Q 3669 778 3244 343 Q 2819 -91 2113 -91 Q 1303 -91 875 529 Q 447 1150 447 2328 Q 447 3434 972 4092 Q 1497 4750 2381 4750 Q 2619 4750 2861 4703 Q 3103 4656 3366 4563 z" transform="scale(0.015625)"/></defs><use xlink:href="#DejaVuSans-31"/><use x="63.623" xlink:href="#DejaVuSans-36"/></g></g></g><g id="xtick_5"><g id="line2d_5"><g><use style="stroke:#000;stroke-width:.8" x="317.324" y="307.584" xlink:href="#m4173d3e30f"/></g></g><g id="text_4"><g transform="translate(310.961136 322.182437)scale(0.1 -0.1)"><defs><path id="DejaVuSans-33" d="M 2597 2516 Q 3050 2419 3304 2112 Q 3559 1806 3559 1356 Q 3559 666 3084 287 Q 2609 -91 1734 -91 Q 1441 -91 1130 -33 Q 819 25 488 141 L 488 750 Q 750 597 1062 519 Q 1375 441 1716 441 Q 2309 441 2620 675 Q 2931 909 2931 1356 Q 2931 1769 2642 2001 Q 2353 2234 1838 2234 L 1294 2234 L 1294 2753 L 1863 2753 Q 2328 2753 2575 2939 Q 2822 3125 2822 3475 Q 2822 3834 2567 4026 Q 2313 4219 1838 4219 Q 1578 4219 1281 4162 Q 984 4106 628 3988 L 628 4550 Q 988 4650 1302 4700 Q 1616 4750 1894 4750 Q 2613 4750 3031 4423 Q 3450 4097 3450 3541 Q 3450 3153 3228 2886 Q 3006 2619 2597 2516 z" transform="scale(0.015625)"/><path id="DejaVuSans-32" d="M 1228 531 L 3431 531 L 3431 0 L 469 0 L 469 531 Q 828 903 1448 1529 Q 2069 2156 2228 2338 Q 2531 2678 2651 2914 Q 2772 3150 2772 3378 Q 2772 3750 2511 3984 Q 2250 4219 1831 4219 Q 1534 4219 1204 4116 Q 875 4013 500 3803 L 500 4441 Q 881 4594 1212 4672 Q 1544 4750 1819 4750 Q 2544 4750 2975 4387 Q 3406 4025 3406 3419 Q 3406 3131 3298 2873 Q 3191 2616 2906 2266 Q 2828 2175 2409 1742 Q 1991 1309 1228 531 z" transform="scale(0.015625)"/></defs><use xlink:href="#DejaVuSans-33"/><use x="63.623" xlink:href="#DejaVuSans-32"/></g></g></g><g id="xtick_6"><g id="line2d_6"><g><use style="stroke:#000;stroke-width:.8" x="382.255" y="307.584" xlink:href="#m4173d3e30f"/></g></g><g id="text_5"><g transform="translate(375.892045 322.182437)scale(0.1 -0.1)"><use xlink:href="#DejaVuSans-36"/><use x="63.623" xlink:href="#DejaVuSans-34"/></g></g></g><g id="text_6"><g transform="translate(160.268438 337.38025)scale(0.12 -0.12)"><defs><path id="DejaVuSans-51" d="M 2522 4238 Q 1834 4238 1429 3725 Q 1025 3213 1025 2328 Q 1025 1447 1429 934 Q 1834 422 2522 422 Q 3209 422 3611 934 Q 4013 1447 4013 2328 Q 4013 3213 3611 3725 Q 3209 4238 2522 4238 z M 3406 84 L 4238 -825 L 3475 -825 L 2784 -78 Q 2681 -84 2626 -87 Q 2572 -91 2522 -91 Q 1538 -91 948 567 Q 359 1225 359 2328 Q 359 3434 948 4092 Q 1538 4750 2522 4750 Q 3503 4750 4090 4092 Q 4678 3434 4678 2328 Q 4678 1516 4351 937 Q 4025 359 3406 84 z" transform="scale(0.015625)"/><path id="DejaVuSans-75" d="M 544 1381 L 544 3500 L 1119 3500 L 1119 1403 Q 1119 906 1312 657 Q 1506 409 1894 409 Q 2359 409 2629 706 Q 2900 1003 2900 1516 L 2900 3500 L 3475 3500 L 3475 0 L 2900 0 L 2900 538 Q 2691 219 2414 64 Q 2138 -91 1772 -91 Q 1169 -91 856 284 Q 544 659 544 1381 z M 1991 3584 L 1991 3584 z" transform="scale(0.015625)"/><path id="DejaVuSans-61" d="M 2194 1759 Q 1497 1759 1228 1600 Q 959 1441 959 1056 Q 959 750 1161 570 Q 1363 391 1709 391 Q 2188 391 2477 730 Q 2766 1069 2766 1631 L 2766 1759 L 2194 1759 z M 3341 1997 L 3341 0 L 2766 0 L 2766 531 Q 2569 213 2275 61 Q 1981 -91 1556 -91 Q 1019 -91 701 211 Q 384 513 384 1019 Q 384 1609 779 1909 Q 1175 2209 1959 2209 L 2766 2209 L 2766 2266 Q 2766 2663 2505 2880 Q 2244 3097 1772 3097 Q 1472 3097 1187 3025 Q 903 2953 641 2809 L 641 3341 Q 956 3463 1253 3523 Q 1550 3584 1831 3584 Q 2591 3584 2966 3190 Q 3341 2797 3341 1997 z" transform="scale(0.015625)"/><path id="DejaVuSans-6e" d="M 3513 2113 L 3513 0 L 2938 0 L 2938 2094 Q 2938 2591 2744 2837 Q 2550 3084 2163 3084 Q 1697 3084 1428 2787 Q 1159 2491 1159 1978 L 1159 0 L 581 0 L 581 3500 L 1159 3500 L 1159 2956 Q 1366 3272 1645 3428 Q 1925 3584 2291 3584 Q 2894 3584 3203 3211 Q 3513 2838 3513 2113 z" transform="scale(0.015625)"/><path id="DejaVuSans-74" d="M 1172 4494 L 1172 3500 L 2356 3500 L 2356 3053 L 1172 3053 L 1172 1153 Q 1172 725 1289 603 Q 1406 481 1766 481 L 2356 481 L 2356 0 L 1766 0 Q 1100 0 847 248 Q 594 497 594 1153 L 594 3053 L 172 3053 L 172 3500 L 594 3500 L 594 4494 L 1172 4494 z" transform="scale(0.015625)"/><path id="DejaVuSans-69" d="M 603 3500 L 1178 3500 L 1178 0 L 603 0 L 603 3500 z M 603 4863 L 1178 4863 L 1178 4134 L 603 4134 L 603 4863 z" transform="scale(0.015625)"/><path id="DejaVuSans-64" d="M 2906 2969 L 2906 4863 L 3481 4863 L 3481 0 L 2906 0 L 2906 525 Q 2725 213 2448 61 Q 2172 -91 1784 -91 Q 1150 -91 751 415 Q 353 922 353 1747 Q 353 2572 751 3078 Q 1150 3584 1784 3584 Q 2172 3584 2448 3432 Q 2725 3281 2906 2969 z M 947 1747 Q 947 1113 1208 752 Q 1469 391 1925 391 Q 2381 391 2643 752 Q 2906 1113 2906 1747 Q 2906 2381 2643 2742 Q 2381 3103 1925 3103 Q 1469 3103 1208 2742 Q 947 2381 947 1747 z" transform="scale(0.015625)"/><path id="DejaVuSans-65" d="M 3597 1894 L 3597 1613 L 953 1613 Q 991 1019 1311 708 Q 1631 397 2203 397 Q 2534 397 2845 478 Q 3156 559 3463 722 L 3463 178 Q 3153 47 2828 -22 Q 2503 -91 2169 -91 Q 1331 -91 842 396 Q 353 884 353 1716 Q 353 2575 817 3079 Q 1281 3584 2069 3584 Q 2775 3584 3186 3129 Q 3597 2675 3597 1894 z M 3022 2063 Q 3016 2534 2758 2815 Q 2500 3097 2075 3097 Q 1594 3097 1305 2825 Q 1016 2553 972 2059 L 3022 2063 z" transform="scale(0.015625)"/><path id="DejaVuSans-20" transform="scale(0.015625)"/><path id="DejaVuSans-72" d="M 2631 2963 Q 2534 3019 2420 3045 Q 2306 3072 2169 3072 Q 1681 3072 1420 2755 Q 1159 2438 1159 1844 L 1159 0 L 581 0 L 581 3500 L 1159 3500 L 1159 2956 Q 1341 3275 1631 3429 Q 1922 3584 2338 3584 Q 2397 3584 2469 3576 Q 2541 3569 2628 3553 L 2631 2963 z" transform="scale(0.015625)"/><path id="DejaVuSans-f4" d="M 1959 3097 Q 1497 3097 1228 2736 Q 959 2375 959 1747 Q 959 1119 1226 758 Q 1494 397 1959 397 Q 2419 397 2687 759 Q 2956 1122 2956 1747 Q 2956 2369 2687 2733 Q 2419 3097 1959 3097 z M 1959 3584 Q 2709 3584 3137 3096 Q 3566 2609 3566 1747 Q 3566 888 3137 398 Q 2709 -91 1959 -91 Q 1206 -91 779 398 Q 353 888 353 1747 Q 353 2609 779 3096 Q 1206 3584 1959 3584 z M 1729 5119 L 2191 5119 L 2957 3944 L 2523 3944 L 1960 4709 L 1398 3944 L 963 3944 L 1729 5119 z" transform="scale(0.015625)"/><path id="DejaVuSans-6f" d="M 1959 3097 Q 1497 3097 1228 2736 Q 959 2375 959 1747 Q 959 1119 1226 758 Q 1494 397 1959 397 Q 2419 397 2687 759 Q 2956 1122 2956 1747 Q 2956 2369 2687 2733 Q 2419 3097 1959 3097 z M 1959 3584 Q 2709 3584 3137 3096 Q 3566 2609 3566 1747 Q 3566 888 3137 398 Q 2709 -91 1959 -91 Q 1206 -91 779 398 Q 353 888 353 1747 Q 353 2609 779 3096 Q 1206 3584 1959 3584 z" transform="scale(0.015625)"/><path id="DejaVuSans-73" d="M 2834 3397 L 2834 2853 Q 2591 2978 2328 3040 Q 2066 3103 1784 3103 Q 1356 3103 1142 2972 Q 928 2841 928 2578 Q 928 2378 1081 2264 Q 1234 2150 1697 2047 L 1894 2003 Q 2506 1872 2764 1633 Q 3022 1394 3022 966 Q 3022 478 2636 193 Q 2250 -91 1575 -91 Q 1294 -91 989 -36 Q 684 19 347 128 L 347 722 Q 666 556 975 473 Q 1284 391 1588 391 Q 1994 391 2212 530 Q 2431 669 2431 922 Q 2431 1156 2273 1281 Q 2116 1406 1581 1522 L 1381 1569 Q 847 1681 609 1914 Q 372 2147 372 2553 Q 372 3047 722 3315 Q 1072 3584 1716 3584 Q 2034 3584 2315 3537 Q 2597 3491 2834 3397 z" transform="scale(0.015625)"/></defs><use xlink:href="#DejaVuSans-51"/><use x="78.711" xlink:href="#DejaVuSans-75"/><use x="142.09" xlink:href="#DejaVuSans-61"/><use x="203.369" xlink:href="#DejaVuSans-6e"/><use x="266.748" xlink:href="#DejaVuSans-74"/><use x="305.957" xlink:href="#DejaVuSans-69"/><use x="333.74" xlink:href="#DejaVuSans-64"/><use x="397.217" xlink:href="#DejaVuSans-61"/><use x="458.496" xlink:href="#DejaVuSans-64"/><use x="521.973" xlink:href="#DejaVuSans-65"/><use x="583.496" xlink:href="#DejaVuSans-20"/><use x="615.283" xlink:href="#DejaVuSans-64"/><use x="678.76" xlink:href="#DejaVuSans-65"/><use x="740.283" xlink:href="#DejaVuSans-20"/><use x="772.07" xlink:href="#DejaVuSans-6e"/><use x="835.449" xlink:href="#DejaVuSans-65"/><use x="896.973" xlink:href="#DejaVuSans-75"/><use x="960.352" xlink:href="#DejaVuSans-72"/><use x="999.215" xlink:href="#DejaVuSans-f4"/><use x="1060.396" xlink:href="#DejaVuSans-6e"/><use x="1123.775" xlink:href="#DejaVuSans-69"/><use x="1151.559" xlink:href="#DejaVuSans-6f"/><use x="1212.74" xlink:href="#DejaVuSans-73"/></g></g></g><g id="matplotlib.axis_2"><g id="ytick_1"><g id="line2d_7"><defs><path id="mf742060014" d="M 0 0 L -3.5 0" style="stroke:#000;stroke-width:.8"/></defs><g><use style="stroke:#000;stroke-width:.8" x="57.6" y="295.488" xlink:href="#mf742060014"/></g></g><g id="text_7"><g transform="translate(34.696875 299.287219)scale(0.1 -0.1)"><defs><path id="DejaVuSans-30" d="M 2034 4250 Q 1547 4250 1301 3770 Q 1056 3291 1056 2328 Q 1056 1369 1301 889 Q 1547 409 2034 409 Q 2525 409 2770 889 Q 3016 1369 3016 2328 Q 3016 3291 2770 3770 Q 2525 4250 2034 4250 z M 2034 4750 Q 2819 4750 3233 4129 Q 3647 3509 3647 2328 Q 3647 1150 3233 529 Q 2819 -91 2034 -91 Q 1250 -91 836 529 Q 422 1150 422 2328 Q 422 3509 836 4129 Q 1250 4750 2034 4750 z" transform="scale(0.015625)"/><path id="DejaVuSans-2e" d="M 684 794 L 1344 794 L 1344 0 L 684 0 L 684 794 z" transform="scale(0.015625)"/></defs><use xlink:href="#DejaVuSans-30"/><use x="63.623" xlink:href="#DejaVuSans-2e"/><use x="95.41" xlink:href="#DejaVuSans-30"/></g></g></g><g id="ytick_2"><g id="line2d_8"><g><use style="stroke:#000;stroke-width:.8" x="57.6" y="244.258" xlink:href="#mf742060014"/></g></g><g id="text_8"><g transform="translate(34.696875 248.057101)scale(0.1 -0.1)"><use xlink:href="#DejaVuSans-30"/><use x="63.623" xlink:href="#DejaVuSans-2e"/><use x="95.41" xlink:href="#DejaVuSans-31"/></g></g></g><g id="ytick_3"><g id="line2d_9"><g><use style="stroke:#000;stroke-width:.8" x="57.6" y="193.028" xlink:href="#mf742060014"/></g></g><g id="text_9"><g transform="translate(34.696875 196.826983)scale(0.1 -0.1)"><use xlink:href="#DejaVuSans-30"/><use x="63.623" xlink:href="#DejaVuSans-2e"/><use x="95.41" xlink:href="#DejaVuSans-32"/></g></g></g><g id="ytick_4"><g id="line2d_10"><g><use style="stroke:#000;stroke-width:.8" x="57.6" y="141.798" xlink:href="#mf742060014"/></g></g><g id="text_10"><g transform="translate(34.696875 145.596866)scale(0.1 -0.1)"><use xlink:href="#DejaVuSans-30"/><use x="63.623" xlink:href="#DejaVuSans-2e"/><use x="95.41" xlink:href="#DejaVuSans-33"/></g></g></g><g id="ytick_5"><g id="line2d_11"><g><use style="stroke:#000;stroke-width:.8" x="57.6" y="90.568" xlink:href="#mf742060014"/></g></g><g id="text_11"><g transform="translate(34.696875 94.366748)scale(0.1 -0.1)"><use xlink:href="#DejaVuSans-30"/><use x="63.623" xlink:href="#DejaVuSans-2e"/><use x="95.41" xlink:href="#DejaVuSans-34"/></g></g></g><g id="text_12"><g transform="translate(28.20125 187.305187)rotate(-90)scale(0.12 -0.12)"><defs><path id="DejaVuSans-4d" d="M 628 4666 L 1569 4666 L 2759 1491 L 3956 4666 L 4897 4666 L 4897 0 L 4281 0 L 4281 4097 L 3078 897 L 2444 897 L 1241 4097 L 1241 0 L 628 0 L 628 4666 z" transform="scale(0.015625)"/><path id="DejaVuSans-53" d="M 3425 4513 L 3425 3897 Q 3066 4069 2747 4153 Q 2428 4238 2131 4238 Q 1616 4238 1336 4038 Q 1056 3838 1056 3469 Q 1056 3159 1242 3001 Q 1428 2844 1947 2747 L 2328 2669 Q 3034 2534 3370 2195 Q 3706 1856 3706 1288 Q 3706 609 3251 259 Q 2797 -91 1919 -91 Q 1588 -91 1214 -16 Q 841 59 441 206 L 441 856 Q 825 641 1194 531 Q 1563 422 1919 422 Q 2459 422 2753 634 Q 3047 847 3047 1241 Q 3047 1584 2836 1778 Q 2625 1972 2144 2069 L 1759 2144 Q 1053 2284 737 2584 Q 422 2884 422 3419 Q 422 4038 858 4394 Q 1294 4750 2059 4750 Q 2388 4750 2728 4690 Q 3069 4631 3425 4513 z" transform="scale(0.015625)"/><path id="DejaVuSans-45" d="M 628 4666 L 3578 4666 L 3578 4134 L 1259 4134 L 1259 2753 L 3481 2753 L 3481 2222 L 1259 2222 L 1259 531 L 3634 531 L 3634 0 L 628 0 L 628 4666 z" transform="scale(0.015625)"/></defs><use xlink:href="#DejaVuSans-4d"/><use x="86.279" xlink:href="#DejaVuSans-53"/><use x="149.756" xlink:href="#DejaVuSans-45"/></g></g></g><g id="line2d_12"><path d="M 122.530909 181.643294 L 122.530909 252.796235" clip-path="url(#p9b389ed02d)" style="fill:none;stroke:#000;stroke-linecap:square"/></g><g id="line2d_13"><path d="M 122.530909 96.259765 L 122.530909 53.568" clip-path="url(#p9b389ed02d)" style="fill:none;stroke:#000;stroke-linecap:square"/></g><g id="line2d_14"><path d="M 114.414545 252.796235 L 130.647273 252.796235" clip-path="url(#p9b389ed02d)" style="fill:none;stroke:#000;stroke-linecap:square"/></g><g id="line2d_15"><path d="M 114.414545 53.568 L 130.647273 53.568" clip-path="url(#p9b389ed02d)" style="fill:none;stroke:#000;stroke-linecap:square"/></g><g id="line2d_16"><path d="M 187.461818 277.699765 L 187.461818 295.488" clip-path="url(#p9b389ed02d)" style="fill:none;stroke:#000;stroke-linecap:square"/></g><g id="line2d_17"><path d="M 187.461818 227.892706 L 187.461818 167.412706" clip-path="url(#p9b389ed02d)" style="fill:none;stroke:#000;stroke-linecap:square"/></g><g id="line2d_18"><path d="M 179.345455 295.488 L 195.578182 295.488" clip-path="url(#p9b389ed02d)" style="fill:none;stroke:#000;stroke-linecap:square"/></g><g id="line2d_19"><path d="M 179.345455 167.412706 L 195.578182 167.412706" clip-path="url(#p9b389ed02d)" style="fill:none;stroke:#000;stroke-linecap:square"/></g><g id="line2d_20"><path d="M 252.392727 295.488 L 252.392727 295.488" clip-path="url(#p9b389ed02d)" style="fill:none;stroke:#000;stroke-linecap:square"/></g><g id="line2d_21"><path d="M 252.392727 281.257412 L 252.392727 267.026824" clip-path="url(#p9b389ed02d)" style="fill:none;stroke:#000;stroke-linecap:square"/></g><g id="line2d_22"><path d="M 244.276364 295.488 L 260.509091 295.488" clip-path="url(#p9b389ed02d)" style="fill:none;stroke:#000;stroke-linecap:square"/></g><g id="line2d_23"><path d="M 244.276364 267.026824 L 260.509091 267.026824" clip-path="url(#p9b389ed02d)" style="fill:none;stroke:#000;stroke-linecap:square"/></g><g id="line2d_24"><path d="M 317.323636 295.488 L 317.323636 295.488" clip-path="url(#p9b389ed02d)" style="fill:none;stroke:#000;stroke-linecap:square"/></g><g id="line2d_25"><path d="M 317.323636 281.257412 L 317.323636 267.026824" clip-path="url(#p9b389ed02d)" style="fill:none;stroke:#000;stroke-linecap:square"/></g><g id="line2d_26"><path d="M 309.207273 295.488 L 325.44 295.488" clip-path="url(#p9b389ed02d)" style="fill:none;stroke:#000;stroke-linecap:square"/></g><g id="line2d_27"><path d="M 309.207273 267.026824 L 325.44 267.026824" clip-path="url(#p9b389ed02d)" style="fill:none;stroke:#000;stroke-linecap:square"/></g><g id="line2d_28"><path d="M 382.254545 281.257412 L 382.254545 295.488" clip-path="url(#p9b389ed02d)" style="fill:none;stroke:#000;stroke-linecap:square"/></g><g id="line2d_29"><path d="M 382.254545 267.026824 L 382.254545 252.796235" clip-path="url(#p9b389ed02d)" style="fill:none;stroke:#000;stroke-linecap:square"/></g><g id="line2d_30"><path d="M 374.138182 295.488 L 390.370909 295.488" clip-path="url(#p9b389ed02d)" style="fill:none;stroke:#000;stroke-linecap:square"/></g><g id="line2d_31"><path d="M 374.138182 252.796235 L 390.370909 252.796235" clip-path="url(#p9b389ed02d)" style="fill:none;stroke:#000;stroke-linecap:square"/></g><g id="patch_3"><path d="M 106.298182 181.643294 L 138.763636 181.643294 L 138.763636 96.259765 L 106.298182 96.259765 L 106.298182 181.643294 z" clip-path="url(#p9b389ed02d)" style="fill:#1f77b4;stroke:#000;stroke-linejoin:miter"/></g><g id="patch_4"><path d="M 171.229091 277.699765 L 203.694545 277.699765 L 203.694545 227.892706 L 171.229091 227.892706 L 171.229091 277.699765 z" clip-path="url(#p9b389ed02d)" style="fill:#1f77b4;stroke:#000;stroke-linejoin:miter"/></g><g id="patch_5"><path d="M 236.16 295.488 L 268.625455 295.488 L 268.625455 281.257412 L 236.16 281.257412 L 236.16 295.488 z" clip-path="url(#p9b389ed02d)" style="fill:#1f77b4;stroke:#000;stroke-linejoin:miter"/></g><g id="patch_6"><path d="M 301.090909 295.488 L 333.556364 295.488 L 333.556364 281.257412 L 301.090909 281.257412 L 301.090909 295.488 z" clip-path="url(#p9b389ed02d)" style="fill:#1f77b4;stroke:#000;stroke-linejoin:miter"/></g><g id="patch_7"><path d="M 366.021818 281.257412 L 398.487273 281.257412 L 398.487273 267.026824 L 366.021818 267.026824 L 366.021818 281.257412 z" clip-path="url(#p9b389ed02d)" style="fill:#1f77b4;stroke:#000;stroke-linejoin:miter"/></g><g id="line2d_32"><path d="M 106.298182 167.412706 L 138.763636 167.412706" clip-path="url(#p9b389ed02d)" style="fill:none;stroke:#ff7f0e;stroke-linecap:square"/></g><g id="line2d_33"><path d="M 171.229091 267.026824 L 203.694545 267.026824" clip-path="url(#p9b389ed02d)" style="fill:none;stroke:#ff7f0e;stroke-linecap:square"/></g><g id="line2d_34"><path d="M 236.16 295.488 L 268.625455 295.488" clip-path="url(#p9b389ed02d)" style="fill:none;stroke:#ff7f0e;stroke-linecap:square"/></g><g id="line2d_35"><path d="M 301.090909 281.257412 L 333.556364 281.257412" clip-path="url(#p9b389ed02d)" style="fill:none;stroke:#ff7f0e;stroke-linecap:square"/></g><g id="line2d_36"><path d="M 366.021818 281.257412 L 398.487273 281.257412" clip-path="url(#p9b389ed02d)" style="fill:none;stroke:#ff7f0e;stroke-linecap:square"/></g><g id="patch_8"><path d="M 57.6 307.584 L 57.6 41.472" style="fill:none;stroke:#000;stroke-linecap:square;stroke-linejoin:miter;stroke-width:.8"/></g><g id="patch_9"><path d="M 414.72 307.584 L 414.72 41.472" style="fill:none;stroke:#000;stroke-linecap:square;stroke-linejoin:miter;stroke-width:.8"/></g><g id="patch_10"><path d="M 57.6 307.584 L 414.72 307.584" style="fill:none;stroke:#000;stroke-linecap:square;stroke-linejoin:miter;stroke-width:.8"/></g><g id="patch_11"><path d="M 57.6 41.472 L 414.72 41.472" style="fill:none;stroke:#000;stroke-linecap:square;stroke-linejoin:miter;stroke-width:.8"/></g></g></g><defs><clipPath id="p9b389ed02d"><rect width="357.12" height="266.112" x="57.6" y="41.472"/></clipPath></defs></svg>